<svg width="52" height="53" viewBox="0 0 52 53" fill="none" xmlns="http://www.w3.org/2000/svg">
<path fill-rule="evenodd" clip-rule="evenodd" d="M4.77682 21.6793C4.20132 21.9813 3.59132 22.0298 2.93932 21.8318C2.28732 21.6328 1.80282 21.2498 1.49982 20.6803C1.18982 20.1083 1.13632 19.4908 1.33832 18.8263C1.58332 18.0228 2.20782 17.4248 2.96332 17.2398L3.16982 18.1263C2.70382 18.2258 2.34032 18.5788 2.18582 19.0848C2.05582 19.5153 2.08182 19.9033 2.27332 20.2523C2.46632 20.5943 2.77382 20.8338 3.20382 20.9643C3.62782 21.0938 4.01632 21.0668 4.36782 20.8903C4.72082 20.7078 4.95882 20.3998 5.09082 19.9698C5.24482 19.4633 5.13782 18.9538 4.81482 18.6273L5.48082 18.0078C6.00432 18.5823 6.19182 19.4198 5.94482 20.2303C5.74282 20.8948 5.35282 21.3773 4.77682 21.6793Z" fill="#A5A090"/>
<path fill-rule="evenodd" clip-rule="evenodd" d="M4.41207 12.4249L5.17157 12.8539L4.55757 13.9414L7.82757 15.7864L7.37957 16.5809L4.10957 14.7359L3.49957 15.8184L2.73907 15.3899L4.41207 12.4249Z" fill="#A5A090"/>
<path fill-rule="evenodd" clip-rule="evenodd" d="M7.24362 8.89564L7.84262 8.20814L9.45662 11.4556C9.89112 12.3251 9.81112 13.0616 9.21962 13.6691L8.57712 13.1091C8.93812 12.7656 8.98062 12.4351 8.81162 12.0156L5.38012 11.0331L5.97962 10.3456L8.32812 11.0511L7.24362 8.89564Z" fill="#A5A090"/>
<path fill-rule="evenodd" clip-rule="evenodd" d="M13.059 8.77604C13.386 8.53954 13.571 8.24304 13.6205 7.88104C13.665 7.51454 13.565 7.16154 13.3135 6.81354C13.062 6.46504 12.7575 6.26004 12.4 6.19304C12.0365 6.12004 11.697 6.20304 11.37 6.43904L10.6195 6.98154L12.3085 9.31854L13.059 8.77604ZM10.8585 5.73154C11.373 5.36004 11.9335 5.23254 12.536 5.34354C13.144 5.45054 13.637 5.77154 14.021 6.30254C14.404 6.83254 14.554 7.40154 14.4655 8.01254C14.382 8.61954 14.085 9.11154 13.5705 9.48354L12.0805 10.5605L9.36802 6.80854L10.8585 5.73154Z" fill="#A5A090"/>
<path fill-rule="evenodd" clip-rule="evenodd" d="M18.874 6.63734L17.8025 4.02584L17.04 7.39034L16.398 7.65384L14.6405 3.37334L15.485 3.02684L16.559 5.64434L17.3195 2.27384L17.9615 2.01034L19.7175 6.29134L18.874 6.63734Z" fill="#A5A090"/>
<path fill-rule="evenodd" clip-rule="evenodd" d="M22.9648 3.17984L22.7428 1.82984L21.8158 1.98234C21.4768 2.03884 21.2458 2.38484 21.3073 2.75634C21.3688 3.12834 21.6998 3.38884 22.0393 3.33334L22.9648 3.17984ZM23.5038 0.839844L24.2568 5.40584L23.3568 5.55434L23.0958 3.96934L22.5793 4.05434L21.7913 5.81284L20.7803 5.97984L21.6183 4.11234C21.0033 3.99984 20.5068 3.51184 20.4073 2.90534C20.3378 2.48734 20.4293 2.10434 20.6743 1.76234C20.9193 1.42034 21.2533 1.21084 21.6778 1.14134L23.5038 0.839844Z" fill="#A5A090"/>
<path fill-rule="evenodd" clip-rule="evenodd" d="M29.8066 4.85024C30.1666 4.90724 30.4616 4.73324 30.5191 4.36724C30.5776 4.00174 30.3491 3.75124 29.9901 3.69374L29.1416 3.55974L28.9581 4.71524L29.8066 4.85024ZM30.1236 2.85224C30.5676 2.92274 30.9131 3.11074 31.1516 3.42324C31.3906 3.72874 31.4806 4.09124 31.4146 4.50924C31.3466 4.93374 31.1491 5.25074 30.8261 5.47324C30.5041 5.69024 30.1171 5.76274 29.6731 5.69274L27.9231 5.41524L28.6481 0.843742L31.5216 1.29924L31.3846 2.16124L29.4126 1.84874L29.2751 2.71674L30.1236 2.85224Z" fill="#A5A090"/>
<path fill-rule="evenodd" clip-rule="evenodd" d="M33.8203 5.03629L35.0033 5.49529L35.0958 3.50379L33.8203 5.03629ZM34.9173 7.26979L34.9598 6.39329L33.2408 5.72629L32.6808 6.40229L31.7628 6.04629L34.9458 2.31779L35.9998 2.72679L35.8418 7.62879L34.9173 7.26979Z" fill="#A5A090"/>
<path fill-rule="evenodd" clip-rule="evenodd" d="M39.6577 10.1559L38.7877 9.56739L38.6332 6.84539L37.4182 8.64139L36.6632 8.13039L39.2552 4.29739L40.0112 4.80889L38.8662 6.50039L41.3252 5.69739L42.1957 6.28689L39.5187 7.18889L39.6577 10.1559Z" fill="#A5A090"/>
<path fill-rule="evenodd" clip-rule="evenodd" d="M42.2109 12.7609L44.2724 10.8339L40.8564 11.3124L40.3824 10.8049L43.7629 7.64639L44.3859 8.31289L42.3189 10.2439L45.7394 9.76139L46.2134 10.2684L42.8329 13.4269L42.2109 12.7609Z" fill="#A5A090"/>
<path fill-rule="evenodd" clip-rule="evenodd" d="M48.9604 14.5011L49.4114 15.2861L45.3994 17.5911L44.9489 16.8056L46.6109 15.8511L45.7554 14.3611L44.0929 15.3156L43.6379 14.5246L47.6509 12.2201L48.1049 13.0111L46.5114 13.9266L47.3674 15.4166L48.9604 14.5011Z" fill="#A5A090"/>
<path fill-rule="evenodd" clip-rule="evenodd" d="M47.5123 21.1882L46.7938 21.6932L47.0788 22.6422L51.0428 19.7577L50.7183 18.6747L45.8228 18.4517L46.1053 19.3952L46.9823 19.4222L47.5123 21.1882ZM48.2468 20.6712L47.8823 19.4557L49.8748 19.5212L48.2468 20.6712Z" fill="#A5A090"/>
<path fill-rule="evenodd" clip-rule="evenodd" d="M48.038 29.4589C47.986 29.8584 48.0755 30.1969 48.3045 30.4804C48.541 30.7644 48.8655 30.9339 49.292 30.9894C49.718 31.0449 50.0745 30.9649 50.3695 30.7504C50.671 30.5364 50.844 30.2319 50.8965 29.8324L51.016 28.9149L48.158 28.5414L48.038 29.4589ZM51.7615 29.9454C51.6795 30.5744 51.388 31.0699 50.894 31.4319C50.3995 31.8009 49.8275 31.9394 49.1785 31.8549C48.5295 31.7699 48.0135 31.4894 47.63 31.0054C47.2455 30.5289 47.0905 29.9749 47.1735 29.3454L47.411 27.5234L52 28.1234L51.7615 29.9454Z" fill="#A5A090"/>
<path fill-rule="evenodd" clip-rule="evenodd" d="M45.6953 34.9176L48.3398 35.9066L46.3898 33.0601L46.6328 32.4096L50.9683 34.0306L50.6483 34.8856L47.9978 33.8946L49.9538 36.7431L49.7103 37.3936L45.3758 35.7726L45.6953 34.9176Z" fill="#A5A090"/>
<path fill-rule="evenodd" clip-rule="evenodd" d="M44.3076 40.0555C43.9546 39.8345 43.7586 39.5245 43.7046 39.124C43.6516 38.7235 43.7586 38.3155 44.0221 37.895C44.4781 37.1665 45.0911 36.872 45.8621 37.0115L45.8206 37.9135C45.3656 37.7925 45.0066 37.942 44.7511 38.351C44.4841 38.777 44.5306 39.1265 44.8386 39.319C45.1476 39.512 45.4816 39.4015 45.7371 38.9925L46.0431 38.505L46.7321 38.9365L46.5006 39.3065C46.2581 39.693 46.2941 40.035 46.5856 40.2175C46.8771 40.4 47.1751 40.322 47.4031 39.9575C47.6141 39.6215 47.5986 39.2845 47.3526 38.9425L48.1441 38.5255C48.5341 39.1365 48.5291 39.7655 48.1266 40.41C47.8841 40.797 47.5776 41.0495 47.2156 41.166C46.8541 41.283 46.4971 41.231 46.1546 41.017C45.8016 40.7955 45.6151 40.4835 45.5891 40.0775C45.1576 40.33 44.7281 40.3185 44.3076 40.0555Z" fill="#A5A090"/>
<path fill-rule="evenodd" clip-rule="evenodd" d="M43.1162 42.0428L42.2397 42.9608L44.0457 43.8078L43.1162 42.0428ZM40.6317 42.2028L41.4267 42.5773L42.7007 41.2433L42.2897 40.4668L42.9702 39.7538L45.1987 44.1228L44.4182 44.9403L39.9472 42.9203L40.6317 42.2028Z" fill="#A5A090"/>
<path fill-rule="evenodd" clip-rule="evenodd" d="M37.1513 44.8339L38.7218 47.1799L38.8003 43.7314L39.3763 43.3449L41.9503 47.1909L41.1918 47.6984L39.6188 45.3469L39.5438 48.8009L38.9673 49.1874L36.3933 45.3414L37.1513 44.8339Z" fill="#A5A090"/>
<path fill-rule="evenodd" clip-rule="evenodd" d="M34.6211 51.1115L33.7761 51.4375L32.1096 47.1205L32.9541 46.794L33.6446 48.5825L35.2481 47.9635L34.5576 46.175L35.4086 45.8465L37.0751 50.1635L36.2246 50.4925L35.5626 48.7775L33.9591 49.3965L34.6211 51.1115Z" fill="#A5A090"/>
<path fill-rule="evenodd" clip-rule="evenodd" d="M25.9443 48.7804C25.5413 48.7769 25.2158 48.9054 24.9623 49.1674C24.7088 49.4359 24.5798 49.7784 24.5758 50.2079C24.5713 50.6374 24.6943 50.9824 24.9423 51.2489C25.1903 51.5224 25.5138 51.6579 25.9163 51.6619L26.8418 51.6709L26.8698 48.7894L25.9443 48.7804ZM25.9083 52.5344C25.2733 52.5279 24.7468 52.2984 24.3288 51.8514C23.9033 51.4044 23.6968 50.8534 23.7033 50.1994C23.7093 49.5449 23.9263 48.9989 24.3603 48.5599C24.7878 48.1219 25.3183 47.9019 25.9533 47.9084L27.7898 47.9264L27.7453 52.5519L25.9083 52.5344Z" fill="#A5A090"/>
<path fill-rule="evenodd" clip-rule="evenodd" d="M23.248 48.6791C22.731 48.4786 22.41 48.6626 22.2145 49.5131L21.5995 52.1801L18.5325 51.4731L19.5725 46.9636L20.4545 47.1671L19.6115 50.8261L20.913 51.1266L21.3255 49.3351C21.5055 48.5556 21.83 48.0606 22.2245 47.8801C22.6125 47.6981 22.9905 47.7036 23.438 47.8546L23.248 48.6791Z" fill="#A5A090"/>
<path fill-rule="evenodd" clip-rule="evenodd" d="M15.3515 47.7457L14.766 48.9837L15.615 49.3852C15.926 49.5322 16.3135 49.3792 16.4745 49.0382C16.6355 48.6972 16.512 48.2947 16.201 48.1472L15.3515 47.7457ZM13.5755 49.3647L15.556 45.1782L16.3815 45.5687L15.694 47.0222L16.1665 47.2457L17.8165 46.2477L18.7435 46.6867L16.991 47.7457C17.4325 48.1887 17.563 48.8722 17.2995 49.4287C17.1185 49.8112 16.8255 50.0752 16.4285 50.2172C16.033 50.3587 15.6385 50.3407 15.25 50.1567L13.5755 49.3647Z" fill="#A5A090"/>
<path fill-rule="evenodd" clip-rule="evenodd" d="M10.0708 41.9005C9.79377 41.607 9.47527 41.4625 9.10977 41.461C8.74027 41.465 8.40427 41.6095 8.09177 41.905C7.77927 42.2 7.61577 42.5275 7.59577 42.8915C7.57127 43.2605 7.69777 43.587 7.97427 43.88L8.61077 44.553L10.7063 42.573L10.0708 41.9005ZM7.33977 44.4795C6.90427 44.018 6.70477 43.479 6.73527 42.8675C6.76277 42.2505 7.01677 41.72 7.49227 41.27C7.96827 40.8205 8.51327 40.5975 9.12977 40.606C9.74227 40.609 10.2693 40.8395 10.7053 41.301L11.9678 42.6375L8.60227 45.816L7.33977 44.4795Z" fill="#A5A090"/>
<path fill-rule="evenodd" clip-rule="evenodd" d="M7.46482 38.5826L6.44182 36.9211L7.18632 36.4636L8.68632 38.9026L4.74332 41.3276L3.26082 38.9171L4.00382 38.4596L5.00882 40.0931L5.84782 39.5766L4.93032 38.0841L5.66232 37.6336L6.57982 39.1261L7.46482 38.5826Z" fill="#A5A090"/>
<path fill-rule="evenodd" clip-rule="evenodd" d="M6.09272 36.2797C5.97972 35.7367 5.65072 35.5682 4.83072 35.8667L2.25772 36.8027L1.18122 33.8447L5.53172 32.2612L5.84072 33.1127L2.31122 34.3972L2.76822 35.6527L4.49572 35.0242C5.24822 34.7502 5.84022 34.7527 6.20672 34.9857C6.57022 35.2122 6.77122 35.5327 6.88872 35.9902L6.09272 36.2797Z" fill="#A5A090"/>
<path fill-rule="evenodd" clip-rule="evenodd" d="M3.45257 30.2687L3.28957 29.0102L1.49707 29.8827L3.45257 30.2687ZM4.88857 28.2367L4.09857 28.6187L4.33607 30.4472L5.19657 30.6157L5.32357 31.5917L0.527568 30.5812L0.382568 29.4607L4.76057 27.2537L4.88857 28.2367Z" fill="#A5A090"/>
<path fill-rule="evenodd" clip-rule="evenodd" d="M3.12497 24.9408C3.12497 25.4193 2.73697 25.8073 2.25847 25.8073C1.77997 25.8073 1.39197 25.4193 1.39197 24.9408C1.39197 24.4623 1.77997 24.0743 2.25847 24.0743C2.73697 24.0743 3.12497 24.4623 3.12497 24.9408Z" fill="#A5A090"/>
<path fill-rule="evenodd" clip-rule="evenodd" d="M50.5766 24.9554C50.5766 25.4339 50.1891 25.8219 49.7106 25.8219C49.2321 25.8219 48.8436 25.4339 48.8436 24.9554C48.8436 24.4769 49.2321 24.0889 49.7106 24.0889C50.1891 24.0889 50.5766 24.4769 50.5766 24.9554Z" fill="#A5A090"/>
<path fill-rule="evenodd" clip-rule="evenodd" d="M39.271 32.597C38.4055 33.4605 37.212 33.9525 35.908 33.957L35.9035 33.956L19.232 33.957C16.5225 33.957 11.4785 31.8195 11.4785 26.23C11.4785 20.946 15.9155 18.455 19.084 18.455H22.181C23.2715 18.455 24.001 19.2565 24.001 20.243C24.001 21.237 23.179 21.946 22.181 21.946C21.1825 21.946 20.358 21.9435 19.229 21.9435C18.1005 21.9435 15.243 22.972 15.243 26.23C15.243 29.4875 18.083 30.4495 19.232 30.4495L23.0155 30.446L24.051 30.4495C24.051 30.4495 35.13 30.446 35.7475 30.446C36.586 30.446 37.114 29.775 37.114 29.0655C37.114 28.4145 36.6415 27.6435 35.7435 27.6435L27.8975 27.6415C27.0065 27.647 26.1105 26.75 26.1075 25.8515L26.1055 20.2495C26.1035 19.3525 26.9975 18.455 27.8925 18.455H34.221C35.2135 18.451 36.012 19.1675 36.0105 20.1555C36.012 21.1475 35.2085 21.952 34.223 21.954L29.816 21.9495V24.46L32.513 24.4625L35.9035 24.46C37.211 24.46 38.4065 25 39.273 25.8715C40.1355 26.738 40.6725 27.9035 40.6725 29.214C40.678 30.526 40.1355 31.7265 39.271 32.597Z" fill="#A5A090"/>
</svg>
