<svg width="214" height="213" viewBox="0 0 214 213" fill="none" xmlns="http://www.w3.org/2000/svg">
<path d="M95.0324 123.2C95.0324 123.292 95.0235 123.347 95.0049 123.366C94.9489 123.605 94.7918 123.725 94.5326 123.725H92.117C91.8578 123.725 91.7006 123.606 91.6447 123.366C91.6261 123.347 91.6172 123.292 91.6172 123.2V95.078C91.6172 94.5442 91.4325 94.096 91.0615 93.7377C90.6913 93.3786 90.2474 93.1995 89.729 93.1995C89.2105 93.1995 88.7666 93.3786 88.3964 93.7377C88.0262 94.0969 87.8416 94.5451 87.8416 95.078V123.2C87.8416 123.531 87.6747 123.697 87.3418 123.697H84.8152L84.7877 123.669C84.5844 123.596 84.4735 123.486 84.4548 123.338C84.4362 123.32 84.4273 123.274 84.4273 123.201V95.0507C84.4273 94.5169 84.24 94.0686 83.8671 93.7104C83.4943 93.3513 83.0477 93.1721 82.5248 93.1721C82.002 93.1721 81.5323 93.3513 81.1692 93.7104C80.8062 94.0695 80.6233 94.5177 80.6233 95.0507V123.172C80.6233 123.503 80.4502 123.669 80.1004 123.669H77.731C77.4744 123.669 77.3164 123.55 77.2631 123.31C77.2259 123.2 77.2081 123.154 77.2081 123.172V95.0754C77.2081 94.5054 77.2915 93.9627 77.4576 93.4474C77.6245 92.9321 77.8606 92.4627 78.166 92.0401C78.4714 91.6174 78.8371 91.2398 79.2624 90.9089C79.6885 90.578 80.151 90.3204 80.6508 90.1359C81.2616 89.8968 81.891 89.7768 82.539 89.7768C82.872 89.7768 83.196 89.8086 83.5102 89.8739C83.8254 89.9383 84.1397 90.0256 84.4539 90.1359C85.1206 90.3936 85.6844 90.7518 86.1478 91.2124C86.7035 90.6971 87.2672 90.3477 87.8416 90.1642C88.4524 89.9251 89.0818 89.8051 89.7298 89.8051C90.0627 89.8051 90.3868 89.8377 90.7019 89.9021C91.0162 89.9665 91.3313 90.0539 91.6456 90.1642C92.6452 90.5506 93.4593 91.1807 94.0887 92.0542C94.7181 92.9277 95.0324 93.9442 95.0324 95.1036V123.2Z" fill="#A50000"/>
<path d="M59.7682 101.34C59.7682 102.792 59.2808 104.02 58.307 105.024C59.2808 106.028 59.7682 107.247 59.7682 108.681V118.319C59.7682 119.503 59.4389 120.542 58.781 121.439C58.1232 122.335 57.2798 122.98 56.2518 123.374C55.8008 123.554 55.2602 123.67 54.629 123.724H49.3522C49.0273 123.688 48.8657 123.509 48.8657 123.186V90.7457C48.8657 90.4227 49.0282 90.2436 49.3522 90.2074H54.6272C54.9158 90.2251 55.1954 90.2656 55.4662 90.3283C55.7369 90.3909 55.9979 90.4668 56.2509 90.5568C57.2789 90.9512 58.1223 91.5962 58.7801 92.4927C59.4389 93.3892 59.7673 94.4286 59.7673 95.6119V101.339L59.7682 101.34ZM52.383 103.276H54.3041C54.8456 103.276 55.3046 103.088 55.6837 102.711C56.0627 102.335 56.2518 101.878 56.2518 101.34V95.6128C56.2518 95.093 56.0627 94.6448 55.6837 94.268C55.3046 93.8913 54.8447 93.7033 54.3041 93.7033H52.383V103.276ZM56.2518 108.681C56.2518 108.161 56.0627 107.713 55.6837 107.336C55.3046 106.959 54.8447 106.771 54.3041 106.771H52.383V120.228H54.3041C54.8456 120.228 55.3046 120.04 55.6837 119.663C56.0627 119.286 56.2518 118.838 56.2518 118.319V108.681Z" fill="#A50000"/>
<path d="M68.9121 89.7239C69.6693 89.7239 70.3777 89.8668 71.0356 90.1545C71.6943 90.4412 72.2713 90.8268 72.7667 91.3104C73.2629 91.7948 73.6553 92.3683 73.9438 93.031C74.2323 93.6945 74.3771 94.4022 74.3771 95.1548V123.24C74.3407 123.563 74.1604 123.724 73.8364 123.724H71.3747C71.2309 123.724 71.1084 123.67 71.0098 123.562C70.9104 123.455 70.8607 123.329 70.8607 123.186V116.37H66.9918V123.186C66.9918 123.329 66.9377 123.455 66.8294 123.562C66.7211 123.67 66.595 123.724 66.4503 123.724H63.9886C63.8439 123.724 63.7223 123.67 63.6237 123.562C63.5243 123.455 63.4746 123.329 63.4746 123.186V95.1557C63.4746 94.403 63.6184 93.6945 63.9078 93.0318C64.1963 92.3683 64.5843 91.7948 65.0707 91.3112C65.5572 90.8277 66.1298 90.4421 66.7885 90.1554C67.4464 89.8686 68.1548 89.7239 68.9121 89.7239ZM70.8598 95.1566C70.8598 94.6192 70.6707 94.1622 70.2916 93.7854C69.9125 93.4086 69.4527 93.2207 68.9121 93.2207C68.3714 93.2207 67.9382 93.4086 67.5591 93.7854C67.18 94.1622 66.991 94.6192 66.991 95.1566V112.876H70.8598V95.1566Z" fill="#A50000"/>
<path d="M109.951 101.34C109.951 102.792 109.464 104.02 108.49 105.024C109.464 106.028 109.951 107.247 109.951 108.681V118.319C109.951 119.503 109.622 120.542 108.964 121.439C108.305 122.335 107.463 122.98 106.435 123.374C105.984 123.554 105.443 123.67 104.812 123.724H99.5368C99.2119 123.688 99.0503 123.509 99.0503 123.186V90.7457C99.0503 90.4227 99.2128 90.2436 99.5368 90.2074H104.812C105.1 90.2251 105.38 90.2656 105.651 90.3283C105.922 90.3909 106.183 90.4668 106.436 90.5568C107.464 90.9512 108.307 91.5962 108.965 92.4927C109.623 93.3892 109.952 94.4286 109.952 95.6119V101.339L109.951 101.34ZM102.566 103.276H104.487C105.028 103.276 105.488 103.088 105.867 102.711C106.246 102.335 106.435 101.878 106.435 101.34V95.6128C106.435 95.093 106.246 94.6448 105.867 94.268C105.487 93.8913 105.028 93.7033 104.487 93.7033H102.566V103.276ZM106.435 108.681C106.435 108.161 106.246 107.713 105.867 107.336C105.487 106.959 105.028 106.771 104.487 106.771H102.566V120.228H104.487C105.028 120.228 105.488 120.04 105.867 119.663C106.246 119.286 106.435 118.838 106.435 118.319V108.681Z" fill="#A50000"/>
<path d="M124.506 90.2083V118.319C124.506 118.947 124.397 119.548 124.181 120.121C123.964 120.695 123.676 121.214 123.315 121.681C122.81 122.309 122.192 122.806 121.463 123.173C120.732 123.541 119.934 123.725 119.068 123.725C118.203 123.725 117.4 123.541 116.661 123.173C115.921 122.806 115.299 122.309 114.794 121.681C114.433 121.215 114.145 120.696 113.928 120.121C113.712 119.548 113.603 118.947 113.603 118.319V90.2083H117.121V118.319C117.121 118.839 117.31 119.287 117.689 119.664C118.068 120.041 118.528 120.229 119.068 120.229C119.609 120.229 120.042 120.041 120.421 119.664C120.8 119.287 120.989 118.839 120.989 118.319V90.2083H124.506Z" fill="#A50000"/>
<path d="M134.971 95.2095C134.971 94.6898 134.781 94.2416 134.402 93.8648C134.023 93.488 133.572 93.3001 133.049 93.3001C132.527 93.3001 132.049 93.488 131.67 93.8648C131.291 94.2416 131.102 94.6898 131.102 95.2095V118.266C131.102 118.804 131.291 119.261 131.67 119.637C132.049 120.014 132.509 120.201 133.049 120.201C133.59 120.201 134.023 120.014 134.402 119.637C134.781 119.26 134.971 118.803 134.971 118.266V112.377C134.971 112.036 135.142 111.866 135.485 111.866H137.946C138.09 111.866 138.213 111.911 138.311 112C138.411 112.09 138.469 112.198 138.487 112.323V118.266C138.487 119.018 138.343 119.722 138.054 120.376C137.765 121.031 137.373 121.604 136.877 122.097C136.38 122.59 135.803 122.98 135.145 123.267C134.487 123.554 133.788 123.697 133.049 123.697C132.309 123.697 131.578 123.554 130.912 123.267C130.244 122.98 129.667 122.59 129.181 122.097C128.694 121.604 128.306 121.03 128.018 120.376C127.729 119.721 127.584 119.018 127.584 118.266V95.2095C127.584 94.4569 127.728 93.7527 128.018 93.0989C128.306 92.4451 128.694 91.8707 129.181 91.3783C129.667 90.8851 130.244 90.4951 130.912 90.2083C131.579 89.9215 132.291 89.7777 133.049 89.7777C133.806 89.7777 134.487 89.9215 135.145 90.2083C135.804 90.4951 136.381 90.8851 136.877 91.3783C137.373 91.8715 137.765 92.4451 138.054 93.0989C138.342 93.7536 138.487 94.4569 138.487 95.2095V98.9472C138.469 99.0725 138.411 99.1801 138.311 99.2701C138.212 99.3601 138.09 99.4043 137.946 99.4043H135.485C135.142 99.4043 134.971 99.234 134.971 98.8934V95.2095Z" fill="#A50000"/>
<path d="M152.853 123.267C152.835 123.392 152.776 123.5 152.677 123.59C152.577 123.68 152.456 123.724 152.312 123.724H149.85C149.508 123.724 149.336 123.554 149.336 123.213V116.316H145.467V123.213C145.467 123.357 145.413 123.478 145.305 123.576C145.197 123.674 145.071 123.724 144.926 123.724H142.464C142.121 123.724 141.95 123.554 141.95 123.213V90.7192C141.95 90.3786 142.121 90.2083 142.464 90.2083H144.926C145.07 90.2083 145.197 90.2577 145.305 90.3556C145.413 90.4545 145.467 90.5754 145.467 90.7183V112.821H149.336V90.7192C149.336 90.3786 149.508 90.2083 149.85 90.2083H152.312C152.637 90.2083 152.817 90.3609 152.853 90.6654L152.853 123.267Z" fill="#A50000"/>
<path d="M161.402 89.7239C162.159 89.7239 162.867 89.8668 163.525 90.1545C164.184 90.4412 164.761 90.8268 165.256 91.3104C165.752 91.7948 166.145 92.3683 166.433 93.031C166.722 93.6945 166.867 94.4022 166.867 95.1548V123.24C166.83 123.563 166.65 123.724 166.326 123.724H163.864C163.72 123.724 163.598 123.67 163.499 123.562C163.4 123.455 163.35 123.329 163.35 123.186V116.37H159.481V123.186C159.481 123.329 159.427 123.455 159.319 123.562C159.211 123.67 159.085 123.724 158.94 123.724H156.478C156.334 123.724 156.212 123.67 156.113 123.562C156.014 123.455 155.965 123.329 155.965 123.186V95.1557C155.965 94.403 156.109 93.6945 156.398 93.0318C156.687 92.3683 157.075 91.7948 157.561 91.3112C158.048 90.8277 158.621 90.4421 159.279 90.1554C159.938 89.8686 160.645 89.7248 161.403 89.7248M163.35 95.1566C163.35 94.6192 163.161 94.1622 162.782 93.7854C162.403 93.4086 161.943 93.2207 161.403 93.2207C160.862 93.2207 160.429 93.4086 160.05 93.7854C159.671 94.1622 159.481 94.6192 159.481 95.1566V112.876H163.35V95.1566Z" fill="#A50000"/>
<path d="M60.8047 17.1914L61.0694 22.4029L60.1042 22.8569L59.3835 7.08297L60.2104 6.69327L71.948 17.2607L70.9828 17.7148L67.1106 14.2089L60.8047 17.1914ZM60.3546 8.06563L60.7633 16.2231L66.3992 13.5578L60.3546 8.06563Z" fill="#A50000"/>
<path d="M70.6384 12.4652C70.1266 11.2739 69.7635 10.1359 69.5375 9.06054C69.3184 7.986 69.2559 6.95874 69.3577 5.97268C69.4596 4.98661 69.7351 4.10991 70.1791 3.32782C70.6262 2.54963 71.2943 1.86892 72.1865 1.28959C73.0787 0.710265 74.1713 0.282349 75.4642 0.00585938L75.7151 0.759687C73.2947 1.31518 71.684 2.35035 70.8853 3.87602C70.0866 5.40169 70.0242 7.40161 70.6951 9.87188C70.7287 8.98335 71.0089 8.18483 71.5388 7.48023C72.0656 6.77173 72.8156 6.25976 73.7787 5.93956C75.1717 5.47769 76.4525 5.56312 77.6104 6.19808C78.7682 6.83303 79.5931 7.88611 80.0852 9.3573C80.5733 10.8315 80.5423 12.1649 79.9943 13.3683C79.4464 14.5717 78.4743 15.4024 77.0774 15.8673C75.7837 16.2955 74.5576 16.2237 73.3992 15.6522C72.2407 15.0807 71.3184 14.0158 70.6393 12.4583L70.6384 12.4652ZM75.7663 6.50977C75.204 6.43422 74.6287 6.49469 74.0295 6.69339C73.4304 6.89209 72.9324 7.18778 72.5247 7.58267C72.1209 7.97451 71.8303 8.42247 71.6645 8.91739C71.4918 9.41146 71.4108 9.93435 71.4176 10.4891C71.4214 11.04 71.5165 11.5949 71.7006 12.143C71.8846 12.6911 72.1411 13.1951 72.4646 13.6403C72.7882 14.0854 73.1705 14.453 73.6038 14.7492C74.0371 15.0455 74.5335 15.2294 75.0958 15.3049C75.6582 15.3805 76.2335 15.32 76.8326 15.1213C77.4317 14.9226 77.9297 14.6269 78.3374 14.232C78.7412 13.8402 79.028 13.3953 79.1977 12.8973C79.3704 12.4032 79.4514 11.8804 79.4445 11.3256C79.4407 10.7747 79.3457 10.2198 79.1616 9.67172C78.9784 9.11665 78.7211 8.61959 78.3975 8.17445C78.074 7.7293 77.6917 7.36168 77.2583 7.06546C76.825 6.76925 76.3287 6.58531 75.7663 6.50977Z" fill="#A50000"/>
<path d="M84.5843 12.2021C83.4603 11.4336 82.7436 10.302 82.4361 8.79333C82.1246 7.28768 82.342 5.95935 83.0765 4.81749C83.8111 3.67563 84.926 2.94701 86.4204 2.6386C87.1799 2.48414 87.8534 2.42858 88.4548 2.47359C89.0531 2.51471 89.6331 2.67709 90.188 2.95989L89.8125 3.70092C88.8778 3.26249 87.8028 3.16684 86.5836 3.41703C85.3427 3.67164 84.4324 4.28404 83.8588 5.26204C83.2821 6.23615 83.1187 7.3523 83.3792 8.60831C83.6368 9.86042 84.222 10.8243 85.1359 11.4931C86.0497 12.1618 87.1282 12.3743 88.3691 12.1197C89.5883 11.8695 90.5425 11.3612 91.2285 10.591L91.866 11.1238C91.466 11.6007 90.9974 11.9741 90.4663 12.2516C89.9353 12.5292 89.285 12.7428 88.5293 12.8942C87.0279 13.2018 85.7153 12.9714 84.5943 12.2068L84.5843 12.2021Z" fill="#A50000"/>
<path d="M94.6366 10.3569C93.6081 9.46956 93.0245 8.25889 92.8889 6.72879C92.7532 5.19869 93.111 3.9051 93.9693 2.84887C94.8275 1.79263 96.0176 1.20019 97.5474 1.06545C99.0664 0.932912 100.34 1.30684 101.372 2.19808C102.407 3.08627 102.991 4.29694 103.127 5.82704C103.262 7.35714 102.901 8.65378 102.039 9.70612C101.181 10.7624 99.9909 11.3548 98.465 11.4865C96.9392 11.6182 95.665 11.2442 94.6335 10.353L94.6366 10.3569ZM94.6958 3.37484C94.0116 4.27586 93.7238 5.36982 93.8381 6.63976C93.9523 7.90969 94.424 8.93739 95.2548 9.70893C96.0857 10.4805 97.1359 10.8095 98.3947 10.6982C99.6536 10.5869 100.629 10.0812 101.317 9.17708C102.001 8.27606 102.289 7.1821 102.174 5.91216C102.061 4.63527 101.588 3.61454 100.758 2.843C99.9229 2.07451 98.8766 1.74244 97.6177 1.85373C96.3589 1.96503 95.3839 2.47076 94.6958 3.37484Z" fill="#A50000"/>
<path d="M106.974 0.805768L114.7 1.06585L114.371 11.1163L113.436 11.0871L113.739 1.83089L107.882 1.63614L107.714 6.72092C107.693 7.30401 107.636 7.82637 107.542 8.28414C107.444 8.74495 107.336 9.11283 107.21 9.39388C107.084 9.67493 106.928 9.91696 106.735 10.1122C106.542 10.3074 106.376 10.4566 106.234 10.5487C106.092 10.6408 105.919 10.7078 105.712 10.7497C105.502 10.7947 105.362 10.8164 105.281 10.8171C105.2 10.8178 105.091 10.8151 104.955 10.8021C104.923 10.8018 104.898 10.8023 104.884 10.8006L104.91 10.0063C105.335 10.0193 105.677 9.90225 105.938 9.64119C106.455 9.13604 106.74 8.15114 106.788 6.67867L106.981 0.79966L106.974 0.805768Z" fill="#A50000"/>
<path d="M116.952 11.2719L118.599 1.35369L119.518 1.50804L118.772 6.00728L120.325 6.26346C120.474 5.64304 120.713 5.0723 121.037 4.55429C121.361 4.03629 121.75 3.58627 122.208 3.21511C122.67 2.8409 123.21 2.57506 123.826 2.41367C124.448 2.25313 125.104 2.23063 125.799 2.34703C127.217 2.58322 128.275 3.25194 128.988 4.35489C129.697 5.4609 129.926 6.77305 129.671 8.2944C129.42 9.81964 128.781 10.9873 127.751 11.8003C126.721 12.6134 125.501 12.9022 124.086 12.67C123.166 12.5156 122.387 12.1631 121.749 11.6056C121.114 11.052 120.666 10.3765 120.409 9.59013C120.151 8.80374 120.078 7.95508 120.188 7.04415L118.635 6.78797L117.865 11.4254L116.946 11.2711L116.952 11.2719ZM122.716 3.91209C121.885 4.6259 121.363 5.61372 121.155 6.87252C120.945 8.13827 121.119 9.23555 121.678 10.1822C122.234 11.1249 123.086 11.6908 124.227 11.8862C125.375 12.0755 126.366 11.8151 127.2 11.1052C128.034 10.3953 128.553 9.40359 128.762 8.14479C128.972 6.87904 128.798 5.78176 128.238 4.83515C127.682 3.89244 126.827 3.32256 125.679 3.13331C124.537 2.9449 123.55 3.20217 122.719 3.91598L122.716 3.91209Z" fill="#A50000"/>
<path d="M133.041 4.85555L133.271 4.09672L141.523 6.56948L141.293 7.32829L137.613 6.22736L134.961 15.1022L134.065 14.8344L136.718 5.95954L133.037 4.8586L133.041 4.85555Z" fill="#A50000"/>
<path d="M149.916 14.7151L151.633 10.6764L152.492 11.042L148.563 20.2941L147.704 19.9284L149.609 15.4399L143.336 12.7706L141.43 17.2592L140.571 16.8935L144.5 7.64138L145.359 8.00706L143.642 12.0458L149.916 14.7151Z" fill="#A50000"/>
<path d="M152.427 20.8671C152.093 19.5492 152.313 18.2248 153.081 16.8929C153.85 15.5611 154.888 14.7102 156.195 14.3403C157.503 13.9704 158.816 14.1691 160.148 14.9382C161.467 15.6986 162.293 16.7447 162.63 18.0665C162.968 19.3883 162.747 20.7127 161.979 22.0446C161.211 23.3764 160.17 24.2234 158.862 24.5933C157.554 24.9632 156.234 24.7637 154.912 23.9993C153.587 23.2311 152.757 22.188 152.423 20.8701L152.427 20.8671ZM156.487 15.1944C155.408 15.5427 154.547 16.267 153.905 17.3743C153.263 18.4815 153.062 19.5896 153.301 20.6984C153.541 21.8072 154.208 22.6752 155.306 23.3134C156.4 23.9477 157.49 24.0946 158.569 23.7462C159.652 23.4017 160.509 22.6735 161.151 21.5663C161.794 20.459 161.995 19.351 161.755 18.2422C161.516 17.1334 160.845 16.2614 159.751 15.6271C158.656 14.9929 157.566 14.846 156.487 15.1944Z" fill="#A50000"/>
<path d="M175.391 31.6905L178.237 28.3537L178.95 28.9592L172.428 36.6112L171.714 36.0057L174.877 32.2947L169.687 27.8699L166.525 31.5809L165.811 30.9753L172.334 23.3233L173.047 23.9288L170.201 27.2657L175.391 31.6905Z" fill="#A50000"/>
<path d="M184.195 35.1655C183.83 34.7717 183.375 34.3917 182.821 34.0208C182.27 33.6467 181.773 33.4063 181.336 33.2895L181.6 32.5032C182.688 32.8156 183.745 33.523 184.775 34.6293C185.047 34.9199 185.273 35.2086 185.451 35.4912C185.628 35.7739 185.769 36.0346 185.868 36.2724C185.966 36.5101 186.018 36.7528 186.023 37.0004C186.032 37.245 186.023 37.4661 185.996 37.6569C185.97 37.8477 185.903 38.0513 185.794 38.2745C185.686 38.4977 185.583 38.6792 185.491 38.8267C185.399 38.9743 185.262 39.1446 185.086 39.3454C184.907 39.5424 184.765 39.6979 184.649 39.8073C184.533 39.9167 184.382 40.0606 184.195 40.2389L179.796 44.3391L179.159 43.6547L180.778 42.1478C180.026 42.4408 179.28 42.5087 178.548 42.3525C177.812 42.1923 177.126 41.7735 176.483 41.0814C175.69 40.2298 175.258 39.3657 175.195 38.4901C175.132 37.6145 175.474 36.8305 176.218 36.1344C176.572 35.807 176.948 35.5812 177.352 35.4539C177.755 35.3266 178.152 35.2867 178.541 35.3341C178.93 35.3816 179.329 35.4972 179.743 35.6888C180.158 35.8734 180.547 36.1041 180.913 36.371C181.279 36.6379 181.645 36.9435 182.015 37.2955C182.389 37.6445 182.715 37.9806 183.001 38.2977C183.29 38.6187 183.571 38.9527 183.839 39.3029C184.006 39.1469 184.138 39.0183 184.231 38.9202C184.324 38.8222 184.445 38.6958 184.592 38.5303C184.735 38.3678 184.841 38.2219 184.903 38.0918C184.964 37.9617 185.032 37.8077 185.096 37.632C185.164 37.4532 185.185 37.2794 185.167 37.1044C185.149 36.9293 185.116 36.7418 185.063 36.5377C185.01 36.3337 184.909 36.1168 184.754 35.8862C184.601 35.6595 184.411 35.4246 184.187 35.1785L184.195 35.1655ZM176.884 36.84C176.359 37.3265 176.103 37.8985 176.115 38.5563C176.127 39.214 176.446 39.8702 177.061 40.5343C177.482 40.9843 177.94 41.3118 178.442 41.5105C178.943 41.7091 179.428 41.7893 179.898 41.7478C180.369 41.7064 180.813 41.5911 181.234 41.406C181.655 41.2209 182.024 40.9765 182.342 40.6766L183.296 39.7908C183.035 39.4414 182.736 39.0909 182.389 38.7453C182.043 38.3998 181.696 38.0611 181.333 37.7347C180.971 37.4083 180.592 37.1258 180.193 36.8972C179.794 36.6687 179.403 36.4905 179.03 36.3674C178.656 36.2513 178.278 36.2265 177.902 36.3006C177.522 36.3779 177.183 36.5553 176.881 36.8361L176.884 36.84Z" fill="#A50000"/>
<path d="M188.539 40.3411L189.172 39.8642L194.341 46.7598L193.708 47.2366L191.403 44.1651L183.994 49.7229L183.433 48.9735L190.841 43.4157L188.535 40.3441L188.539 40.3411Z" fill="#A50000"/>
<path d="M189.129 57.3623L195.603 48.5965L196.152 49.5136L190.339 57.1886L199.854 55.7083L200.402 56.6254L186.444 58.6229C185.578 58.7468 184.903 58.7598 184.413 58.6719C183.926 58.5809 183.536 58.364 183.247 58.0113C183.075 57.7998 182.924 57.5344 182.794 57.2151C182.663 56.8958 182.606 56.6066 182.62 56.3507L183.515 56.2657C183.531 56.744 183.668 57.1276 183.916 57.4118C184.133 57.664 184.425 57.8125 184.798 57.8543C185.173 57.9001 185.692 57.8715 186.356 57.7725L189.132 57.3662L189.129 57.3623Z" fill="#A50000"/>
<path d="M201.742 59.1948L202.126 60.0459L200.006 61.0014C200.799 60.985 201.559 61.2011 202.282 61.642C203.005 62.0828 203.555 62.7214 203.927 63.55C204.531 64.8901 204.577 66.1694 204.062 67.3909C203.551 68.6094 202.585 69.5361 201.171 70.1718C199.757 70.8075 198.424 70.9134 197.171 70.4855C195.92 70.0616 194.99 69.1791 194.387 67.8391C194.012 67.0066 193.898 66.1706 194.041 65.3413C194.187 64.5089 194.534 63.8031 195.078 63.2132L188.086 66.3554L187.702 65.5043L201.742 59.1948ZM194.743 65.8043C194.727 66.3705 194.845 66.9388 195.107 67.514C195.366 68.0853 195.711 68.5578 196.144 68.9174C196.576 69.2771 197.048 69.518 197.559 69.6402C198.07 69.7624 198.6 69.7881 199.146 69.7312C199.697 69.6712 200.234 69.5214 200.763 69.2825C201.293 69.0436 201.764 68.7376 202.176 68.3713C202.584 68.0012 202.913 67.5862 203.163 67.1262C203.412 66.6662 203.545 66.1531 203.561 65.587C203.576 65.0209 203.458 64.4526 203.196 63.8773C202.938 63.306 202.593 62.8335 202.16 62.4739C201.727 62.1142 201.255 61.8733 200.745 61.7511C200.234 61.6289 199.704 61.6032 199.157 61.6601C198.607 61.7201 198.07 61.8699 197.54 62.1088C197.01 62.3477 196.539 62.6537 196.128 63.02C195.72 63.3901 195.391 63.8052 195.141 64.2652C194.891 64.7252 194.759 65.2382 194.743 65.8043Z" fill="#A50000"/>
<path d="M207.643 75.6313C207.482 75.1214 207.234 74.5795 206.898 74.0058C206.561 73.4321 206.222 72.9992 205.874 72.6992L206.451 72.1027C207.295 72.8511 207.946 73.9465 208.398 75.3917C208.518 75.7697 208.598 76.1288 208.639 76.4619C208.68 76.7949 208.69 77.089 208.677 77.3449C208.663 77.6009 208.602 77.8439 208.504 78.0719C208.406 78.2998 208.305 78.4922 208.197 78.6519C208.09 78.8117 207.944 78.9703 207.749 79.123C207.554 79.2757 207.384 79.3961 207.238 79.4913C207.09 79.5826 206.895 79.6787 206.649 79.7829C206.404 79.8871 206.204 79.9616 206.054 80.0103C205.903 80.059 205.704 80.1265 205.459 80.199L199.721 81.9944L199.441 81.0995L201.553 80.4394C200.745 80.3799 200.046 80.1219 199.453 79.6615C198.86 79.2011 198.423 78.5235 198.14 77.6247C197.792 76.5132 197.778 75.5483 198.096 74.7332C198.413 73.918 199.06 73.3547 200.035 73.0501C200.494 72.9048 200.933 72.863 201.352 72.9247C201.772 72.9864 202.147 73.1203 202.474 73.3295C202.802 73.5387 203.114 73.8167 203.407 74.1663C203.7 74.516 203.954 74.8893 204.171 75.2861C204.383 75.686 204.585 76.1198 204.767 76.5936C204.95 77.0674 205.104 77.5131 205.227 77.9267C205.349 78.3404 205.457 78.7592 205.55 79.1904C205.766 79.1215 205.942 79.0653 206.068 79.0171C206.194 78.9689 206.357 78.9041 206.561 78.8196C206.762 78.7382 206.917 78.6478 207.033 78.5631C207.146 78.4746 207.273 78.3629 207.409 78.2313C207.545 78.0997 207.644 77.953 207.702 77.7872C207.761 77.6215 207.812 77.4372 207.851 77.2303C207.89 77.0233 207.891 76.7835 207.854 76.5108C207.816 76.2381 207.745 75.9473 207.647 75.6283L207.643 75.6313ZM200.325 73.9815C199.639 74.1978 199.163 74.6021 198.893 75.1972C198.623 75.7924 198.623 76.5227 198.895 77.392C199.078 77.9788 199.353 78.4745 199.718 78.8682C200.087 79.2659 200.49 79.5479 200.932 79.7111C201.375 79.8744 201.825 79.9681 202.282 79.9814C202.739 79.9947 203.177 79.9351 203.602 79.8034L204.845 79.415C204.76 78.9848 204.64 78.5433 204.481 78.0829C204.322 77.6224 204.151 77.1642 203.969 76.7151C203.787 76.2661 203.563 75.8506 203.299 75.4657C203.038 75.0846 202.764 74.7583 202.475 74.4869C202.19 74.2193 201.859 74.0379 201.487 73.9396C201.11 73.8443 200.731 73.8581 200.335 73.9793L200.325 73.9815Z" fill="#A50000"/>
<path d="M210.415 83.5228L211.866 91.1157L201.989 92.9998L201.811 92.082L210.909 90.3428L209.807 84.5848L204.812 85.5394C204.238 85.6494 203.716 85.7058 203.25 85.7125C202.783 85.7192 202.391 85.6926 202.092 85.6314C201.792 85.5703 201.519 85.4699 201.286 85.3251C201.053 85.1803 200.868 85.0484 200.751 84.9319C200.632 84.8115 200.53 84.658 200.441 84.4637C200.352 84.2693 200.297 84.1357 200.279 84.0558C200.26 83.9759 200.241 83.8713 200.222 83.7349C200.216 83.7024 200.211 83.6807 200.21 83.6629L200.986 83.514C201.07 83.9334 201.262 84.2426 201.566 84.4384C202.171 84.8331 203.197 84.8911 204.642 84.6155L210.42 83.5128L210.415 83.5228Z" fill="#A50000"/>
<path d="M212.337 94.8564L212.412 95.7863L208.665 96.078L208.931 99.4692C208.974 99.9896 208.943 100.455 208.84 100.862C208.738 101.27 208.592 101.605 208.403 101.853C208.217 102.106 207.983 102.321 207.708 102.492C207.436 102.667 207.163 102.793 206.897 102.87C206.63 102.946 206.352 102.994 206.05 103.017C205.754 103.041 205.469 103.038 205.204 103.013C204.935 102.983 204.651 102.91 204.349 102.789C204.046 102.667 203.781 102.497 203.553 102.279C203.326 102.061 203.126 101.758 202.962 101.364C202.798 100.97 202.689 100.501 202.649 99.9601L202.305 95.635L212.331 94.8486L212.337 94.8564ZM203.176 96.5137L203.442 99.905C203.568 101.487 204.415 102.214 205.978 102.091C207.542 101.967 208.266 101.117 208.14 99.5352L207.874 96.1439L203.176 96.5137Z" fill="#A50000"/>
<path d="M208.406 113.444L212.792 113.583L212.763 114.518L202.712 114.197L202.741 113.262L207.612 113.418L207.823 106.606L202.953 106.45L202.981 105.515L213.032 105.836L213.003 106.771L208.617 106.632L208.406 113.444Z" fill="#A50000"/>
<path d="M203.588 118.005C204.696 117.219 206.011 116.938 207.527 117.172C209.044 117.406 210.217 118.067 211.038 119.148C211.86 120.229 212.15 121.531 211.92 123.052C211.688 124.555 211.019 125.708 209.911 126.501C208.802 127.294 207.492 127.572 205.968 127.337C204.451 127.103 203.279 126.441 202.461 125.358C201.64 124.27 201.346 122.971 201.578 121.461C201.811 119.951 202.48 118.797 203.587 118.012L203.588 118.005ZM210.35 119.731C209.635 118.85 208.645 118.31 207.381 118.117C206.117 117.924 205.012 118.136 204.068 118.762C203.124 119.388 202.556 120.324 202.362 121.577C202.171 122.828 202.43 123.897 203.145 124.778C203.86 125.659 204.85 126.199 206.114 126.392C207.378 126.584 208.483 126.373 209.427 125.747C210.371 125.121 210.939 124.185 211.134 122.932C211.324 121.681 211.065 120.612 210.35 119.731Z" fill="#A50000"/>
<path d="M198.503 127.363L202.064 129.804L201.798 130.918L198.304 128.192L198.503 127.363Z" fill="#A50000"/>
<path d="M202.412 140.269C203.653 140.649 204.755 141.108 205.718 141.631C206.684 142.158 207.505 142.78 208.188 143.491C208.871 144.202 209.369 144.983 209.672 145.828C209.976 146.673 210.061 147.625 209.926 148.681C209.791 149.737 209.414 150.845 208.793 152.011L208.056 151.713C209.198 149.51 209.446 147.61 208.799 146.014C208.153 144.418 206.668 143.077 204.348 141.986C205.006 142.585 205.433 143.314 205.632 144.178C205.827 145.038 205.739 145.938 205.36 146.883C204.811 148.245 203.92 149.163 202.688 149.638C201.455 150.112 200.118 150.059 198.678 149.481C197.238 148.903 196.238 148.012 195.677 146.815C195.117 145.618 195.106 144.336 195.656 142.974C196.165 141.713 197.01 140.824 198.195 140.305C199.383 139.79 200.788 139.778 202.416 140.265L202.412 140.269ZM203.644 148.032C204.064 147.653 204.391 147.171 204.624 146.585C204.857 146 204.955 145.426 204.917 144.864C204.876 144.298 204.726 143.793 204.456 143.344C204.189 142.891 203.843 142.489 203.416 142.137C202.99 141.786 202.509 141.501 201.972 141.28C201.43 141.063 200.888 140.933 200.336 140.894C199.783 140.855 199.258 140.908 198.755 141.044C198.251 141.18 197.789 141.441 197.369 141.821C196.949 142.2 196.623 142.682 196.389 143.268C196.156 143.853 196.059 144.427 196.096 144.989C196.134 145.551 196.288 146.06 196.558 146.51C196.824 146.962 197.17 147.364 197.597 147.716C198.02 148.071 198.504 148.352 199.042 148.573C199.58 148.793 200.129 148.917 200.678 148.959C201.23 148.998 201.755 148.945 202.259 148.809C202.766 148.67 203.224 148.412 203.644 148.032Z" fill="#A50000"/>
<path d="M191.439 153.634C190.734 154.91 190.536 156.078 190.844 157.146L190.006 157.425C189.649 156.182 189.894 154.794 190.748 153.25C191.457 151.971 192.436 151.198 193.686 150.93C194.935 150.662 196.246 150.907 197.605 151.661C198.963 152.416 199.868 153.394 200.308 154.598C200.748 155.802 200.611 157.041 199.903 158.32C199.586 158.895 199.193 159.373 198.72 159.75C198.251 160.13 197.717 160.404 197.118 160.571C196.519 160.738 195.837 160.75 195.074 160.611C194.311 160.472 193.515 160.171 192.685 159.713L196.769 152.329C196.256 152.076 195.755 151.909 195.264 151.821C194.77 151.736 194.287 151.73 193.816 151.803C193.345 151.876 192.902 152.073 192.49 152.383C192.079 152.692 191.728 153.112 191.435 153.637L191.439 153.634ZM197.464 152.71L193.858 159.235C194.37 159.488 194.875 159.659 195.38 159.748C195.884 159.838 196.37 159.841 196.838 159.764C197.306 159.687 197.746 159.493 198.158 159.184C198.569 158.874 198.916 158.457 199.205 157.935C199.495 157.406 199.667 156.887 199.708 156.377C199.752 155.864 199.68 155.386 199.493 154.947C199.306 154.508 199.042 154.098 198.699 153.724C198.356 153.351 197.946 153.012 197.46 152.713L197.464 152.71Z" fill="#A50000"/>
<path d="M188.492 159.266L188.658 160.112C188.417 160.181 188.143 160.314 187.838 160.502C187.21 160.881 186.626 161.452 186.092 162.216C185.533 163.012 185.272 163.746 185.311 164.414C185.35 165.082 185.652 165.613 186.221 166.017C186.455 166.18 186.689 166.286 186.931 166.33C187.172 166.373 187.407 166.359 187.638 166.285C187.869 166.211 188.09 166.107 188.304 165.971C188.518 165.835 188.741 165.654 188.966 165.427C189.195 165.198 189.399 164.969 189.585 164.748C189.774 164.524 189.972 164.262 190.187 163.967L190.834 164.424C189.504 166.435 189.359 167.807 190.397 168.53C190.797 168.808 191.25 168.881 191.75 168.741C192.251 168.601 192.77 168.156 193.299 167.402C193.764 166.742 194.044 166.032 194.146 165.278C194.209 164.933 194.223 164.607 194.196 164.307L195.048 164.175C195.101 164.499 195.092 164.864 195.029 165.266C194.912 166.144 194.55 167.007 193.953 167.859C193.309 168.779 192.618 169.358 191.88 169.596C191.142 169.834 190.469 169.738 189.857 169.311C189.354 168.957 189.052 168.507 188.949 167.958C188.849 167.414 188.899 166.859 189.101 166.298C188.86 166.512 188.613 166.686 188.351 166.834C188.09 166.982 187.816 167.09 187.517 167.167C187.219 167.243 186.911 167.252 186.593 167.192C186.276 167.132 185.967 167.003 185.675 166.798C184.846 166.213 184.42 165.477 184.411 164.59C184.402 163.704 184.745 162.761 185.445 161.76C186.123 160.794 186.832 160.094 187.567 159.651C187.892 159.447 188.2 159.319 188.496 159.263L188.492 159.266Z" fill="#A50000"/>
<path d="M179.74 169.42L190.088 172.85L189.391 173.654L180.289 170.513L184.661 179.097L183.963 179.901L177.721 167.251C177.332 166.466 177.11 165.829 177.043 165.333C176.979 164.842 177.064 164.405 177.307 164.025C177.455 163.796 177.659 163.567 177.922 163.348C178.185 163.13 178.442 162.985 178.69 162.916L179.049 163.743C178.599 163.907 178.276 164.154 178.085 164.48C177.913 164.759 177.863 165.088 177.935 165.453C178.01 165.822 178.195 166.306 178.499 166.912L179.747 169.427L179.74 169.42Z" fill="#A50000"/>
<path d="M181.943 181.93L175.638 187.732L168.831 180.326L169.518 179.694L175.789 186.519L180.723 181.986L174.452 175.161L175.139 174.529L181.947 181.934L181.943 181.93Z" fill="#A50000"/>
<path d="M172.683 190.166L171.922 190.712L170.563 188.825C170.737 189.601 170.68 190.388 170.39 191.182C170.103 191.98 169.589 192.64 168.854 193.172C167.664 194.029 166.417 194.332 165.122 194.069C163.824 193.808 162.727 193.05 161.817 191.793C160.908 190.535 160.542 189.249 160.704 187.938C160.87 186.625 161.548 185.54 162.739 184.683C163.477 184.148 164.273 183.871 165.116 183.847C165.958 183.822 166.724 184.021 167.404 184.439L162.919 178.216L163.68 177.67L172.683 190.166ZM164.802 184.627C164.248 184.722 163.712 184.953 163.201 185.321C162.691 185.689 162.3 186.122 162.035 186.619C161.77 187.116 161.628 187.624 161.613 188.151C161.595 188.675 161.673 189.199 161.846 189.725C162.015 190.247 162.269 190.747 162.61 191.222C162.951 191.698 163.344 192.095 163.788 192.421C164.231 192.746 164.703 192.987 165.207 193.14C165.71 193.293 166.236 193.322 166.795 193.224C167.349 193.13 167.885 192.899 168.396 192.53C168.906 192.162 169.297 191.73 169.562 191.233C169.827 190.736 169.973 190.224 169.984 189.7C170.002 189.177 169.924 188.652 169.751 188.126C169.582 187.605 169.328 187.105 168.987 186.629C168.646 186.154 168.253 185.757 167.81 185.431C167.366 185.105 166.894 184.864 166.39 184.711C165.887 184.558 165.361 184.529 164.802 184.627Z" fill="#A50000"/>
<path d="M153.491 191.456C152.217 192.158 151.425 193.042 151.116 194.109L150.259 193.899C150.618 192.655 151.57 191.613 153.109 190.76C154.391 190.052 155.631 189.924 156.83 190.363C158.029 190.802 159.006 191.704 159.762 193.07C160.514 194.432 160.754 195.742 160.486 196.99C160.215 198.241 159.44 199.219 158.162 199.924C157.587 200.242 157 200.432 156.402 200.504C155.804 200.576 155.207 200.521 154.608 200.342C154.012 200.167 153.427 199.813 152.859 199.289C152.291 198.765 151.773 198.088 151.317 197.256L158.707 193.185C158.409 192.7 158.075 192.289 157.703 191.951C157.331 191.613 156.925 191.352 156.489 191.165C156.049 190.981 155.575 190.905 155.062 190.949C154.549 190.992 154.027 191.161 153.498 191.45L153.491 191.456ZM159.084 193.883L152.556 197.481C152.854 197.965 153.191 198.38 153.573 198.723C153.951 199.069 154.36 199.334 154.797 199.514C155.237 199.699 155.712 199.767 156.225 199.724C156.738 199.68 157.256 199.514 157.778 199.225C158.303 198.932 158.723 198.585 159.034 198.171C159.345 197.757 159.536 197.318 159.614 196.848C159.692 196.378 159.684 195.893 159.593 195.392C159.502 194.891 159.334 194.387 159.082 193.873L159.084 193.883Z" fill="#A50000"/>
<path d="M143.145 206.602L139.346 197.287L140.21 196.937L141.978 201.273C141.93 199.976 142.693 199.007 144.267 198.366C146.831 197.32 148.618 198.035 149.63 200.515L150.835 203.467L149.971 203.817L148.765 200.865C148.376 199.918 147.854 199.276 147.193 198.938C146.532 198.6 145.657 198.655 144.563 199.097C143.542 199.513 142.898 200.087 142.633 200.817C142.368 201.547 142.423 202.372 142.798 203.292L144.004 206.244L143.139 206.594L143.145 206.602Z" fill="#A50000"/>
<path d="M130.911 205.676L132.085 209.905L131.186 210.155L128.498 200.46L129.396 200.21L130.7 204.91L137.268 203.088L135.964 198.388L136.862 198.138L139.55 207.833L138.652 208.083L137.478 203.855L130.911 205.676Z" fill="#A50000"/>
<path d="M125.117 202.423C126.198 203.25 126.85 204.42 127.079 205.94C127.307 207.46 127.025 208.77 126.235 209.873C125.445 210.977 124.293 211.641 122.773 211.868C121.268 212.091 119.97 211.792 118.885 210.968C117.799 210.144 117.144 208.971 116.915 207.45C116.687 205.93 116.973 204.617 117.763 203.514C118.557 202.407 119.709 201.743 121.222 201.522C122.738 201.297 124.035 201.596 125.113 202.419L125.117 202.423ZM125.475 209.393C126.104 208.453 126.323 207.344 126.138 206.079C125.949 204.811 125.413 203.821 124.537 203.104C123.66 202.387 122.596 202.12 121.341 202.309C120.091 202.496 119.148 203.058 118.518 204.005C117.889 204.944 117.67 206.053 117.856 207.318C118.041 208.582 118.581 209.576 119.457 210.293C120.333 211.01 121.398 211.278 122.652 211.088C123.902 210.902 124.845 210.339 125.475 209.393Z" fill="#A50000"/>
<path d="M98.9965 212.614L99.3034 203.354L98.3685 203.325L98.4695 200.25L99.4043 200.279L99.3252 202.563L108.327 202.869L108.406 200.585L109.341 200.615L109.24 203.689L108.295 203.656C107.283 204.901 106.551 206.809 106.102 209.376C105.893 210.522 105.767 211.678 105.721 212.84L98.9896 212.613L98.9965 212.614ZM107.153 203.619L100.238 203.383L99.9532 211.852L104.858 212.018C104.887 211.542 104.946 210.999 105.028 210.381C105.113 209.767 105.236 209.041 105.407 208.215C105.574 207.385 105.809 206.56 106.107 205.728C106.408 204.901 106.755 204.195 107.146 203.618L107.153 203.619Z" fill="#A50000"/>
<path d="M94.3121 212.11L86.6723 210.933L88.1942 200.992L89.1186 201.137L87.7167 210.291L93.5107 211.183L94.2823 206.154C94.3731 205.58 94.488 205.068 94.6409 204.621C94.7939 204.174 94.9459 203.822 95.1017 203.555C95.2606 203.292 95.4461 203.072 95.6613 202.897C95.8765 202.722 96.0611 202.596 96.2111 202.523C96.3611 202.449 96.5464 202.405 96.757 202.384C96.9676 202.364 97.1162 202.361 97.1965 202.367C97.28 202.378 97.3834 202.397 97.5178 202.424C97.5525 202.428 97.5734 202.431 97.5873 202.433L97.4643 203.215C97.0418 203.149 96.6898 203.23 96.3983 203.452C95.8232 203.89 95.4262 204.837 95.2045 206.288L94.313 212.103L94.3121 212.11Z" fill="#A50000"/>
<path d="M78.266 198.435L79.1679 198.679L78.087 202.679L81.0694 203.483L84.9035 200.228L85.9936 200.52L82.1186 203.763C82.9556 203.988 83.5368 204.433 83.8659 205.094C84.1951 205.755 84.2457 206.502 84.0208 207.339C83.7959 208.176 83.3751 208.795 82.7616 209.2C82.148 209.605 81.4208 209.697 80.5838 209.471L75.6512 208.137L78.2669 198.428L78.266 198.435ZM76.7578 207.622L80.7886 208.713C81.3695 208.868 81.8583 208.794 82.255 208.489C82.6518 208.185 82.9341 207.718 83.1011 207.097C83.2682 206.475 83.2597 205.934 83.0724 205.47C82.8852 205.006 82.5031 204.695 81.9191 204.536L77.8884 203.445L76.7617 207.619L76.7578 207.622Z" fill="#A50000"/>
<path d="M67.1838 204.297L66.8564 205.019L59.0207 201.44L59.3481 200.718L62.8417 202.311L66.6854 193.881L67.5378 194.271L63.6941 202.701L67.1877 204.294L67.1838 204.297Z" fill="#A50000"/>
<path d="M56.7924 188.591L61.3824 191.327L56.2364 199.965L51.6464 197.229C50.7975 196.723 50.2875 196.128 50.1125 195.447C49.9413 194.763 50.0422 194.105 50.4221 193.474C50.6621 193.066 50.9884 192.76 51.3934 192.562C51.7984 192.364 52.2685 192.298 52.8061 192.374C52.4089 191.955 52.1916 191.477 52.1574 190.944C52.1233 190.411 52.2491 189.897 52.5409 189.41C52.7398 189.078 52.9677 188.799 53.2353 188.57C53.5029 188.342 53.8093 188.171 54.1616 188.059C54.5139 187.946 54.9148 187.928 55.3664 188.015C55.815 188.098 56.2957 188.294 56.8025 188.595L56.7924 188.591ZM60.176 191.529L56.3889 189.272C55.7376 188.882 55.1494 188.758 54.6221 188.887C54.0979 189.021 53.6761 189.358 53.3498 189.897C53.0351 190.426 52.938 190.937 53.0593 191.421C53.1805 191.905 53.5353 192.326 54.1173 192.675L58.0791 195.035L60.1691 191.528L60.176 191.529ZM57.6824 195.717L53.7177 193.353C53.241 193.066 52.7824 192.978 52.3358 193.083C51.8892 193.187 51.5259 193.478 51.2419 193.958C50.9501 194.445 50.875 194.919 51.0144 195.37C51.1538 195.821 51.501 196.216 52.0539 196.545L55.841 198.802L57.6794 195.713L57.6824 195.717Z" fill="#A50000"/>
<path d="M50.5886 186.068C50.7422 187.42 50.3505 188.702 49.4095 189.918C48.4684 191.133 47.3282 191.838 45.985 192.034C44.6418 192.23 43.3607 191.855 42.1448 190.914C40.9381 189.983 40.2549 188.838 40.1012 187.486C39.9445 186.13 40.3363 184.847 41.2773 183.632C42.2183 182.416 43.3585 181.712 44.7048 181.519C46.0511 181.327 47.3291 181.698 48.5419 182.636C49.7547 183.574 50.4349 184.715 50.5886 186.068ZM45.8097 191.152C46.924 190.952 47.876 190.345 48.658 189.336C49.4369 188.323 49.7856 187.251 49.6931 186.121C49.6046 184.988 49.0563 184.039 48.053 183.264C47.0497 182.489 45.9944 182.202 44.8732 182.401C43.7589 182.6 42.8069 183.208 42.0249 184.217C41.2429 185.226 40.8973 186.302 40.9867 187.428C41.0791 188.558 41.6235 189.509 42.6268 190.284C43.6301 191.059 44.6854 191.346 45.8066 191.148L45.8097 191.152Z" fill="#A50000"/>
<path d="M39.2377 175.544C38.2013 174.518 37.1304 174.01 36.018 174.019L35.9804 173.136C37.2722 173.131 38.5455 173.745 39.7994 174.984C40.8388 176.014 41.3201 177.166 41.2393 178.444C41.1586 179.722 40.5698 180.913 39.4758 182.022C38.3819 183.131 37.1979 183.731 35.9199 183.826C34.6419 183.921 33.4847 183.455 32.4453 182.425C31.9757 181.962 31.6241 181.457 31.3883 180.9C31.1486 180.345 31.0331 179.755 31.0307 179.134C31.0323 178.51 31.2035 177.853 31.5454 177.158C31.8872 176.462 32.3898 175.779 33.054 175.101L39.0586 181.04C39.438 180.617 39.7378 180.181 39.955 179.727C40.1722 179.274 40.309 178.814 40.3633 178.337C40.4175 177.861 40.3518 177.383 40.1663 176.906C39.9777 176.424 39.6689 175.974 39.2438 175.551L39.2377 175.544ZM38.5008 181.596L33.1986 176.353C32.8193 176.777 32.5186 177.22 32.2936 177.679C32.0686 178.139 31.934 178.609 31.8806 179.079C31.8302 179.553 31.8959 180.03 32.0814 180.508C32.27 180.989 32.5758 181.436 32.9978 181.854C33.426 182.28 33.8802 182.579 34.3626 182.761C34.845 182.943 35.3209 183.005 35.7971 182.947C36.2704 182.884 36.732 182.743 37.1899 182.516C37.6407 182.289 38.08 181.983 38.5008 181.596Z" fill="#A50000"/>
<path d="M27.0303 176.428L22.4137 170.767L23.0282 170.267L27.0548 175.206L34.2308 169.352L34.8238 170.077L27.0334 176.432L27.0303 176.428Z" fill="#A50000"/>
<path d="M27.3591 162.62C27.0575 163.945 26.2562 165.026 24.9662 165.86C23.6762 166.694 22.3646 166.979 21.0314 166.714C19.6982 166.45 18.6176 165.673 17.7826 164.382C16.9568 163.103 16.6913 161.8 16.9938 160.468C17.2955 159.143 18.0937 158.058 19.3837 157.224C20.6736 156.39 21.9852 156.105 23.3215 156.374C24.6547 156.638 25.7384 157.419 26.5673 158.702C27.3961 159.985 27.6608 161.295 27.3591 162.62ZM21.1571 165.823C22.2776 166.009 23.3708 165.75 24.4459 165.059C25.5179 164.364 26.2013 163.47 26.4929 162.373C26.7846 161.276 26.5872 160.197 25.8978 159.132C25.2083 158.068 24.3064 157.446 23.1859 157.26C22.0654 157.074 20.9721 157.333 19.8971 158.024C18.825 158.719 18.1417 159.613 17.85 160.71C17.5583 161.807 17.7557 162.886 18.4452 163.951C19.1346 165.016 20.0366 165.637 21.1571 165.823Z" fill="#A50000"/>
<path d="M5.32982 137.124L14.085 134.104L13.7828 133.221L16.691 132.22L16.9932 133.104L14.8324 133.846L17.7761 142.365L19.937 141.623L20.2391 142.507L17.3309 143.507L17.0226 142.616C15.4991 142.116 13.4532 142.114 10.8988 142.611C9.75805 142.825 8.63198 143.122 7.52834 143.495L5.33287 137.128L5.32982 137.124ZM16.6497 141.53L14.3941 134.989L6.38641 137.75L7.98719 142.387C8.44188 142.245 8.96693 142.104 9.57322 141.963C10.1795 141.821 10.8987 141.679 11.734 141.541C12.5661 141.399 13.4255 141.324 14.3059 141.308C15.1893 141.295 15.9676 141.365 16.6467 141.526L16.6497 141.53Z" fill="#A50000"/>
<path d="M12.6743 130.577C11.9166 131.706 10.7848 132.429 9.28258 132.743C7.7765 133.061 6.4535 132.857 5.30273 132.135C4.15196 131.413 3.42279 130.297 3.10436 128.791C2.79119 127.299 3.00994 125.989 3.77148 124.857C4.52605 123.725 5.65791 123.002 7.16399 122.684C8.67006 122.367 9.99613 122.574 11.143 123.299C12.2929 124.029 13.026 125.141 13.3422 126.637C13.6584 128.132 13.4358 129.446 12.6782 130.574L12.6743 130.577ZM5.73675 131.348C6.71495 131.923 7.82882 132.076 9.08143 131.812C10.334 131.548 11.2913 130.956 11.9564 130.038C12.6214 129.121 12.8193 128.041 12.5601 126.802C12.3009 125.564 11.6772 124.656 10.702 124.085C9.72382 123.511 8.60995 123.358 7.35734 123.621C6.10473 123.885 5.14744 124.478 4.4824 125.395C3.81736 126.313 3.61946 127.393 3.87867 128.631C4.13788 129.869 4.7616 130.778 5.73675 131.348Z" fill="#A50000"/>
<path d="M1.71436 119.47L1.0459 111.767L11.0636 110.906L11.1449 111.837L1.91834 112.632L2.42427 118.473L7.49739 118.036C8.07492 117.986 8.60095 117.983 9.07239 118.023C9.54384 118.063 9.92374 118.13 10.216 118.222C10.5082 118.314 10.7646 118.441 10.9911 118.61C11.2106 118.777 11.3762 118.925 11.484 119.054C11.5918 119.184 11.6776 119.349 11.7483 119.552C11.819 119.755 11.8547 119.897 11.8663 119.976C11.8779 120.055 11.8822 120.165 11.887 120.299C11.8898 120.335 11.8942 120.357 11.8925 120.371L11.1044 120.44C11.0676 120.016 10.9061 119.689 10.6229 119.464C10.0604 119.011 9.05029 118.846 7.58171 118.971L1.72435 119.474L1.71436 119.47Z" fill="#A50000"/>
<path d="M0.971797 108.011L1.11929 100.708L1.91122 100.724L1.78148 107.094L11.0431 107.291L11.0214 108.226L0.967896 108.015L0.971797 108.011Z" fill="#A50000"/>
<path d="M10.1729 97.7009C9.0796 98.5132 7.77632 98.8167 6.2522 98.6134C4.72809 98.4102 3.5455 97.7757 2.70445 96.7101C1.86339 95.6445 1.54053 94.3491 1.74285 92.8249C1.94348 91.3146 2.5885 90.1548 3.67874 89.3385C4.76898 88.5222 6.07921 88.2196 7.60333 88.4229C9.12744 88.6261 10.31 89.2606 11.1541 90.3301C11.9943 91.4027 12.318 92.6911 12.1166 94.2083C11.9151 95.7256 11.2692 96.8924 10.1798 97.7017L10.1729 97.7009ZM3.37634 96.1145C4.11109 96.9802 5.1069 97.4966 6.37765 97.6655C7.64839 97.8344 8.74601 97.5976 9.68139 96.953C10.6168 96.3084 11.1623 95.3587 11.3287 94.1018C11.4951 92.8448 11.2109 91.7835 10.4792 90.9218C9.74443 90.0561 8.74864 89.5397 7.47789 89.3708C6.20715 89.2019 5.1095 89.4387 4.17412 90.0833C3.24264 90.7249 2.69329 91.6776 2.52688 92.9345C2.36048 94.1915 2.64465 95.2528 3.37634 96.1145Z" fill="#A50000"/>
<path d="M3.53376 83.5735L5.46368 76.089L15.1988 78.6083L14.9655 79.5148L5.99648 77.1947L4.5332 82.8661L9.46249 84.1404C10.0273 84.2832 10.5214 84.4563 10.9526 84.6535C11.3807 84.8468 11.7177 85.036 11.9672 85.2181C12.2168 85.4002 12.4135 85.6112 12.569 85.8418C12.7206 86.0755 12.8278 86.2684 12.8827 86.4268C12.9376 86.5852 12.9682 86.7689 12.9669 86.984C12.9625 87.1951 12.9517 87.342 12.9385 87.4215C12.9184 87.5002 12.8949 87.6068 12.8511 87.7355L12.8358 87.8042L12.0696 87.605C12.1758 87.1946 12.1314 86.8328 11.9396 86.5237C11.5589 85.9093 10.6588 85.4186 9.23612 85.0478L3.54071 83.5744L3.53376 83.5735Z" fill="#A50000"/>
<path d="M17.0102 71.8713C17.5381 70.5138 17.5723 69.3289 17.1245 68.3077L17.9197 67.9176C18.4432 69.0998 18.3851 70.5111 17.7484 72.1553C17.2197 73.5198 16.3561 74.4166 15.1498 74.8518C13.9473 75.284 12.6214 75.2213 11.1689 74.6598C9.71638 74.0984 8.6937 73.2505 8.0939 72.1155C7.49714 70.9844 7.46159 69.7346 7.99029 68.3701C8.22688 67.7568 8.55155 67.2318 8.9643 66.7952C9.37704 66.3586 9.86701 66.0125 10.4403 65.7648C11.0136 65.5171 11.6861 65.412 12.4577 65.4495C13.2331 65.484 14.0605 65.673 14.9466 66.0173L11.8974 73.8877C12.4363 74.0697 12.9605 74.1689 13.4593 74.1873C13.958 74.2057 14.4412 74.1481 14.8959 74.0059C15.3537 73.8676 15.7654 73.6143 16.1302 73.253C16.495 72.8917 16.7873 72.4298 17.0041 71.8635L17.0102 71.8713ZM11.1662 73.6046L13.8574 66.6502C13.3185 66.4682 12.7904 66.3721 12.2817 66.349C11.769 66.3289 11.2888 66.3903 10.835 66.5256C10.3803 66.6678 9.9725 66.918 9.60769 67.2793C9.24287 67.6406 8.95054 68.1025 8.73849 68.6588C8.51865 69.2212 8.42513 69.7602 8.45096 70.275C8.47679 70.7897 8.61145 71.2506 8.85799 71.6617C9.10452 72.0728 9.41953 72.4428 9.81082 72.7656C10.2021 73.0885 10.6549 73.3694 11.174 73.5985L11.1662 73.6046Z" fill="#A50000"/>
<path d="M11.7468 61.909L11.0435 61.5411L15.027 53.9079L15.7303 54.2758L13.9562 57.6797L22.1716 61.9685L21.7394 62.7979L13.524 58.5091L11.7499 61.9129L11.7468 61.909Z" fill="#A50000"/>
<path d="M21.3565 44.179L29.7042 49.7929L29.1836 50.5657L22.007 45.7401L25.5393 55.9821L24.9889 56.7971L16.6413 51.1832L17.1618 50.4104L24.3385 55.236L20.8023 44.9971L21.3573 44.1721L21.3565 44.179Z" fill="#A50000"/>
<path d="M36.2412 41.9027L35.6362 42.6158L32.476 39.9306L30.4764 42.2838L31.7895 47.1397L31.0609 48L29.7728 43.1119C29.2132 43.7705 28.5616 44.111 27.8297 44.1242C27.094 44.1404 26.3936 43.8646 25.7347 43.3045C25.0758 42.7445 24.6885 42.0975 24.5828 41.3684C24.4771 40.6393 24.706 39.9439 25.2656 39.2853L28.5739 35.3909L36.2412 41.9027ZM28.5772 36.6156L25.8739 39.7969C25.4834 40.2538 25.3449 40.7274 25.4545 41.2205C25.5649 41.7068 25.8629 42.1594 26.3553 42.5792C26.8447 42.9952 27.3398 43.2178 27.8407 43.247C28.3417 43.2763 28.7839 43.062 29.1744 42.605L31.8777 39.4238L28.5802 36.6195L28.5772 36.6156Z" fill="#A50000"/>
<path d="M48.0165 26.4658C48.0165 27.9509 46.8126 29.1549 45.3274 29.1549C43.8423 29.1549 42.6383 27.9509 42.6383 26.4658C42.6383 24.9807 43.8423 23.7767 45.3274 23.7767C46.8126 23.7767 48.0165 24.9807 48.0165 26.4658Z" fill="#A50000"/>
</svg>
