<svg width="217" height="222" viewBox="0 0 217 222" fill="none" xmlns="http://www.w3.org/2000/svg">
<g clip-path="url(#clip0_424_3763)">
<path d="M96.5894 127.453C96.5894 127.545 96.5805 127.601 96.5619 127.619C96.506 127.858 96.3488 127.978 96.0896 127.978H93.674C93.4148 127.978 93.2577 127.859 93.2018 127.619C93.1831 127.601 93.1742 127.546 93.1742 127.453V99.3315C93.1742 98.7977 92.9896 98.3494 92.6185 97.9912C92.2483 97.6321 91.8044 97.453 91.286 97.453C90.7675 97.453 90.3237 97.6321 89.9535 97.9912C89.5833 98.3503 89.3986 98.7986 89.3986 99.3315V127.453C89.3986 127.784 89.2317 127.95 88.8988 127.95H86.3723L86.3448 127.923C86.1415 127.849 86.0305 127.739 86.0119 127.592C85.9932 127.573 85.9843 127.527 85.9843 127.454V99.3041C85.9843 98.7703 85.797 98.3221 85.4242 97.9638C85.0513 97.6047 84.6048 97.4256 84.0819 97.4256C83.559 97.4256 83.0894 97.6047 82.7263 97.9638C82.3632 98.323 82.1803 98.7712 82.1803 99.3041V127.426C82.1803 127.757 82.0072 127.923 81.6574 127.923H79.288C79.0315 127.923 78.8734 127.804 78.8202 127.564C78.7829 127.453 78.7651 127.407 78.7651 127.426V99.3288C78.7651 98.7588 78.8486 98.2162 79.0146 97.7009C79.1815 97.1856 79.4176 96.7162 79.723 96.2935C80.0284 95.8709 80.3942 95.4932 80.8194 95.1623C81.2455 94.8315 81.708 94.5738 82.2078 94.3894C82.8186 94.1503 83.448 94.0303 84.0961 94.0303C84.429 94.0303 84.753 94.062 85.0673 94.1273C85.3824 94.1917 85.6967 94.2791 86.011 94.3894C86.6777 94.647 87.2414 95.0053 87.7048 95.4659C88.2605 94.9506 88.8243 94.6012 89.3986 94.4176C90.0094 94.1785 90.6388 94.0585 91.2869 94.0585C91.6198 94.0585 91.9438 94.0912 92.259 94.1556C92.5732 94.22 92.8884 94.3073 93.2026 94.4176C94.2023 94.8041 95.0163 95.4341 95.6457 96.3076C96.2752 97.1812 96.5894 98.1977 96.5894 99.3571V127.453Z" fill="#A52F2F"/>
<path d="M61.3253 105.594C61.3253 107.045 60.838 108.273 59.8641 109.278C60.838 110.282 61.3253 111.5 61.3253 112.934V122.573C61.3253 123.756 60.996 124.796 60.3382 125.692C59.6803 126.589 58.837 127.234 57.8089 127.628C57.358 127.807 56.8173 127.924 56.1861 127.977H50.9093C50.5844 127.941 50.4229 127.762 50.4229 127.439V94.9992C50.4229 94.6762 50.5853 94.4971 50.9093 94.4609H56.1844C56.4729 94.4786 56.7525 94.5192 57.0233 94.5818C57.2941 94.6445 57.5551 94.7204 57.8081 94.8104C58.8361 95.2048 59.6794 95.8498 60.3373 96.7463C60.996 97.6427 61.3244 98.6822 61.3244 99.8654V105.593L61.3253 105.594ZM53.9401 107.53H55.8612C56.4027 107.53 56.8617 107.342 57.2408 106.965C57.6199 106.588 57.8089 106.131 57.8089 105.594V99.8663C57.8089 99.3466 57.6199 98.8983 57.2408 98.5216C56.8617 98.1448 56.4019 97.9569 55.8612 97.9569H53.9401V107.53ZM57.8089 112.934C57.8089 112.414 57.6199 111.966 57.2408 111.589C56.8617 111.213 56.4019 111.025 55.8612 111.025H53.9401V124.481H55.8612C56.4027 124.481 56.8617 124.294 57.2408 123.917C57.6199 123.54 57.8089 123.092 57.8089 122.572V112.933V112.934Z" fill="#A52F2F"/>
<path d="M70.4692 93.9775C71.2265 93.9775 71.9349 94.1205 72.5927 94.4081C73.2514 94.6949 73.8285 95.0805 74.3238 95.564C74.8201 96.0484 75.2125 96.622 75.501 97.2846C75.7895 97.9482 75.9342 98.6558 75.9342 99.4085V127.494C75.8978 127.817 75.7176 127.978 75.3936 127.978H72.9318C72.788 127.978 72.6655 127.924 72.567 127.816C72.4675 127.708 72.4178 127.583 72.4178 127.439V120.624H68.549V127.439C68.549 127.583 68.4949 127.708 68.3866 127.816C68.2782 127.924 68.1522 127.978 68.0075 127.978H65.5457C65.401 127.978 65.2794 127.924 65.1809 127.816C65.0815 127.708 65.0317 127.583 65.0317 127.439V99.4094C65.0317 98.6567 65.1756 97.9482 65.465 97.2855C65.7535 96.622 66.1414 96.0484 66.6279 95.5649C67.1144 95.0814 67.687 94.6958 68.3457 94.409C69.0035 94.1222 69.712 93.9784 70.4692 93.9784M72.4169 99.4102C72.4169 98.8729 72.2279 98.4158 71.8488 98.039C71.4697 97.6623 71.0099 97.4743 70.4692 97.4743C69.9286 97.4743 69.4954 97.6623 69.1163 98.039C68.7372 98.4158 68.5481 98.8729 68.5481 99.4102V117.13H72.4169V99.4094V99.4102Z" fill="#A52F2F"/>
<path d="M111.508 105.594C111.508 107.045 111.021 108.273 110.047 109.278C111.021 110.282 111.508 111.5 111.508 112.934V122.573C111.508 123.756 111.179 124.796 110.521 125.692C109.862 126.589 109.02 127.234 107.992 127.628C107.541 127.807 107 127.924 106.369 127.977H101.094C100.769 127.941 100.607 127.762 100.607 127.439V94.9992C100.607 94.6762 100.77 94.4971 101.094 94.4609H106.369C106.657 94.4786 106.937 94.5192 107.208 94.5818C107.479 94.6445 107.74 94.7204 107.993 94.8104C109.021 95.2048 109.864 95.8498 110.522 96.7463C111.18 97.6427 111.509 98.6822 111.509 99.8654V105.593L111.508 105.594ZM104.123 107.53H106.044C106.586 107.53 107.045 107.342 107.424 106.965C107.803 106.588 107.992 106.131 107.992 105.594V99.8663C107.992 99.3466 107.803 98.8983 107.424 98.5216C107.045 98.1448 106.585 97.9569 106.044 97.9569H104.123V107.53ZM107.992 112.934C107.992 112.414 107.803 111.966 107.424 111.589C107.045 111.213 106.585 111.025 106.044 111.025H104.123V124.481H106.044C106.586 124.481 107.045 124.294 107.424 123.917C107.803 123.54 107.992 123.092 107.992 122.572V112.933V112.934Z" fill="#A52F2F"/>
<path d="M126.063 94.4619V122.573C126.063 123.2 125.955 123.801 125.738 124.375C125.521 124.948 125.233 125.468 124.872 125.935C124.367 126.562 123.749 127.06 123.02 127.427C122.289 127.795 121.491 127.978 120.625 127.978C119.76 127.978 118.957 127.795 118.218 127.427C117.478 127.06 116.856 126.562 116.351 125.935C115.99 125.469 115.702 124.949 115.485 124.375C115.269 123.801 115.16 123.2 115.16 122.573V94.4619H118.678V122.573C118.678 123.093 118.867 123.541 119.246 123.918C119.625 124.295 120.085 124.482 120.625 124.482C121.166 124.482 121.599 124.295 121.978 123.918C122.357 123.541 122.547 123.093 122.547 122.573V94.4619H126.064H126.063Z" fill="#A52F2F"/>
<path d="M136.528 99.4631C136.528 98.9434 136.339 98.4951 135.96 98.1183C135.58 97.7416 135.129 97.5536 134.607 97.5536C134.084 97.5536 133.606 97.7416 133.227 98.1183C132.848 98.4951 132.659 98.9434 132.659 99.4631V122.519C132.659 123.057 132.848 123.514 133.227 123.89C133.606 124.267 134.066 124.455 134.607 124.455C135.147 124.455 135.58 124.267 135.96 123.89C136.339 123.514 136.528 123.056 136.528 122.519V116.63C136.528 116.29 136.699 116.119 137.042 116.119H139.503C139.647 116.119 139.77 116.164 139.868 116.253C139.968 116.344 140.026 116.451 140.044 116.576V122.519C140.044 123.272 139.9 123.976 139.611 124.63C139.322 125.284 138.93 125.858 138.434 126.35C137.937 126.844 137.36 127.234 136.703 127.52C136.044 127.807 135.345 127.951 134.606 127.951C133.866 127.951 133.136 127.808 132.469 127.52C131.801 127.234 131.224 126.844 130.738 126.35C130.251 125.857 129.863 125.284 129.575 124.63C129.286 123.975 129.142 123.272 129.142 122.519V99.4631C129.142 98.7104 129.285 98.0063 129.575 97.3525C129.863 96.6986 130.251 96.1242 130.738 95.6319C131.224 95.1386 131.801 94.7486 132.469 94.4618C133.136 94.1751 133.848 94.0312 134.606 94.0312C135.363 94.0312 136.044 94.1751 136.703 94.4618C137.361 94.7486 137.938 95.1386 138.434 95.6319C138.93 96.1251 139.322 96.6986 139.611 97.3525C139.899 98.0072 140.044 98.7104 140.044 99.4631V103.201C140.026 103.326 139.968 103.434 139.868 103.524C139.769 103.614 139.647 103.658 139.503 103.658H137.042C136.699 103.658 136.528 103.488 136.528 103.147V99.4631Z" fill="#A52F2F"/>
<path d="M154.41 127.52C154.392 127.646 154.333 127.753 154.234 127.843C154.135 127.933 154.013 127.977 153.869 127.977H151.407C151.065 127.977 150.893 127.807 150.893 127.467V120.57H147.025V127.467C147.025 127.61 146.97 127.731 146.862 127.829C146.754 127.928 146.628 127.977 146.483 127.977H144.021C143.679 127.977 143.507 127.807 143.507 127.467V94.9728C143.507 94.6322 143.679 94.4619 144.021 94.4619H146.483C146.627 94.4619 146.754 94.5113 146.862 94.6093C146.97 94.7081 147.025 94.829 147.025 94.9719V117.074H150.893V94.9728C150.893 94.6322 151.065 94.4619 151.407 94.4619H153.869C154.194 94.4619 154.374 94.6146 154.411 94.919V127.52H154.41Z" fill="#A52F2F"/>
<path d="M162.959 93.9775C163.716 93.9775 164.424 94.1205 165.082 94.4081C165.741 94.6949 166.318 95.0805 166.813 95.564C167.31 96.0484 167.702 96.622 167.991 97.2846C168.279 97.9482 168.424 98.6558 168.424 99.4085V127.494C168.387 127.817 168.207 127.978 167.883 127.978H165.421C165.278 127.978 165.155 127.924 165.057 127.816C164.957 127.708 164.907 127.583 164.907 127.439V120.624H161.039V127.439C161.039 127.583 160.984 127.708 160.876 127.816C160.768 127.924 160.642 127.978 160.497 127.978H158.035C157.892 127.978 157.769 127.924 157.67 127.816C157.571 127.708 157.522 127.583 157.522 127.439V99.4094C157.522 98.6567 157.666 97.9482 157.955 97.2855C158.244 96.622 158.632 96.0484 159.118 95.5649C159.605 95.0814 160.178 94.6958 160.836 94.409C161.495 94.1222 162.202 93.9784 162.96 93.9784M164.907 99.4102C164.907 98.8729 164.718 98.4158 164.339 98.039C163.96 97.6623 163.5 97.4743 162.96 97.4743C162.419 97.4743 161.986 97.6623 161.607 98.039C161.228 98.4158 161.039 98.8729 161.039 99.4102V117.13H164.907V99.4094V99.4102Z" fill="#A52F2F"/>
</g>
<g clip-path="url(#clip1_424_3763)">
<path d="M52.4394 34.6823L51.424 35.3122L41.9919 20.1612L48.2527 16.2713C49.6338 15.4106 50.9957 15.1125 52.3287 15.3769C53.6665 15.6414 54.7685 16.4684 55.6396 17.8628C56.5058 19.2572 56.7656 20.6132 56.4095 21.9259C56.0534 23.2385 55.1872 24.3252 53.8061 25.1859L48.5607 28.4459L52.4442 34.6775L52.4394 34.6823ZM48.8302 17.1993L43.5848 20.4593L47.9784 27.5179L53.2238 24.2579C54.3354 23.5655 55.014 22.7096 55.2498 21.6951C55.4856 20.6805 55.2642 19.6227 54.5809 18.5216C53.8975 17.4205 53.0457 16.7569 52.0304 16.5165C51.0102 16.2809 49.9466 16.5069 48.835 17.1993H48.8302Z" fill="#A52F2F" fill-opacity="0.8"/>
<path d="M69.0852 24.7821C70.7262 24.0849 71.8041 23.104 72.3142 21.8394L73.3344 22.2048C72.7425 23.6762 71.4528 24.8302 69.4654 25.6764C67.8147 26.3784 66.2844 26.3881 64.8744 25.7053C63.4644 25.0225 62.3865 23.8012 61.6358 22.0461C60.8899 20.2911 60.7551 18.6659 61.2364 17.1753C61.7176 15.6847 62.7859 14.5884 64.4365 13.8864C65.1776 13.5691 65.9187 13.4056 66.655 13.396C67.3913 13.3864 68.1179 13.521 68.8205 13.8143C69.5279 14.1028 70.1968 14.6029 70.8272 15.3145C71.4576 16.0261 72.0014 16.9109 72.4586 17.9831L62.9351 22.0365C63.2383 22.6664 63.5944 23.205 64.0082 23.6617C64.4221 24.1185 64.8841 24.4888 65.3942 24.7677C65.9091 25.0513 66.4769 25.1956 67.1122 25.2052C67.7426 25.2148 68.4018 25.0754 69.0804 24.7869L69.0852 24.7821ZM62.5645 21.1326L70.9764 17.5552C70.6732 16.9253 70.3123 16.382 69.8888 15.9155C69.4702 15.4491 69.0034 15.0789 68.4933 14.8C67.9832 14.5211 67.4105 14.3769 66.7801 14.3673C66.1497 14.3577 65.4952 14.4923 64.8263 14.7808C64.1478 15.0693 63.5896 15.4443 63.1613 15.9107C62.733 16.3723 62.4394 16.8868 62.2902 17.4494C62.1411 18.0168 62.0881 18.6082 62.1363 19.2285C62.1844 19.8487 62.3287 20.4834 62.5742 21.1374L62.5645 21.1326Z" fill="#A52F2F" fill-opacity="0.8"/>
<path d="M81.3564 8.72229L81.0677 9.708C80.4373 9.62145 79.7828 9.66953 79.1043 9.86186C77.7713 10.2417 76.9051 10.9293 76.5153 11.9342C76.1207 12.9392 76.1399 14.1845 76.5634 15.6799L78.3921 22.1183L77.2901 22.4308L73.9263 10.5783L75.0283 10.2658L75.6924 12.5978C75.7116 11.7467 76.0004 10.9918 76.5634 10.3283C77.1264 9.66472 77.8868 9.19832 78.8444 8.92424C79.7636 8.66459 80.6009 8.59247 81.3612 8.71748L81.3564 8.72229Z" fill="#A52F2F" fill-opacity="0.8"/>
<path d="M87.7039 7.2652L91.5441 6.60646L91.7078 7.56332L87.8676 8.22206L89.7877 19.4062L88.6568 19.5985L86.7367 8.41439L84.1092 8.86637L83.9456 7.90952L86.5731 7.45753L86.395 6.41413C86.2939 5.8179 86.2169 5.30341 86.1688 4.87547C86.1207 4.44753 86.0918 4.01478 86.087 3.58203C86.0774 3.14928 86.1111 2.78385 86.1833 2.48573C86.2554 2.18762 86.3661 1.89912 86.5153 1.62024C86.6645 1.34135 86.8666 1.11055 87.1217 0.92303C87.3767 0.735506 87.6847 0.572023 88.0552 0.427774C88.421 0.283524 88.8493 0.172933 89.3401 0.0863833C90.062 -0.038633 90.7212 -0.0338247 91.3276 0.100808L91.1447 1.02881C90.625 0.942264 90.0764 0.947072 89.5037 1.04324C89.1621 1.10094 88.8589 1.17787 88.5942 1.26923C88.3344 1.36059 88.113 1.4856 87.9446 1.64428C87.7761 1.80295 87.6318 1.95201 87.5163 2.08664C87.4008 2.22128 87.319 2.42323 87.2805 2.68768C87.2372 2.95695 87.2083 3.17813 87.189 3.36085C87.1698 3.53875 87.1794 3.81283 87.2227 4.18307C87.266 4.5485 87.3045 4.84662 87.3382 5.07261C87.3719 5.2986 87.4296 5.6448 87.5115 6.1112C87.5115 6.12563 87.5163 6.14005 87.5163 6.14967C87.5163 6.15929 87.5163 6.1689 87.5211 6.18814C87.5211 6.20256 87.5211 6.21699 87.5259 6.2266L87.7039 7.27001V7.2652Z" fill="#A52F2F" fill-opacity="0.8"/>
<path d="M101.438 17.3913C103.223 17.3048 104.571 16.7615 105.485 15.7517L106.318 16.4489C105.249 17.6221 103.642 18.2568 101.486 18.3626C99.696 18.4492 98.2572 17.9251 97.1744 16.7951C96.0916 15.6652 95.5045 14.1457 95.4131 12.2368C95.3217 10.3327 95.7644 8.76522 96.7365 7.53429C97.7086 6.30336 99.0897 5.64943 100.88 5.56288C101.684 5.52441 102.434 5.6302 103.132 5.87542C103.83 6.12065 104.46 6.5005 105.018 7.0198C105.581 7.5391 106.034 8.2363 106.38 9.12103C106.727 10.0058 106.924 11.0299 106.982 12.1887L96.645 12.6792C96.7124 13.3716 96.8568 14.0063 97.083 14.5785C97.3091 15.1507 97.6123 15.6555 97.9973 16.0979C98.3823 16.5403 98.8635 16.8769 99.4554 17.1077C100.043 17.3385 100.707 17.4346 101.448 17.401L101.438 17.3913ZM96.5921 11.7031L105.721 11.2704C105.654 10.578 105.504 9.93845 105.273 9.35664C105.042 8.77484 104.734 8.26516 104.354 7.82279C103.974 7.38523 103.488 7.04865 102.896 6.82266C102.309 6.59186 101.65 6.49569 100.918 6.52935C100.182 6.56301 99.5276 6.72649 98.9646 7.01018C98.4015 7.29387 97.9492 7.67373 97.6123 8.15456C97.2755 8.63059 97.0204 9.16912 96.8472 9.76535C96.6739 10.3616 96.5921 11.0107 96.5921 11.7079V11.7031Z" fill="#A52F2F" fill-opacity="0.8"/>
<path d="M111.265 16.5502C110.22 15.2519 109.783 13.6652 109.956 11.7899C110.129 9.91468 110.856 8.43852 112.126 7.35665C113.397 6.27478 114.965 5.8228 116.823 5.9959C117.766 6.08245 118.579 6.26036 119.268 6.52481C119.956 6.78927 120.576 7.18355 121.125 7.70766L120.418 8.44333C119.479 7.59707 118.247 7.10662 116.727 6.96237C115.182 6.81812 113.897 7.21721 112.867 8.15483C111.842 9.09246 111.255 10.3426 111.111 11.9005C110.966 13.4632 111.308 14.7999 112.145 15.9106C112.978 17.0214 114.171 17.6465 115.716 17.7907C117.237 17.9301 118.536 17.6753 119.614 17.0166L120.172 17.8676C119.532 18.2811 118.849 18.5552 118.127 18.6899C117.405 18.8245 116.568 18.8437 115.625 18.7572C113.757 18.5841 112.299 17.8484 111.255 16.5502H111.265Z" fill="#A52F2F" fill-opacity="0.8"/>
<path d="M124.191 8.17859L124.398 7.23135L127.001 7.79393L127.785 4.16846L128.907 4.40887L128.122 8.03434L131.934 8.85657L131.727 9.8038L127.915 8.98158L126.674 14.7083C126.659 14.7804 126.635 14.8958 126.602 15.0497C126.51 15.4776 126.443 15.7998 126.399 16.0162C126.356 16.2325 126.313 16.521 126.26 16.8913C126.212 17.2567 126.193 17.5452 126.207 17.7471C126.221 17.9491 126.26 18.1895 126.318 18.4588C126.375 18.7328 126.476 18.9444 126.616 19.1031C126.756 19.2618 126.943 19.4108 127.174 19.5551C127.405 19.6993 127.689 19.8051 128.021 19.8772C128.445 19.9686 128.96 19.9974 129.571 19.959L129.653 20.9303C129.027 20.988 128.416 20.9543 127.814 20.8245C127.376 20.7283 126.996 20.6033 126.679 20.4446C126.361 20.2859 126.096 20.108 125.885 19.9061C125.673 19.7041 125.509 19.4541 125.389 19.1608C125.269 18.8675 125.187 18.5694 125.143 18.2616C125.1 17.9539 125.091 17.5885 125.119 17.1701C125.148 16.747 125.196 16.3287 125.264 15.9152C125.331 15.5017 125.427 15.0208 125.548 14.4679L126.789 8.74117L124.186 8.17859H124.191Z" fill="#A52F2F" fill-opacity="0.8"/>
<path d="M146.12 13.6072L149.72 15.0977L149.349 15.9921L145.75 14.5015L141.399 24.9836L140.341 24.5461L144.691 14.064L142.227 13.0446L142.598 12.1502L145.061 13.1696L145.466 12.1935C145.697 11.6358 145.908 11.1597 146.096 10.7703C146.284 10.3808 146.491 10.0009 146.717 9.6355C146.943 9.26526 147.164 8.97676 147.386 8.76039C147.607 8.54401 147.853 8.3613 148.127 8.20743C148.401 8.05356 148.699 7.96221 149.012 7.94297C149.325 7.92374 149.676 7.94297 150.066 8.01991C150.451 8.09684 150.875 8.22666 151.337 8.419C152.01 8.69788 152.569 9.05369 153.006 9.49125L152.357 10.1788C151.962 9.82783 151.5 9.53933 150.961 9.31815C150.639 9.18352 150.34 9.08735 150.071 9.02484C149.802 8.96234 149.551 8.95272 149.32 8.99599C149.089 9.03927 148.892 9.08735 148.724 9.14024C148.555 9.19313 148.382 9.31815 148.199 9.52491C148.021 9.73167 147.877 9.90477 147.761 10.0442C147.65 10.1836 147.511 10.4241 147.352 10.7558C147.193 11.0876 147.063 11.3617 146.972 11.5684C146.88 11.78 146.746 12.1022 146.563 12.5349C146.558 12.5493 146.553 12.5638 146.548 12.5686L146.534 12.6022C146.534 12.6022 146.524 12.6311 146.52 12.6359L146.115 13.612L146.12 13.6072Z" fill="#A52F2F" fill-opacity="0.8"/>
<path d="M149.209 26.7679C148.8 25.1523 149.065 23.5319 150.003 21.8971C150.942 20.2671 152.212 19.2188 153.815 18.7621C155.417 18.3053 157.034 18.5457 158.666 19.4833C160.283 20.4161 161.303 21.6903 161.717 23.3059C162.13 24.9215 161.866 26.5467 160.927 28.1767C159.989 29.8068 158.714 30.855 157.111 31.307C155.509 31.7589 153.892 31.5233 152.265 30.5857C150.639 29.6481 149.623 28.3739 149.209 26.7583V26.7679ZM154.176 19.8055C152.852 20.2334 151.798 21.1229 151.014 22.4837C150.23 23.8444 149.989 25.2004 150.283 26.5563C150.576 27.9123 151.399 28.9797 152.746 29.7539C154.089 30.528 155.427 30.7011 156.75 30.278C158.074 29.85 159.128 28.9605 159.912 27.5997C160.696 26.239 160.937 24.883 160.643 23.5271C160.35 22.1712 159.527 21.1037 158.18 20.3296C156.832 19.5554 155.499 19.3823 154.176 19.8055Z" fill="#A52F2F" fill-opacity="0.8"/>
<path d="M173.401 30.2394L172.434 30.5952C172.13 30.0374 171.697 29.5422 171.134 29.1142C170.032 28.2728 168.964 27.9939 167.925 28.2776C166.885 28.5613 165.894 29.321 164.946 30.5519L160.87 35.8651L159.96 35.1679L167.463 25.3926L168.372 26.0898L166.895 28.0131C167.588 27.5179 168.367 27.3015 169.238 27.3544C170.109 27.4073 170.937 27.739 171.726 28.3449C172.482 28.9267 173.04 29.5566 173.396 30.2394H173.401Z" fill="#A52F2F" fill-opacity="0.8"/>
<path d="M180.133 54.483L179.383 53.6175L181.539 51.7519C180.605 52.0548 179.638 52.0741 178.637 51.8096C177.636 51.5451 176.77 50.9922 176.038 50.1459C174.854 48.7852 174.354 47.2994 174.527 45.6886C174.7 44.0778 175.504 42.6498 176.938 41.4044C178.372 40.159 179.902 39.5628 181.524 39.6205C183.146 39.6782 184.546 40.385 185.725 41.741C186.457 42.5824 186.88 43.5153 187 44.549C187.121 45.5828 186.972 46.5349 186.543 47.41L193.641 41.2505L194.392 42.116L180.133 54.483ZM186.014 44.2557C185.836 43.5874 185.489 42.9623 184.984 42.3805C184.479 41.7987 183.906 41.3707 183.271 41.1015C182.636 40.8322 181.996 40.7168 181.351 40.7553C180.711 40.7937 180.08 40.9476 179.455 41.2121C178.834 41.4765 178.252 41.842 177.713 42.3084C177.174 42.7748 176.731 43.2989 176.38 43.8759C176.028 44.4529 175.788 45.0587 175.658 45.6886C175.528 46.3185 175.552 46.9676 175.73 47.636C175.908 48.3043 176.25 48.9294 176.76 49.5112C177.27 50.093 177.838 50.521 178.473 50.7902C179.108 51.0595 179.748 51.1749 180.388 51.1364C181.028 51.098 181.659 50.9441 182.284 50.6796C182.905 50.4152 183.487 50.0498 184.026 49.5785C184.565 49.1121 185.008 48.588 185.359 48.011C185.711 47.434 185.947 46.8282 186.077 46.2031C186.206 45.5732 186.182 44.9241 186.004 44.2557H186.014Z" fill="#A52F2F" fill-opacity="0.8"/>
<path d="M194.589 55.2568C194.238 54.7038 193.771 54.1413 193.189 53.5739C192.607 53.0017 192.068 52.5978 191.558 52.3622L192.053 51.4727C193.295 52.0881 194.411 53.1796 195.403 54.7375C195.667 55.151 195.874 55.5453 196.028 55.9252C196.182 56.305 196.288 56.6464 196.356 56.9589C196.418 57.2667 196.428 57.5696 196.384 57.8725C196.341 58.1706 196.279 58.4351 196.206 58.6563C196.134 58.8823 196.004 59.1131 195.826 59.3583C195.648 59.5987 195.485 59.8007 195.335 59.9593C195.191 60.118 194.989 60.2911 194.729 60.4931C194.469 60.6902 194.262 60.8441 194.099 60.9547C193.935 61.0652 193.723 61.1999 193.454 61.373L187.236 65.3302L186.62 64.3638L188.911 62.9068C187.939 63.0944 187.025 63.0078 186.173 62.6568C185.321 62.301 184.59 61.6374 183.969 60.6662C183.204 59.4641 182.876 58.3245 182.992 57.2571C183.107 56.1896 183.694 55.3193 184.753 54.6461C185.249 54.3288 185.759 54.1413 186.274 54.0788C186.789 54.0163 187.275 54.0547 187.732 54.199C188.189 54.3432 188.646 54.574 189.103 54.8914C189.561 55.2087 189.979 55.5693 190.359 55.9732C190.74 56.3771 191.115 56.8291 191.481 57.3292C191.851 57.8341 192.174 58.3053 192.448 58.7573C192.722 59.2044 192.987 59.6708 193.232 60.1517C193.468 60.0026 193.656 59.8776 193.791 59.7814C193.925 59.6853 194.099 59.5554 194.31 59.392C194.522 59.2285 194.681 59.0746 194.787 58.9352C194.893 58.7957 195.008 58.6226 195.128 58.4255C195.249 58.2283 195.316 58.0216 195.331 57.81C195.35 57.5985 195.35 57.3628 195.331 57.1032C195.311 56.8435 195.239 56.5599 195.104 56.2521C194.97 55.9444 194.796 55.6174 194.575 55.276L194.589 55.2568ZM185.403 55.6463C184.662 56.1175 184.224 56.7522 184.094 57.5408C183.964 58.3341 184.195 59.1948 184.796 60.1324C185.201 60.7671 185.687 61.2624 186.245 61.6182C186.803 61.9692 187.371 62.176 187.948 62.2289C188.526 62.2866 189.089 62.2481 189.633 62.1135C190.177 61.9836 190.682 61.7721 191.134 61.4836L192.477 60.6277C192.241 60.1469 191.952 59.6612 191.62 59.166C191.283 58.6707 190.937 58.1851 190.576 57.7139C190.215 57.2426 189.816 56.8195 189.387 56.4493C188.954 56.079 188.526 55.7809 188.102 55.5549C187.679 55.3289 187.227 55.2183 186.755 55.2231C186.283 55.2279 185.831 55.3674 185.403 55.6415V55.6463Z" fill="#A52F2F" fill-opacity="0.8"/>
<path d="M188.872 68.6193L199.878 63.0657L200.393 64.0898L189.387 69.6435L188.872 68.6241V68.6193ZM202.361 61.7145C202.443 61.4693 202.597 61.2866 202.828 61.1712C203.059 61.0558 203.295 61.0366 203.54 61.1183C203.786 61.2001 203.968 61.3539 204.084 61.5847C204.199 61.8155 204.219 62.0511 204.137 62.2963C204.055 62.5416 203.901 62.7243 203.67 62.8397C203.439 62.9551 203.203 62.9743 202.958 62.8926C202.712 62.8108 202.53 62.657 202.414 62.4262C202.299 62.1954 202.279 61.9598 202.361 61.7145Z" fill="#A52F2F" fill-opacity="0.8"/>
<path d="M193.218 72.1727L208.353 65.6045L208.81 66.6527L193.675 73.2209C193.483 73.3026 193.338 73.3699 193.232 73.4276C193.127 73.4853 193.011 73.5623 192.871 73.6632C192.732 73.7642 192.65 73.8844 192.616 74.019C192.583 74.1537 192.602 74.2979 192.669 74.4566L192.876 74.9374L191.986 75.3221L191.779 74.8413C191.635 74.5143 191.572 74.2066 191.582 73.9229C191.591 73.6392 191.644 73.4084 191.731 73.2401C191.822 73.0718 191.967 72.9035 192.174 72.74C192.381 72.5766 192.539 72.4708 192.655 72.4131C192.77 72.3602 192.929 72.2881 193.127 72.2015C193.165 72.1871 193.189 72.1727 193.208 72.1678L193.218 72.1727Z" fill="#A52F2F" fill-opacity="0.8"/>
<path d="M194.382 81.7509L204.517 73.0479L204.921 74.2884L195.874 81.8663L207.65 82.6885L208.054 83.9291L190.821 82.5058C189.753 82.4145 188.94 82.251 188.381 82.0106C187.823 81.7701 187.419 81.3999 187.169 80.9046C187.02 80.6065 186.914 80.2459 186.846 79.8324C186.784 79.4189 186.793 79.0582 186.875 78.7505L187.968 78.8948C187.857 79.4718 187.915 79.9622 188.131 80.3709C188.319 80.7315 188.627 80.9864 189.065 81.1403C189.498 81.2941 190.128 81.4047 190.951 81.472L194.378 81.7461L194.382 81.7509Z" fill="#A52F2F" fill-opacity="0.8"/>
<path d="M204.883 96.8728L198.218 97.5556L198.102 96.416L216.885 94.4927L217 95.6322L208.069 96.5458C208.901 96.7093 209.599 97.1276 210.157 97.796C210.715 98.4643 211.043 99.2914 211.144 100.282C211.317 101.965 210.941 103.297 210.027 104.273C209.108 105.249 207.708 105.835 205.826 106.028L199.161 106.711L199.045 105.571L205.711 104.888C207.255 104.73 208.42 104.282 209.209 103.547C209.998 102.811 210.321 101.753 210.181 100.378C210.042 98.9981 209.507 98.0316 208.588 97.469C207.669 96.9065 206.432 96.7093 204.892 96.868L204.883 96.8728Z" fill="#A52F2F" fill-opacity="0.8"/>
<path d="M199.753 115.145C199.676 116.928 200.099 118.318 201.019 119.323L200.249 120.087C199.175 118.919 198.685 117.26 198.781 115.106C198.858 113.317 199.508 111.933 200.735 110.956C201.962 109.98 203.526 109.533 205.436 109.615C207.342 109.697 208.867 110.274 210.003 111.356C211.144 112.433 211.673 113.865 211.596 115.659C211.562 116.462 211.389 117.202 211.086 117.871C210.778 118.544 210.345 119.135 209.777 119.645C209.209 120.155 208.473 120.544 207.558 120.809C206.644 121.073 205.609 121.179 204.445 121.131L204.888 110.798C204.19 110.798 203.545 110.889 202.958 111.062C202.371 111.235 201.837 111.495 201.36 111.836C200.884 112.178 200.504 112.63 200.225 113.197C199.941 113.765 199.787 114.414 199.753 115.149V115.145ZM205.86 110.831L205.47 119.958C206.168 119.958 206.817 119.861 207.419 119.684C208.02 119.506 208.559 119.246 209.031 118.905C209.503 118.563 209.878 118.111 210.162 117.544C210.446 116.976 210.6 116.332 210.634 115.601C210.667 114.866 210.566 114.202 210.33 113.615C210.095 113.029 209.758 112.543 209.315 112.163C208.872 111.783 208.357 111.481 207.775 111.259C207.193 111.033 206.558 110.894 205.86 110.827V110.831Z" fill="#A52F2F" fill-opacity="0.8"/>
<path d="M208.863 130.824C208.983 130.18 209.026 129.454 208.992 128.641C208.959 127.829 208.838 127.165 208.632 126.646L209.604 126.333C210.085 127.632 210.157 129.189 209.82 131.007C209.729 131.488 209.613 131.921 209.464 132.3C209.315 132.68 209.161 133.007 208.997 133.277C208.834 133.546 208.632 133.772 208.396 133.959C208.16 134.147 207.934 134.296 207.727 134.411C207.52 134.527 207.27 134.608 206.971 134.661C206.673 134.714 206.418 134.748 206.206 134.767C205.994 134.782 205.725 134.772 205.398 134.743C205.075 134.714 204.815 134.681 204.623 134.647C204.43 134.613 204.18 134.57 203.867 134.512L196.62 133.156L196.832 132.031L199.503 132.531C198.665 132.002 198.054 131.32 197.674 130.483C197.294 129.646 197.212 128.656 197.424 127.526C197.688 126.122 198.227 125.074 199.041 124.372C199.854 123.67 200.879 123.439 202.111 123.665C202.688 123.775 203.189 123.982 203.608 124.285C204.026 124.593 204.353 124.953 204.589 125.367C204.825 125.78 204.998 126.261 205.119 126.809C205.234 127.353 205.297 127.906 205.297 128.459C205.297 129.012 205.263 129.598 205.191 130.218C205.119 130.839 205.027 131.406 204.921 131.921C204.815 132.435 204.69 132.954 204.541 133.478C204.82 133.531 205.042 133.57 205.205 133.589C205.369 133.613 205.585 133.632 205.85 133.661C206.115 133.685 206.336 133.68 206.509 133.652C206.683 133.623 206.885 133.575 207.106 133.512C207.327 133.45 207.52 133.344 207.679 133.2C207.838 133.055 207.996 132.882 208.16 132.68C208.324 132.478 208.463 132.219 208.579 131.906C208.694 131.589 208.786 131.233 208.863 130.834V130.824ZM201.885 124.838C201.019 124.674 200.268 124.838 199.633 125.328C198.997 125.819 198.574 126.607 198.372 127.699C198.232 128.439 198.247 129.132 198.415 129.771C198.584 130.411 198.858 130.949 199.243 131.382C199.628 131.815 200.061 132.171 200.552 132.449C201.043 132.728 201.548 132.916 202.082 133.012L203.651 133.305C203.805 132.796 203.93 132.243 204.021 131.651C204.113 131.06 204.19 130.468 204.252 129.877C204.31 129.286 204.31 128.709 204.248 128.141C204.185 127.579 204.074 127.064 203.92 126.612C203.766 126.155 203.511 125.771 203.16 125.453C202.809 125.136 202.385 124.929 201.89 124.838H201.885Z" fill="#A52F2F" fill-opacity="0.8"/>
<path d="M197.939 137.018L213.781 141.634L213.458 142.735L197.616 138.119C197.419 138.061 197.26 138.018 197.145 137.994C197.029 137.97 196.89 137.955 196.716 137.946C196.543 137.941 196.404 137.974 196.293 138.056C196.182 138.138 196.105 138.258 196.052 138.426L195.908 138.926L194.974 138.657L195.119 138.157C195.22 137.816 195.364 137.537 195.557 137.325C195.749 137.114 195.932 136.969 196.11 136.897C196.288 136.825 196.505 136.792 196.769 136.796C197.029 136.801 197.222 136.825 197.347 136.854C197.472 136.888 197.636 136.931 197.847 136.993C197.886 137.003 197.915 137.013 197.929 137.018H197.939Z" fill="#A52F2F" fill-opacity="0.8"/>
<path d="M205.008 144.769L205.913 145.115L204.96 147.601L208.425 148.928L208.016 149.995L204.551 148.668L203.155 152.303L202.25 151.957L203.646 148.322L198.17 146.225C198.102 146.197 197.992 146.158 197.842 146.1C197.433 145.942 197.121 145.826 196.919 145.754C196.712 145.677 196.428 145.591 196.076 145.485C195.72 145.379 195.441 145.322 195.239 145.302C195.037 145.288 194.796 145.288 194.517 145.302C194.238 145.322 194.012 145.389 193.834 145.499C193.656 145.615 193.478 145.774 193.3 145.98C193.122 146.187 192.972 146.451 192.852 146.769C192.698 147.173 192.592 147.678 192.535 148.288L191.558 148.221C191.591 147.596 191.721 146.995 191.938 146.423C192.097 146.004 192.279 145.649 192.486 145.36C192.693 145.072 192.91 144.836 193.141 144.658C193.372 144.48 193.641 144.355 193.949 144.283C194.257 144.211 194.565 144.172 194.878 144.177C195.191 144.182 195.552 144.23 195.966 144.321C196.38 144.413 196.784 144.523 197.183 144.653C197.583 144.783 198.045 144.951 198.574 145.153L204.05 147.25L205.003 144.764L205.008 144.769Z" fill="#A52F2F" fill-opacity="0.8"/>
<path d="M195.932 154.655L190.027 151.496L190.566 150.486L207.212 159.391L206.673 160.401L198.757 156.164C199.358 156.766 199.7 157.501 199.787 158.367C199.873 159.232 199.681 160.102 199.214 160.982C198.415 162.473 197.361 163.367 196.052 163.665C194.743 163.964 193.256 163.665 191.587 162.771L185.682 159.612L186.221 158.602L192.126 161.761C193.492 162.492 194.71 162.776 195.778 162.608C196.846 162.439 197.703 161.742 198.357 160.521C199.012 159.299 199.113 158.198 198.665 157.217C198.218 156.237 197.308 155.381 195.937 154.65L195.932 154.655Z" fill="#A52F2F" fill-opacity="0.8"/>
<path d="M181.794 165.218L194.801 168.277L194.036 169.334L182.578 166.493L188.848 176.489L188.078 177.547L179.079 162.79C178.521 161.877 178.18 161.122 178.045 160.526C177.91 159.929 177.973 159.391 178.228 158.896C178.382 158.597 178.608 158.299 178.906 158.001C179.205 157.703 179.503 157.501 179.796 157.386L180.326 158.352C179.796 158.602 179.431 158.939 179.229 159.357C179.051 159.718 179.022 160.122 179.152 160.564C179.282 161.006 179.565 161.579 179.999 162.281L181.794 165.209V165.218Z" fill="#A52F2F" fill-opacity="0.8"/>
<path d="M163.593 184.5L164.45 183.74L166.346 185.865C166.028 184.937 165.995 183.971 166.25 182.971C166.5 181.97 167.044 181.095 167.881 180.35C169.224 179.153 170.706 178.629 172.318 178.778C173.93 178.927 175.374 179.715 176.635 181.134C177.9 182.552 178.516 184.072 178.483 185.692C178.449 187.312 177.761 188.721 176.413 189.919C175.581 190.659 174.652 191.097 173.622 191.231C172.592 191.366 171.635 191.226 170.754 190.813L177.01 197.823L176.153 198.583L163.589 184.504L163.593 184.5ZM173.906 190.241C174.57 190.053 175.196 189.702 175.768 189.188C176.346 188.673 176.765 188.096 177.029 187.457C177.294 186.817 177.4 186.178 177.352 185.538C177.304 184.899 177.14 184.269 176.871 183.653C176.596 183.033 176.226 182.461 175.749 181.927C175.273 181.393 174.743 180.956 174.161 180.614C173.579 180.273 172.973 180.042 172.337 179.922C171.707 179.802 171.057 179.836 170.393 180.023C169.729 180.211 169.103 180.562 168.531 181.076C167.953 181.591 167.535 182.168 167.27 182.807C167.005 183.447 166.899 184.086 166.948 184.726C166.996 185.365 167.155 185.995 167.429 186.61C167.703 187.226 168.074 187.803 168.55 188.337C169.026 188.87 169.556 189.308 170.138 189.649C170.72 189.991 171.327 190.221 171.957 190.346C172.588 190.467 173.237 190.433 173.901 190.246L173.906 190.241Z" fill="#A52F2F" fill-opacity="0.8"/>
<path d="M160.581 186.558L167.761 196.573L166.827 197.242L159.647 187.226L160.576 186.558H160.581ZM169.479 198.819C169.734 198.862 169.936 198.987 170.085 199.194C170.234 199.401 170.287 199.636 170.249 199.891C170.206 200.146 170.08 200.348 169.874 200.497C169.667 200.646 169.431 200.699 169.176 200.66C168.921 200.617 168.719 200.492 168.569 200.285C168.42 200.074 168.367 199.843 168.411 199.588C168.454 199.333 168.579 199.131 168.786 198.982C168.993 198.833 169.229 198.78 169.484 198.819H169.479Z" fill="#A52F2F" fill-opacity="0.8"/>
<path d="M152.477 192.645C150.928 193.53 149.975 194.626 149.614 195.944L148.555 195.703C148.974 194.174 150.119 192.876 151.991 191.809C153.55 190.919 155.066 190.731 156.548 191.251C158.031 191.765 159.243 192.852 160.191 194.511C161.139 196.17 161.457 197.766 161.154 199.3C160.846 200.839 159.912 202.05 158.358 202.94C157.66 203.339 156.943 203.589 156.211 203.685C155.48 203.781 154.744 203.728 154.012 203.522C153.276 203.315 152.554 202.896 151.847 202.267C151.139 201.637 150.495 200.814 149.917 199.805L158.902 194.674C158.526 194.088 158.108 193.588 157.646 193.184C157.184 192.78 156.683 192.467 156.139 192.246C155.596 192.025 155.013 191.948 154.383 192.01C153.752 192.073 153.117 192.289 152.477 192.655V192.645ZM159.378 195.511L151.443 200.04C151.818 200.627 152.241 201.132 152.713 201.545C153.185 201.959 153.69 202.276 154.229 202.493C154.768 202.709 155.355 202.786 155.981 202.723C156.606 202.661 157.241 202.449 157.877 202.084C158.517 201.718 159.027 201.281 159.397 200.771C159.768 200.262 159.999 199.718 160.085 199.141C160.172 198.564 160.153 197.968 160.032 197.357C159.912 196.747 159.696 196.131 159.378 195.511Z" fill="#A52F2F" fill-opacity="0.8"/>
<path d="M150.018 205.955L150.393 206.849L147.934 207.878L149.368 211.301L148.31 211.744L146.881 208.32L143.286 209.82L142.91 208.926L146.505 207.421L144.243 202.017C144.214 201.949 144.171 201.839 144.109 201.694C143.94 201.29 143.81 200.983 143.719 200.786C143.632 200.584 143.502 200.319 143.334 199.992C143.165 199.66 143.016 199.42 142.886 199.261C142.756 199.103 142.593 198.93 142.386 198.742C142.179 198.555 141.977 198.434 141.77 198.386C141.563 198.338 141.327 198.319 141.053 198.333C140.779 198.348 140.485 198.42 140.172 198.555C139.773 198.723 139.335 198.992 138.854 199.377L138.228 198.627C138.704 198.218 139.229 197.896 139.797 197.66C140.211 197.487 140.596 197.377 140.942 197.324C141.293 197.271 141.616 197.266 141.905 197.314C142.193 197.357 142.472 197.468 142.737 197.641C143.002 197.814 143.242 198.011 143.454 198.237C143.666 198.463 143.882 198.757 144.099 199.122C144.32 199.483 144.518 199.853 144.701 200.233C144.883 200.613 145.081 201.06 145.297 201.579L147.559 206.988L150.018 205.959V205.955Z" fill="#A52F2F" fill-opacity="0.8"/>
<path d="M135.706 199.54C135.942 199.661 136.101 199.843 136.183 200.098C136.265 200.348 136.245 200.593 136.13 200.829C136.01 201.065 135.827 201.223 135.572 201.305C135.321 201.387 135.076 201.367 134.84 201.252C134.604 201.132 134.446 200.944 134.364 200.694C134.282 200.444 134.301 200.199 134.417 199.963C134.537 199.728 134.72 199.569 134.975 199.487C135.23 199.406 135.471 199.425 135.706 199.54Z" fill="#A52F2F" fill-opacity="0.8"/>
<path d="M124.638 202.588L126.948 220.283L125.49 220.475L112.867 205.781L114.965 221.846L113.782 222L111.467 204.305L112.925 204.113L125.548 218.807L123.449 202.742L124.633 202.588H124.638Z" fill="#A52F2F" fill-opacity="0.8"/>
<path d="M102.781 215.783C103.435 215.802 104.162 215.73 104.961 215.566C105.76 215.403 106.4 215.182 106.876 214.893L107.338 215.802C106.135 216.485 104.605 216.802 102.752 216.754C102.261 216.74 101.818 216.691 101.414 216.605C101.01 216.518 100.668 216.417 100.375 216.297C100.081 216.177 99.826 216.013 99.6047 215.811C99.3833 215.605 99.1956 215.412 99.0513 215.225C98.9069 215.037 98.7866 214.802 98.6855 214.518C98.5845 214.234 98.5123 213.984 98.4642 213.778C98.416 213.571 98.3824 213.302 98.3631 212.979C98.3439 212.657 98.3342 212.398 98.3342 212.2C98.3342 212.003 98.339 211.748 98.3487 211.436L98.5412 204.07L99.6865 204.098L99.6143 206.81C100.004 205.902 100.582 205.19 101.352 204.685C102.121 204.18 103.084 203.94 104.234 203.969C105.663 204.007 106.785 204.373 107.607 205.065C108.43 205.757 108.82 206.733 108.791 207.984C108.777 208.57 108.652 209.099 108.411 209.561C108.175 210.022 107.872 210.402 107.497 210.7C107.121 210.998 106.679 211.248 106.154 211.45C105.634 211.652 105.1 211.797 104.557 211.888C104.013 211.979 103.426 212.032 102.8 212.061C102.179 212.085 101.602 212.09 101.072 212.061C100.548 212.037 100.014 211.999 99.4747 211.931C99.4651 212.215 99.4651 212.436 99.4699 212.604C99.4747 212.773 99.4844 212.984 99.5036 213.253C99.5229 213.518 99.5614 213.734 99.6191 213.903C99.6769 214.071 99.7539 214.258 99.8549 214.47C99.9512 214.682 100.086 214.85 100.254 214.984C100.423 215.119 100.615 215.249 100.841 215.379C101.068 215.509 101.342 215.605 101.674 215.667C102.006 215.73 102.372 215.768 102.781 215.778V215.783ZM107.593 207.955C107.617 207.075 107.338 206.363 106.751 205.81C106.169 205.262 105.322 204.969 104.205 204.94C103.45 204.921 102.771 205.046 102.165 205.31C101.558 205.575 101.072 205.935 100.702 206.378C100.331 206.825 100.052 207.31 99.8549 207.835C99.6576 208.359 99.5517 208.892 99.5373 209.431L99.494 211.022C100.023 211.095 100.586 211.128 101.188 211.128C101.785 211.128 102.381 211.109 102.978 211.075C103.575 211.042 104.143 210.95 104.691 210.796C105.24 210.643 105.726 210.455 106.149 210.229C106.573 210.003 106.919 209.695 107.179 209.296C107.439 208.902 107.574 208.45 107.588 207.945L107.593 207.955Z" fill="#A52F2F" fill-opacity="0.8"/>
<path d="M94.4122 215.028L94.2678 215.989L91.6307 215.595L91.0821 219.264L89.9464 219.096L90.495 215.427L86.6404 214.85L86.7848 213.888L90.6394 214.465L91.5056 208.666C91.5152 208.594 91.5345 208.479 91.5585 208.32C91.6211 207.883 91.6692 207.561 91.6981 207.339C91.727 207.118 91.7558 206.83 91.7799 206.459C91.804 206.089 91.804 205.805 91.7799 205.604C91.751 205.402 91.6981 205.166 91.6211 204.902C91.5441 204.632 91.4286 204.425 91.2794 204.276C91.1302 204.127 90.9329 203.988 90.6923 203.863C90.4517 203.733 90.163 203.647 89.8261 203.594C89.3978 203.531 88.8829 203.536 88.2766 203.613L88.1322 202.646C88.753 202.545 89.3641 202.541 89.9705 202.632C90.4132 202.699 90.7982 202.8 91.1254 202.935C91.4527 203.074 91.727 203.233 91.9531 203.425C92.1793 203.618 92.3574 203.848 92.4969 204.137C92.6365 204.421 92.7375 204.714 92.8001 205.017C92.8627 205.32 92.8963 205.685 92.8963 206.108C92.8963 206.532 92.8771 206.95 92.8338 207.368C92.7905 207.786 92.7279 208.272 92.6461 208.83L91.7799 214.629L94.417 215.023L94.4122 215.028Z" fill="#A52F2F" fill-opacity="0.8"/>
<path d="M75.317 205.108L73.5124 211.556L72.4104 211.248L75.7357 199.386L76.8377 199.694L76.1832 202.031C76.6404 201.314 77.2852 200.819 78.113 200.55C78.9407 200.276 79.8309 200.276 80.7934 200.545C82.4344 201.002 83.5364 201.838 84.109 203.041C84.6817 204.247 84.7106 205.767 84.1957 207.594L82.3911 214.042L81.289 213.734L83.0937 207.286C83.5123 205.791 83.5219 204.546 83.1273 203.541C82.7327 202.536 81.8665 201.853 80.5287 201.478C79.1957 201.103 78.0985 201.242 77.2371 201.896C76.3757 202.545 75.7405 203.618 75.3218 205.113L75.317 205.108Z" fill="#A52F2F" fill-opacity="0.8"/>
<path d="M61.0005 206.387L61.8426 205.796C62.2806 206.257 62.8243 206.628 63.474 206.902C64.7541 207.44 65.8561 207.44 66.7945 206.902C67.7329 206.363 68.498 205.377 69.0995 203.949L71.6982 197.78L72.7569 198.223L67.9735 209.575L66.9196 209.133L67.8628 206.897C67.319 207.551 66.6164 207.959 65.7646 208.128C64.9081 208.296 64.0226 208.185 63.1083 207.801C62.2276 207.431 61.5298 206.959 61.0101 206.392L61.0005 206.387Z" fill="#A52F2F" fill-opacity="0.8"/>
<path d="M53.7822 201.973C54.3501 202.295 55.0286 202.574 55.8082 202.81C56.5878 203.045 57.2567 203.146 57.8149 203.122L57.7956 204.142C56.4097 204.175 54.9131 203.733 53.3058 202.819C52.8823 202.579 52.5118 202.324 52.199 202.06C51.8862 201.795 51.6311 201.54 51.429 201.3C51.2269 201.055 51.0777 200.79 50.9766 200.507C50.8756 200.223 50.8082 199.963 50.7697 199.728C50.7312 199.497 50.7312 199.228 50.7793 198.929C50.8275 198.631 50.8756 198.376 50.9333 198.17C50.9911 197.963 51.0873 197.713 51.2221 197.415C51.3568 197.121 51.4723 196.886 51.5637 196.713C51.6552 196.54 51.7803 196.318 51.9391 196.044L55.5868 189.645L56.5829 190.212L55.2403 192.568C56.0151 191.948 56.8621 191.597 57.7764 191.51C58.6907 191.424 59.6532 191.669 60.6589 192.241C61.9005 192.948 62.7186 193.799 63.1132 194.799C63.5078 195.799 63.3971 196.843 62.7763 197.929C62.4828 198.439 62.1267 198.843 61.6984 199.141C61.2701 199.439 60.8226 199.631 60.3558 199.713C59.8842 199.8 59.3741 199.809 58.8207 199.742C58.2672 199.675 57.7283 199.55 57.2037 199.372C56.6792 199.194 56.1354 198.968 55.5772 198.694C55.0141 198.42 54.5089 198.15 54.0517 197.886C53.5993 197.617 53.147 197.328 52.7042 197.02C52.5647 197.266 52.4588 197.463 52.3818 197.612C52.3048 197.761 52.2134 197.958 52.1027 198.199C51.992 198.439 51.9247 198.651 51.8958 198.824C51.8669 198.997 51.8477 199.203 51.8332 199.434C51.8188 199.665 51.8573 199.881 51.9391 200.074C52.0209 200.271 52.1316 200.478 52.2711 200.699C52.4107 200.92 52.608 201.136 52.8679 201.348C53.1277 201.56 53.4357 201.766 53.7918 201.968L53.7822 201.973ZM61.7225 197.343C62.1556 196.578 62.247 195.818 61.9919 195.054C61.7369 194.294 61.1257 193.64 60.1585 193.087C59.504 192.712 58.8447 192.501 58.1854 192.453C57.5262 192.4 56.9294 192.486 56.3953 192.707C55.8563 192.929 55.3799 193.222 54.9564 193.592C54.5329 193.962 54.1912 194.381 53.9218 194.852L53.1325 196.237C53.5656 196.549 54.0469 196.847 54.5714 197.126C55.096 197.405 55.6349 197.674 56.1739 197.924C56.7129 198.174 57.2615 198.362 57.8149 198.487C58.3683 198.612 58.888 198.675 59.3693 198.675C59.8505 198.675 60.298 198.564 60.7167 198.338C61.1305 198.112 61.4674 197.78 61.7176 197.338L61.7225 197.343Z" fill="#A52F2F" fill-opacity="0.8"/>
<path d="M51.4914 189.63L41.9438 203.079L41.0103 202.415L50.5578 188.966C50.6781 188.798 50.7696 188.664 50.8273 188.563C50.885 188.462 50.9476 188.332 51.0102 188.173C51.0727 188.014 51.0823 187.87 51.0439 187.74C51.0054 187.611 50.9139 187.495 50.7696 187.394L50.3413 187.091L50.9043 186.298L51.3326 186.601C51.6261 186.808 51.8379 187.034 51.9774 187.284C52.117 187.534 52.1892 187.755 52.2036 187.947C52.2132 188.139 52.1747 188.356 52.0833 188.601C51.9919 188.846 51.9101 189.024 51.8379 189.13C51.7657 189.236 51.6694 189.38 51.5443 189.553C51.5203 189.587 51.5058 189.611 51.4962 189.625L51.4914 189.63Z" fill="#A52F2F" fill-opacity="0.8"/>
<path d="M47.045 186.351L36.7371 199.223L35.842 198.506L46.1499 185.634C46.2799 185.471 46.3761 185.341 46.4435 185.25C46.5109 185.154 46.5782 185.029 46.6504 184.875C46.7226 184.721 46.7418 184.577 46.7082 184.442C46.6745 184.307 46.5927 184.187 46.4531 184.081L46.0441 183.754L46.6504 182.995L47.0595 183.322C47.3386 183.543 47.5407 183.783 47.661 184.043C47.7813 184.303 47.8439 184.524 47.8487 184.716C47.8535 184.908 47.7957 185.125 47.6899 185.36C47.584 185.601 47.4926 185.769 47.4156 185.875C47.3386 185.976 47.2327 186.115 47.098 186.284C47.0739 186.317 47.0546 186.336 47.045 186.351Z" fill="#A52F2F" fill-opacity="0.8"/>
<path d="M41.5061 178.403L36.7035 190.866L35.7602 189.962L40.1394 179.008L29.3744 183.855L28.4312 182.951L44.2876 176.051C45.2693 175.623 46.0681 175.388 46.6745 175.335C47.2808 175.282 47.8102 175.417 48.2625 175.734C48.5368 175.926 48.8015 176.191 49.0566 176.527C49.3116 176.864 49.4752 177.186 49.5426 177.494L48.5128 177.888C48.3347 177.33 48.0556 176.922 47.6658 176.667C47.3338 176.441 46.9392 176.359 46.482 176.426C46.0248 176.494 45.4185 176.696 44.663 177.027L41.5157 178.407L41.5061 178.403Z" fill="#A52F2F" fill-opacity="0.8"/>
<path d="M19.5042 171.642L17.2713 168.449L18.0702 167.892L20.3031 171.084L29.6148 164.588L30.2693 165.526L20.9576 172.022L22.483 174.205L21.689 174.763L20.1635 172.58L19.2973 173.186C18.8017 173.532 18.3685 173.82 17.998 174.046C17.6323 174.272 17.2521 174.479 16.8623 174.671C16.4725 174.864 16.1308 174.989 15.8277 175.051C15.5293 175.114 15.2213 175.138 14.9037 175.119C14.5861 175.099 14.2925 175.018 14.0134 174.869C13.7343 174.72 13.4552 174.508 13.1713 174.234C12.8874 173.965 12.5986 173.623 12.3147 173.215C11.896 172.618 11.6169 172.017 11.4822 171.411L12.4013 171.181C12.5409 171.69 12.7815 172.181 13.1135 172.657C13.3157 172.94 13.513 173.186 13.7054 173.383C13.8979 173.58 14.1049 173.724 14.3214 173.811C14.538 173.897 14.7305 173.965 14.9037 174.013C15.0721 174.061 15.2887 174.046 15.5486 173.969C15.8084 173.892 16.025 173.825 16.1982 173.767C16.3715 173.71 16.6121 173.58 16.9297 173.388C17.2473 173.195 17.4975 173.032 17.6852 172.907C17.8729 172.782 18.1616 172.58 18.5514 172.311C18.5658 172.301 18.5755 172.296 18.5803 172.291C18.5851 172.287 18.5995 172.282 18.6092 172.272C18.6236 172.262 18.6332 172.253 18.638 172.253L19.5042 171.647V171.642Z" fill="#A52F2F" fill-opacity="0.8"/>
<path d="M22.8391 154.909C22.0066 153.332 20.9383 152.342 19.6389 151.943L19.9181 150.895C21.4339 151.361 22.6947 152.549 23.7005 154.457C24.5378 156.044 24.6726 157.564 24.1095 159.025C23.5417 160.487 22.4156 161.665 20.7265 162.555C19.0374 163.444 17.4301 163.714 15.9046 163.353C14.3791 162.997 13.1953 162.026 12.358 160.439C11.9826 159.727 11.7564 159.006 11.6842 158.27C11.6121 157.535 11.6842 156.804 11.92 156.078C12.151 155.352 12.5938 154.645 13.2482 153.957C13.9027 153.27 14.7449 152.654 15.7747 152.111L20.6062 161.256C21.2077 160.901 21.7178 160.502 22.1413 160.054C22.5648 159.607 22.892 159.117 23.1327 158.583C23.3733 158.049 23.4695 157.467 23.431 156.838C23.3877 156.208 23.1952 155.568 22.8487 154.914L22.8391 154.909ZM19.74 161.708L15.4715 153.63C14.87 153.986 14.3551 154.39 13.9268 154.847C13.4985 155.304 13.1664 155.799 12.9306 156.328C12.6948 156.862 12.5986 157.439 12.6419 158.069C12.6852 158.698 12.8729 159.338 13.2145 159.982C13.561 160.636 13.9797 161.155 14.4754 161.545C14.971 161.934 15.51 162.184 16.0827 162.285C16.6601 162.391 17.2521 162.391 17.868 162.295C18.484 162.194 19.1048 161.997 19.74 161.704V161.708Z" fill="#A52F2F" fill-opacity="0.8"/>
<path d="M5.80856 144.023L6.81913 144.23C6.78064 144.865 6.88651 145.509 7.13674 146.173C7.62278 147.471 8.38312 148.274 9.41776 148.582C10.4524 148.889 11.694 148.774 13.1473 148.226L19.4225 145.875L19.8267 146.947L8.28207 151.274L7.87784 150.202L10.154 149.351C9.30227 149.404 8.52749 149.178 7.81528 148.673C7.10787 148.168 6.57852 147.447 6.22722 146.519C5.89037 145.625 5.75081 144.798 5.81337 144.028L5.80856 144.023Z" fill="#A52F2F" fill-opacity="0.8"/>
<path d="M16.2415 138.022L4.14346 140.402L3.9221 139.277L6.12131 138.845C5.30803 138.758 4.6295 138.46 4.0809 137.955C3.5323 137.445 3.16176 136.714 2.97408 135.762C2.88746 135.325 2.85377 134.907 2.86821 134.517C2.88264 134.123 2.93077 133.786 3.00295 133.493C3.07513 133.204 3.19544 132.926 3.35906 132.656C3.52268 132.387 3.67186 132.171 3.8066 132.002C3.94134 131.834 4.12421 131.666 4.34558 131.488C4.56694 131.315 4.73537 131.19 4.85086 131.118C4.96155 131.045 5.11073 130.959 5.29359 130.853C4.9038 130.844 4.51882 130.786 4.13384 130.675C3.75367 130.565 3.36868 130.387 2.9837 130.146C2.59872 129.906 2.25705 129.56 1.9635 129.103C1.66995 128.651 1.46302 128.112 1.34271 127.492C1.03473 125.929 1.32828 124.65 2.23299 123.66C3.13288 122.669 4.55732 121.977 6.50148 121.597L12.7574 120.366L12.9788 121.491L6.72284 122.722C3.30131 123.395 1.82394 124.924 2.29555 127.309C2.76234 129.685 4.71131 130.536 8.12802 129.863L14.384 128.632L14.6053 129.757L8.34939 130.988C4.92786 131.661 3.45049 133.19 3.9221 135.575C4.38889 137.95 6.33305 138.801 9.75457 138.128L16.0105 136.897L16.2319 138.022H16.2415Z" fill="#A52F2F" fill-opacity="0.8"/>
<path d="M12.0213 112.106C12.002 110.322 11.5064 108.956 10.5343 108.004L11.2609 107.201C12.3918 108.307 12.9693 109.942 12.9934 112.096C13.0126 113.89 12.4351 115.303 11.2609 116.347C10.0867 117.385 8.54681 117.919 6.63634 117.938C4.72587 117.957 3.17631 117.462 1.98287 116.443C0.789424 115.428 0.183077 114.024 0.163828 112.231C0.154203 111.428 0.284135 110.678 0.558434 109.995C0.827922 109.307 1.23215 108.692 1.77113 108.153C2.3101 107.615 3.02713 107.187 3.92703 106.874C4.82692 106.562 5.85675 106.398 7.01651 106.389L7.12719 116.727C7.82497 116.688 8.46019 116.563 9.04248 116.356C9.61995 116.15 10.1397 115.866 10.5968 115.5C11.054 115.135 11.4101 114.664 11.6604 114.082C11.9106 113.505 12.0357 112.846 12.0261 112.106H12.0213ZM6.15511 116.736L6.05887 107.605C5.36109 107.644 4.71624 107.769 4.12433 107.98C3.53242 108.192 3.0127 108.475 2.56034 108.841C2.10799 109.206 1.75669 109.678 1.50164 110.259C1.2514 110.836 1.12628 111.495 1.13591 112.221C1.14553 112.962 1.28028 113.616 1.54495 114.188C1.80963 114.76 2.17055 115.226 2.63734 115.582C3.09932 115.938 3.62867 116.212 4.22058 116.404C4.81249 116.597 5.45733 116.707 6.15511 116.731V116.736Z" fill="#A52F2F" fill-opacity="0.8"/>
<path d="M6.40037 101.686L13.0413 102.58L12.8873 103.715L0.668945 102.066L0.822938 100.931L3.22908 101.253C2.4543 100.897 1.87683 100.33 1.49184 99.5511C1.10686 98.7721 0.981743 97.8874 1.11649 96.9017C1.34266 95.2236 2.01638 94.0167 3.13764 93.281C4.2589 92.5454 5.76033 92.305 7.63231 92.555L14.2733 93.4493L14.1193 94.5841L7.47832 93.6898C5.93839 93.483 4.70163 93.6417 3.76324 94.1754C2.82485 94.7043 2.26181 95.6564 2.07894 97.0315C1.89126 98.4019 2.18481 99.4694 2.94515 100.229C3.70549 100.989 4.86044 101.474 6.40037 101.681V101.686Z" fill="#A52F2F" fill-opacity="0.8"/>
<path d="M3.84508 88.1601L2.90669 87.9101L3.59003 85.3376L0.00488281 84.3856L0.298432 83.2797L3.88839 84.2317L4.88934 80.4668L5.82774 80.7168L4.8316 84.4817L10.5005 85.9819C10.5726 86.0012 10.6833 86.03 10.8373 86.0733C11.2608 86.1839 11.5832 86.2704 11.795 86.3185C12.0067 86.3666 12.3002 86.4291 12.6612 86.4964C13.0269 86.5637 13.3108 86.5926 13.5129 86.5878C13.7151 86.583 13.9557 86.5541 14.23 86.506C14.5043 86.458 14.7256 86.3666 14.8893 86.2368C15.0529 86.107 15.2117 85.9242 15.3657 85.6982C15.5197 85.4722 15.64 85.1982 15.7266 84.8664C15.8373 84.4481 15.8854 83.9336 15.8758 83.3229L16.8527 83.2845C16.8815 83.9096 16.819 84.5202 16.665 85.1116C16.5495 85.5444 16.4051 85.9146 16.2319 86.2272C16.0586 86.5397 15.8661 86.7945 15.6544 86.9965C15.4427 87.1984 15.1876 87.3523 14.8893 87.4581C14.5909 87.5639 14.2877 87.6312 13.9797 87.66C13.6717 87.6889 13.306 87.6793 12.8873 87.636C12.4639 87.5879 12.05 87.5206 11.641 87.434C11.2319 87.3475 10.7507 87.2321 10.2069 87.0878L4.53805 85.5877L3.8547 88.1601H3.84508Z" fill="#A52F2F" fill-opacity="0.8"/>
<path d="M18.9027 75.779C19.5716 74.1249 19.6438 72.6728 19.1145 71.4178L20.0962 70.9562C20.7121 72.4131 20.6159 74.1441 19.8026 76.1444C19.1289 77.8033 18.051 78.8899 16.564 79.3996C15.0818 79.9093 13.4552 79.8035 11.6843 79.0871C9.91339 78.3706 8.67664 77.3128 7.96442 75.9136C7.25702 74.5144 7.23777 72.9853 7.91149 71.3265C8.21466 70.5812 8.6237 69.9417 9.13862 69.4127C9.65353 68.8838 10.2647 68.4703 10.9673 68.1818C11.6747 67.8885 12.4976 67.7731 13.4504 67.8308C14.3984 67.8885 15.4138 68.1385 16.487 68.5713L12.5938 78.1543C13.2531 78.3851 13.8883 78.5197 14.5043 78.5534C15.1155 78.587 15.7074 78.5245 16.2704 78.361C16.8334 78.2023 17.3435 77.8994 17.7959 77.4619C18.2531 77.0243 18.6188 76.4617 18.8979 75.779H18.9027ZM11.7036 77.7888L15.1443 69.3262C14.4851 69.0954 13.845 68.9608 13.2146 68.9271C12.589 68.8934 11.9971 68.956 11.4341 69.1194C10.8758 69.2829 10.3657 69.581 9.91339 70.0186C9.45623 70.4561 9.09049 71.0139 8.81619 71.6919C8.53708 72.3747 8.41196 73.0334 8.43121 73.6633C8.45046 74.2932 8.60927 74.8654 8.898 75.3702C9.19155 75.8799 9.57172 76.3367 10.0433 76.7406C10.5149 77.1493 11.0683 77.4955 11.6987 77.7888H11.7036Z" fill="#A52F2F" fill-opacity="0.8"/>
<path d="M28.7918 58.5265L28.2047 59.5074L25.7553 58.0456C26.3376 58.839 26.66 59.7478 26.7178 60.7768C26.7803 61.8105 26.5204 62.8059 25.9478 63.7675C25.0238 65.311 23.7678 66.2582 22.1846 66.5948C20.6013 66.9362 18.9892 66.6189 17.3579 65.6428C15.7265 64.6667 14.6823 63.4069 14.2299 61.849C13.7775 60.2959 14.0085 58.7428 14.9325 57.1994C15.5051 56.2473 16.2607 55.5501 17.2039 55.1126C18.1471 54.675 19.0999 54.5211 20.0672 54.651L11.9922 49.8378L12.5793 48.8569L28.7918 58.5265ZM17.2279 56.1367C16.6505 56.5166 16.1596 57.0359 15.765 57.6994C15.3704 58.363 15.1442 59.0361 15.0817 59.7285C15.0239 60.4161 15.1105 61.0604 15.3512 61.6567C15.5918 62.2529 15.9334 62.8059 16.3762 63.3107C16.8189 63.8156 17.3531 64.2532 17.9642 64.6186C18.5754 64.984 19.2154 65.2437 19.8699 65.3927C20.5292 65.5466 21.1788 65.5851 21.814 65.5081C22.4541 65.436 23.0604 65.21 23.6427 64.8302C24.225 64.4503 24.711 63.931 25.1056 63.2675C25.5002 62.6039 25.7264 61.9307 25.789 61.2383C25.8467 60.5508 25.7553 59.9064 25.5195 59.3102C25.2789 58.714 24.9372 58.161 24.4945 57.6562C24.0469 57.1465 23.5176 56.7137 22.9064 56.3483C22.2953 55.9829 21.6601 55.7232 21.0008 55.5742C20.3415 55.4251 19.6918 55.3818 19.0566 55.4588C18.4166 55.5309 17.8102 55.7569 17.2279 56.1367Z" fill="#A52F2F" fill-opacity="0.8"/>
<path d="M33.378 42.7894C35.1055 42.7894 36.506 41.3901 36.506 39.664C36.506 37.9379 35.1055 36.5386 33.378 36.5386C31.6504 36.5386 30.25 37.9379 30.25 39.664C30.25 41.3901 31.6504 42.7894 33.378 42.7894Z" fill="#A52F2F" fill-opacity="0.8"/>
</g>
<defs>
<clipPath id="clip0_424_3763">
<rect width="118" height="34" fill="white" transform="translate(50.4229 93.9775)"/>
</clipPath>
<clipPath id="clip1_424_3763">
<rect width="217" height="222" fill="white"/>
</clipPath>
</defs>
</svg>
