<svg width="107" height="30" viewBox="0 0 107 30" fill="none" xmlns="http://www.w3.org/2000/svg">
<g clip-path="url(#clip0_210_482)">
<path d="M41.6447 29.5377C41.6447 29.6187 41.6367 29.6677 41.6199 29.6841C41.5694 29.8951 41.4277 30.0009 41.1939 30.0009H39.0149C38.7811 30.0009 38.6393 29.8958 38.5889 29.6841C38.572 29.6677 38.564 29.6195 38.564 29.5377V4.72442C38.564 4.2534 38.3975 3.85789 38.0627 3.5418C37.7288 3.22493 37.3284 3.06688 36.8607 3.06688C36.3931 3.06688 35.9927 3.22493 35.6587 3.5418C35.3248 3.85867 35.1582 4.25418 35.1582 4.72442V29.5377C35.1582 29.8297 35.0077 29.976 34.7074 29.976H32.4283L32.4035 29.9519C32.2201 29.8873 32.12 29.79 32.1032 29.6599C32.0864 29.6436 32.0784 29.6031 32.0784 29.5385V4.70029C32.0784 4.22926 31.9094 3.83376 31.5731 3.51767C31.2367 3.2008 30.8339 3.04275 30.3623 3.04275C29.8906 3.04275 29.467 3.2008 29.1394 3.51767C28.8119 3.83454 28.647 4.23004 28.647 4.70029V29.5136C28.647 29.8055 28.4908 29.9519 28.1753 29.9519H26.038C25.8065 29.9519 25.664 29.8468 25.6159 29.635C25.5823 29.5377 25.5663 29.4972 25.5663 29.5136V4.72209C25.5663 4.21914 25.6416 3.74033 25.7913 3.28566C25.9419 2.83098 26.1549 2.41679 26.4303 2.04386C26.7058 1.67094 27.0357 1.33772 27.4193 1.04576C27.8037 0.753802 28.2209 0.526464 28.6718 0.363746C29.2227 0.152758 29.7905 0.046875 30.3751 0.046875C30.6754 0.046875 30.9677 0.0749029 31.2511 0.132516C31.5354 0.18935 31.8189 0.266427 32.1024 0.363746C32.7038 0.591084 33.2123 0.907177 33.6303 1.31358C34.1316 0.858906 34.6401 0.550599 35.1582 0.38866C35.7092 0.177672 36.277 0.0717887 36.8615 0.0717887C37.1618 0.0717887 37.4541 0.100595 37.7384 0.15743C38.0219 0.214264 38.3062 0.291341 38.5897 0.38866C39.4914 0.729666 40.2257 1.28555 40.7935 2.05632C41.3612 2.82709 41.6447 3.72398 41.6447 4.747V29.5377Z" fill="#1D1D1B"/>
<path d="M9.8346 10.2498C9.8346 11.5305 9.39496 12.6142 8.51649 13.5002C9.39496 14.3862 9.8346 15.4614 9.8346 16.7266V25.2315C9.8346 26.2755 9.5375 27.1926 8.94411 27.9837C8.35072 28.7747 7.58996 29.3438 6.66264 29.6918C6.25583 29.8498 5.76815 29.9526 5.19878 30.0001H0.438837C0.145745 29.9682 0 29.8101 0 29.5252V0.901675C0 0.616725 0.146546 0.458679 0.438837 0.426758H5.19718C5.45744 0.442329 5.70969 0.478142 5.95393 0.53342C6.19818 0.588697 6.43361 0.655653 6.66184 0.735065C7.58916 1.08308 8.34992 1.6522 8.94331 2.44321C9.5375 3.23422 9.8338 4.15136 9.8338 5.1954V10.249L9.8346 10.2498ZM3.17276 11.9579H4.90569C5.39418 11.9579 5.80819 11.7921 6.15013 11.4596C6.49207 11.1272 6.66264 10.7239 6.66264 10.2498V5.19618C6.66264 4.73761 6.49207 4.3421 6.15013 4.00966C5.80819 3.67722 5.39337 3.51139 4.90569 3.51139H3.17276V11.9579ZM6.66264 16.7266C6.66264 16.268 6.49207 15.8725 6.15013 15.54C5.80819 15.2076 5.39337 15.0418 4.90569 15.0418H3.17276V26.9155H4.90569C5.39418 26.9155 5.80819 26.7497 6.15013 26.4172C6.49207 26.0848 6.66264 25.6893 6.66264 25.2307V16.7258V16.7266Z" fill="#1D1D1B"/>
<path d="M18.0829 0C18.7659 0 19.405 0.126126 19.9984 0.379934C20.5926 0.632964 21.1131 0.973192 21.5599 1.39984C22.0076 1.82727 22.3615 2.33332 22.6218 2.91802C22.882 3.50349 23.0126 4.12789 23.0126 4.792V29.5734C22.9797 29.8583 22.8172 30 22.5249 30H20.3043C20.1746 30 20.064 29.9525 19.9752 29.8575C19.8855 29.7625 19.8406 29.652 19.8406 29.5251V23.5115H16.3507V29.5251C16.3507 29.652 16.3019 29.7625 16.2042 29.8575C16.1065 29.9525 15.9928 30 15.8623 30H13.6416C13.5111 30 13.4014 29.9525 13.3125 29.8575C13.2228 29.7625 13.178 29.652 13.178 29.5251V4.79278C13.178 4.12867 13.3077 3.50349 13.5688 2.9188C13.829 2.33332 14.179 1.82727 14.6178 1.40062C15.0567 0.97397 15.5732 0.633743 16.1674 0.380713C16.7607 0.127683 17.3998 0.000778553 18.0829 0.000778553M19.8398 4.79355C19.8398 4.31941 19.6692 3.91612 19.3273 3.58368C18.9854 3.25124 18.5706 3.08541 18.0829 3.08541C17.5952 3.08541 17.2044 3.25124 16.8625 3.58368C16.5205 3.91612 16.3499 4.31941 16.3499 4.79355V20.4285H19.8398V4.79278V4.79355Z" fill="#1D1D1B"/>
<path d="M55.1022 10.2498C55.1022 11.5305 54.6625 12.6142 53.7841 13.5002C54.6625 14.3862 55.1022 15.4614 55.1022 16.7266V25.2315C55.1022 26.2755 54.8051 27.1926 54.2117 27.9837C53.6175 28.7747 52.8575 29.3438 51.9302 29.6918C51.5234 29.8498 51.0357 29.9526 50.4663 30.0001H45.708C45.4149 29.9682 45.2692 29.8101 45.2692 29.5252V0.901675C45.2692 0.616725 45.4157 0.458679 45.708 0.426758H50.4663C50.7266 0.442329 50.9789 0.478142 51.2231 0.53342C51.4673 0.588697 51.7028 0.655653 51.931 0.735065C52.8583 1.08308 53.6191 1.6522 54.2125 2.44321C54.8059 3.23422 55.103 4.15136 55.103 5.1954V10.249L55.1022 10.2498ZM48.4403 11.9579H50.1733C50.6617 11.9579 51.0766 11.7921 51.4177 11.4596C51.7596 11.1272 51.9302 10.7239 51.9302 10.2498V5.19618C51.9302 4.73761 51.7596 4.3421 51.4177 4.00966C51.0758 3.67722 50.6609 3.51139 50.1733 3.51139H48.4403V11.9579ZM51.9302 16.7266C51.9302 16.268 51.7596 15.8725 51.4177 15.54C51.0758 15.2076 50.6609 15.0418 50.1733 15.0418H48.4403V26.9155H50.1733C50.6617 26.9155 51.0766 26.7497 51.4177 26.4172C51.7596 26.0848 51.9302 25.6893 51.9302 25.2307V16.7258V16.7266Z" fill="#1D1D1B"/>
<path d="M68.2312 0.427246V25.2312C68.2312 25.7847 68.1335 26.3149 67.9381 26.821C67.7427 27.327 67.4825 27.7856 67.1573 28.1975C66.7017 28.751 66.1443 29.1901 65.4861 29.514C64.827 29.8387 64.1071 30.0006 63.3263 30.0006C62.5455 30.0006 61.8216 29.8387 61.1546 29.514C60.4875 29.1901 59.9261 28.751 59.4705 28.1975C59.1454 27.7864 58.8851 27.3278 58.6897 26.821C58.4943 26.3149 58.3966 25.7847 58.3966 25.2312V0.427246H61.5694V25.2312C61.5694 25.6897 61.7399 26.0853 62.0819 26.4177C62.4238 26.7501 62.8386 26.916 63.3263 26.916C63.814 26.916 64.2048 26.7501 64.5467 26.4177C64.8887 26.0853 65.0592 25.6897 65.0592 25.2312V0.427246H68.232H68.2312Z" fill="#1D1D1B"/>
<path d="M77.6709 4.84014C77.6709 4.38157 77.5004 3.98607 77.1584 3.65362C76.8165 3.32118 76.4097 3.15535 75.938 3.15535C75.4663 3.15535 75.0355 3.32118 74.6936 3.65362C74.3516 3.98607 74.1811 4.38157 74.1811 4.84014V25.1837C74.1811 25.6587 74.3516 26.062 74.6936 26.3936C75.0355 26.7261 75.4503 26.8919 75.938 26.8919C76.4257 26.8919 76.8165 26.7261 77.1584 26.3936C77.5004 26.0612 77.6709 25.6579 77.6709 25.1837V19.9877C77.6709 19.6872 77.8255 19.5369 78.1346 19.5369H80.3552C80.4849 19.5369 80.5955 19.5766 80.6843 19.6552C80.774 19.7346 80.8269 19.8296 80.8429 19.9402V25.1837C80.8429 25.8478 80.7132 26.4691 80.4521 27.046C80.1919 27.6237 79.8379 28.1298 79.3903 28.5642C78.9426 28.9994 78.4221 29.3436 77.8287 29.5966C77.2345 29.8496 76.6043 29.9765 75.9372 29.9765C75.2702 29.9765 74.6111 29.8504 74.0097 29.5966C73.4075 29.3436 72.887 28.9994 72.4481 28.5642C72.0093 28.129 71.6593 27.623 71.3991 27.046C71.1388 26.4684 71.0083 25.8478 71.0083 25.1837V4.84014C71.0083 4.17603 71.138 3.55475 71.3991 2.97784C71.6593 2.40093 72.0093 1.89409 72.4481 1.45966C72.887 1.02445 73.4075 0.680327 74.0097 0.427297C74.6119 0.174267 75.2541 0.0473633 75.9372 0.0473633C76.6203 0.0473633 77.2345 0.174267 77.8287 0.427297C78.4229 0.680327 78.9434 1.02445 79.3903 1.45966C79.8379 1.89487 80.1919 2.40093 80.4521 2.97784C80.7124 3.55553 80.8429 4.17603 80.8429 4.84014V8.13809C80.8269 8.24865 80.774 8.34363 80.6843 8.42304C80.5947 8.50245 80.4849 8.54138 80.3552 8.54138H78.1346C77.8255 8.54138 77.6709 8.39112 77.6709 8.0906V4.84014Z" fill="#1D1D1B"/>
<path d="M93.8015 29.5965C93.7855 29.7071 93.7326 29.8021 93.643 29.8815C93.5533 29.9609 93.4436 29.9998 93.3138 29.9998H91.0932C90.7841 29.9998 90.6296 29.8496 90.6296 29.549V23.4639H87.1397V29.549C87.1397 29.6759 87.0908 29.7826 86.9931 29.869C86.8954 29.9562 86.7817 29.9998 86.6512 29.9998H84.4306C84.1215 29.9998 83.9669 29.8496 83.9669 29.549V0.878029C83.9669 0.577507 84.1215 0.427246 84.4306 0.427246H86.6512C86.7809 0.427246 86.8954 0.470845 86.9931 0.557265C87.0908 0.644463 87.1397 0.751124 87.1397 0.87725V20.3792H90.6296V0.878029C90.6296 0.577507 90.7841 0.427246 91.0932 0.427246H93.3138C93.6069 0.427246 93.7695 0.561936 93.8023 0.830537V29.5965H93.8015Z" fill="#1D1D1B"/>
<path d="M101.513 0C102.196 0 102.835 0.126126 103.429 0.379934C104.023 0.632964 104.543 0.973192 104.99 1.39984C105.438 1.82727 105.792 2.33332 106.052 2.91802C106.312 3.50349 106.443 4.12789 106.443 4.792V29.5734C106.41 29.8583 106.248 30 105.955 30H103.735C103.605 30 103.494 29.9525 103.406 29.8575C103.316 29.7625 103.271 29.652 103.271 29.5251V23.5115H99.7811V29.5251C99.7811 29.652 99.7322 29.7625 99.6345 29.8575C99.5368 29.9525 99.4231 30 99.2926 30H97.072C96.9423 30 96.8317 29.9525 96.7429 29.8575C96.6532 29.7625 96.6091 29.652 96.6091 29.5251V4.79278C96.6091 4.12867 96.7389 3.50349 96.9999 2.9188C97.2602 2.33332 97.6101 1.82727 98.049 1.40062C98.4878 0.97397 99.0051 0.633743 99.5985 0.380713C100.193 0.127683 100.831 0.000778553 101.514 0.000778553M103.271 4.79355C103.271 4.31941 103.1 3.91612 102.758 3.58368C102.417 3.25124 102.002 3.08541 101.514 3.08541C101.026 3.08541 100.636 3.25124 100.294 3.58368C99.9517 3.91612 99.7811 4.31941 99.7811 4.79355V20.4285H103.271V4.79278V4.79355Z" fill="#1D1D1B"/>
</g>
<defs>
<clipPath id="clip0_210_482">
<rect width="106.442" height="30" fill="white"/>
</clipPath>
</defs>
</svg>
