<svg width="133" height="30" viewBox="0 0 133 30" fill="none" xmlns="http://www.w3.org/2000/svg">
<path d="M55.424 22.0802H43.9783L58.5906 2.70924C58.909 2.28389 58.8206 1.6636 58.396 1.34459C58.2368 1.22053 58.0245 1.14964 57.8122 1.14964H36.6722C34.8147 1.14964 33.2933 2.6738 33.2933 4.53468C33.2933 6.39557 34.8147 7.91973 36.6722 7.91973H46.1719L31.5066 27.3084C31.1705 27.7338 31.2589 28.3363 31.6835 28.6731C31.8604 28.8149 32.0727 28.8857 32.285 28.868H55.4063C57.2638 28.7794 58.6967 27.1844 58.6083 25.3057C58.5198 23.5689 57.14 22.1865 55.4063 22.0979V22.0802H55.424ZM129.299 1.14964C127.442 1.14964 125.92 2.6738 125.92 4.53468V15.895L107.664 1.38003C107.257 1.0433 106.638 1.09647 106.302 1.52182C106.16 1.69904 106.089 1.91172 106.089 2.14211V25.483C106.089 27.3439 107.611 28.868 109.468 28.868C111.326 28.868 112.847 27.3616 112.847 25.483V14.1227L131.104 28.6553C131.528 28.9921 132.147 28.9212 132.483 28.4958C132.625 28.3186 132.696 28.1059 132.696 27.8933V4.53468C132.678 2.65607 131.174 1.14964 129.299 1.14964ZM80.9866 22.7182C73.2559 22.7182 67.4889 18.642 67.4889 14.9911C67.4889 11.3402 73.2736 7.26399 80.9866 7.26399C88.7173 7.26399 94.4844 11.3402 94.4844 14.9911C94.4844 18.642 88.735 22.7182 80.9866 22.7182ZM80.9866 0.493896C69.8063 0.493896 60.7311 6.98042 60.7311 14.9911C60.7311 23.0018 69.8063 29.4883 80.9866 29.4883C92.167 29.4883 101.242 23.0018 101.242 14.9911C101.242 6.98042 92.167 0.493896 80.9866 0.493896ZM14.4884 22.7359C10.225 22.7359 6.75773 19.28 6.75773 15.0088C6.75773 10.7376 10.2074 7.26399 14.4707 7.26399C18.7341 7.26399 22.2014 10.7199 22.2014 14.9911V15.0088C22.2014 19.2623 18.7518 22.7182 14.4884 22.7359ZM14.4884 0.493896C6.49237 0.493896 0.0176904 6.98042 0 14.9911C0 23.0018 6.47468 29.4883 14.4707 29.506C22.4668 29.506 28.9415 23.0195 28.9592 15.0088V14.9911C28.9415 6.98042 22.4668 0.493896 14.4884 0.493896Z" fill="#0E1D28"/>
</svg>
