<?xml version="1.0" encoding="UTF-8"?><!DOCTYPE svg PUBLIC "-//W3C//DTD SVG 1.1//EN" "http://www.w3.org/Graphics/SVG/1.1/DTD/svg11.dtd"><svg xmlns="http://www.w3.org/2000/svg" xmlns:xlink="http://www.w3.org/1999/xlink"><symbol id="ico-color-icon-bakin" viewBox="0 0 52 53">
    <path fill-rule="evenodd" clip-rule="evenodd" d="M4.777 21.68c-.576.301-1.186.35-1.838.152-.652-.2-1.136-.582-1.44-1.152-.31-.572-.363-1.19-.16-1.854.244-.803.869-1.401 1.624-1.586l.207.886c-.466.1-.83.453-.984.959-.13.43-.104.818.087 1.167.193.342.5.582.93.712.425.13.813.103 1.165-.074.353-.182.59-.49.723-.92.154-.507.047-1.016-.276-1.343l.666-.62c.523.575.71 1.413.464 2.223-.202.665-.592 1.147-1.168 1.45z" fill="#A5A090"/>
    <path fill-rule="evenodd" clip-rule="evenodd" d="M4.412 12.425l.76.429-.614 1.087 3.27 1.845-.448.795-3.27-1.845-.61 1.082-.76-.428 1.672-2.965z" fill="#A5A090"/>
    <path fill-rule="evenodd" clip-rule="evenodd" d="M7.244 8.896l.599-.688 1.614 3.248c.434.87.354 1.606-.237 2.213l-.643-.56c.361-.343.404-.674.235-1.093l-3.432-.983.6-.687 2.348.705-1.084-2.155z" fill="#A5A090"/>
    <path fill-rule="evenodd" clip-rule="evenodd" d="M13.059 8.776c.327-.236.512-.533.562-.895.044-.366-.056-.72-.308-1.067-.251-.349-.556-.554-.913-.621-.364-.073-.703.01-1.03.246l-.75.543 1.689 2.337.75-.543zm-2.2-3.044c.514-.372 1.075-.5 1.677-.388.608.107 1.101.428 1.485.959.383.53.533 1.099.444 1.71-.083.607-.38 1.099-.895 1.47l-1.49 1.077L9.369 6.81l1.49-1.077z" fill="#A5A090"/>
    <path fill-rule="evenodd" clip-rule="evenodd" d="M18.874 6.637l-1.072-2.611-.762 3.364-.642.264-1.758-4.28.845-.347 1.074 2.617.76-3.37.643-.264 1.756 4.281-.844.346z" fill="#A5A090"/>
    <path fill-rule="evenodd" clip-rule="evenodd" d="M22.965 3.18l-.222-1.35-.927.152c-.34.057-.57.403-.509.774.062.372.393.633.732.577l.926-.153zm.539-2.34l.753 4.566-.9.148-.261-1.585-.517.085-.788 1.759-1.01.167.837-1.868c-.615-.112-1.111-.6-1.21-1.207a1.48 1.48 0 01.266-1.143 1.484 1.484 0 011.004-.62L23.504.84z" fill="#A5A090"/>
    <path fill-rule="evenodd" clip-rule="evenodd" d="M29.807 4.85c.36.057.655-.117.712-.483.059-.365-.17-.616-.529-.673l-.848-.134-.184 1.155.849.135zm.317-1.998c.444.07.79.259 1.028.571.239.306.329.668.263 1.086-.068.425-.266.742-.589.964-.322.217-.709.29-1.153.22l-1.75-.278.725-4.571 2.874.455-.137.862-1.972-.312-.138.868.849.135z" fill="#A5A090"/>
    <path fill-rule="evenodd" clip-rule="evenodd" d="M33.82 5.036l1.183.46.093-1.992-1.276 1.532zm1.097 2.234l.043-.877-1.72-.667-.56.676-.917-.356 3.183-3.728L36 2.727l-.158 4.902-.925-.36z" fill="#A5A090"/>
    <path fill-rule="evenodd" clip-rule="evenodd" d="M39.658 10.156l-.87-.589-.155-2.722-1.215 1.796-.755-.51 2.592-3.834.756.512L38.866 6.5l2.46-.803.87.59-2.677.902.139 2.967z" fill="#A5A090"/>
    <path fill-rule="evenodd" clip-rule="evenodd" d="M42.21 12.76l2.062-1.926-3.416.478-.474-.507 3.38-3.159.624.667-2.067 1.93 3.42-.482.474.507-3.38 3.159-.622-.666z" fill="#A5A090"/>
    <path fill-rule="evenodd" clip-rule="evenodd" d="M48.96 14.501l.451.785-4.012 2.305-.45-.785 1.662-.955-.856-1.49-1.662.955-.455-.791 4.013-2.305.454.791-1.594.916.856 1.49 1.593-.916z" fill="#A5A090"/>
    <path fill-rule="evenodd" clip-rule="evenodd" d="M47.512 21.188l-.718.505.285.95 3.964-2.885-.325-1.083-4.895-.223.282.943.877.027.53 1.766zm.735-.517l-.365-1.215 1.993.065-1.628 1.15z" fill="#A5A090"/>
    <path fill-rule="evenodd" clip-rule="evenodd" d="M48.038 29.459c-.052.4.038.738.267 1.021.236.284.56.454.987.51.426.055.782-.025 1.078-.24.301-.214.474-.518.527-.918l.119-.917-2.858-.374-.12.918zm3.724.486c-.083.63-.374 1.125-.868 1.487-.494.369-1.066.507-1.715.423-.65-.085-1.166-.366-1.549-.85a2.103 2.103 0 01-.457-1.66l.238-1.822 4.589.6-.239 1.822z" fill="#A5A090"/>
    <path fill-rule="evenodd" clip-rule="evenodd" d="M45.695 34.918l2.645.989-1.95-2.847.243-.65 4.335 1.62-.32.856-2.65-.991 1.956 2.848-.244.65-4.334-1.62.32-.855z" fill="#A5A090"/>
    <path fill-rule="evenodd" clip-rule="evenodd" d="M44.308 40.056a1.243 1.243 0 01-.603-.932c-.053-.4.054-.809.317-1.229.456-.729 1.07-1.023 1.84-.884l-.041.902c-.455-.12-.814.029-1.07.438-.267.426-.22.776.088.968.309.193.643.082.898-.327l.306-.487.69.431-.232.37c-.243.387-.207.729.085.912.291.182.59.104.817-.26.211-.337.196-.673-.05-1.015l.791-.417c.39.61.385 1.24-.017 1.884-.243.387-.55.64-.911.756-.362.117-.719.065-1.061-.149a1.138 1.138 0 01-.566-.94c-.431.253-.86.242-1.281-.021z" fill="#A5A090"/>
    <path fill-rule="evenodd" clip-rule="evenodd" d="M43.116 42.043l-.876.918 1.806.847-.93-1.765zm-2.484.16l.795.374 1.274-1.334-.411-.776.68-.713 2.229 4.369-.78.817-4.472-2.02.685-.717z" fill="#A5A090"/>
    <path fill-rule="evenodd" clip-rule="evenodd" d="M37.151 44.834l1.57 2.346.08-3.449.575-.386 2.574 3.846-.758.507-1.573-2.351-.075 3.454-.577.386-2.574-3.846.758-.507z" fill="#A5A090"/>
    <path fill-rule="evenodd" clip-rule="evenodd" d="M34.621 51.111l-.845.327-1.666-4.318.844-.326.69 1.789 1.604-.62-.69-1.788.85-.328 1.667 4.316-.85.33-.662-1.715-1.604.619.662 1.715z" fill="#A5A090"/>
    <path fill-rule="evenodd" clip-rule="evenodd" d="M25.944 48.78c-.403-.003-.728.125-.982.387-.253.269-.382.611-.386 1.04-.005.43.118.775.366 1.042.248.273.572.409.974.413l.926.009.028-2.882-.926-.009zm-.036 3.754c-.635-.006-1.161-.236-1.58-.683-.425-.447-.631-.998-.625-1.652.006-.654.223-1.2.657-1.64a2.107 2.107 0 011.593-.65l1.837.017-.045 4.626-1.837-.018z" fill="#A5A090"/>
    <path fill-rule="evenodd" clip-rule="evenodd" d="M23.248 48.68c-.517-.201-.838-.017-1.034.833L21.6 52.18l-3.068-.707 1.04-4.51.883.204-.843 3.66 1.301.3.413-1.792c.18-.78.504-1.274.898-1.455.389-.182.767-.176 1.214-.025l-.19.824z" fill="#A5A090"/>
    <path fill-rule="evenodd" clip-rule="evenodd" d="M15.351 47.746l-.585 1.238.849.401c.311.147.699-.006.86-.347.16-.34.037-.743-.274-.89l-.85-.402zm-1.776 1.619l1.981-4.187.825.39-.687 1.454.472.224 1.65-.998.928.439-1.753 1.059c.442.443.572 1.126.308 1.683a1.484 1.484 0 01-.87.788c-.396.142-.79.124-1.179-.06l-1.675-.792z" fill="#A5A090"/>
    <path fill-rule="evenodd" clip-rule="evenodd" d="M10.07 41.9c-.276-.293-.595-.438-.96-.439-.37.004-.706.148-1.018.444-.313.295-.476.623-.496.986-.025.37.102.696.378.989l.637.673 2.095-1.98-.635-.672zm-2.73 2.58c-.436-.462-.635-1.001-.605-1.612.028-.617.282-1.148.757-1.598.476-.45 1.021-.673 1.638-.664.612.003 1.14.233 1.575.695l1.263 1.337-3.366 3.178-1.262-1.337z" fill="#A5A090"/>
    <path fill-rule="evenodd" clip-rule="evenodd" d="M7.465 38.583L6.442 36.92l.744-.457 1.5 2.439-3.943 2.425-1.482-2.41.743-.458 1.005 1.633.839-.516-.918-1.493.732-.45.918 1.492.885-.543z" fill="#A5A090"/>
    <path fill-rule="evenodd" clip-rule="evenodd" d="M6.093 36.28c-.113-.543-.442-.712-1.262-.413l-2.573.936-1.077-2.958 4.35-1.584.31.852-3.53 1.284.457 1.256 1.728-.629c.752-.274 1.344-.271 1.71-.038.364.226.565.547.683 1.004l-.796.29z" fill="#A5A090"/>
    <path fill-rule="evenodd" clip-rule="evenodd" d="M3.453 30.269L3.29 29.01l-1.793.873 1.956.386zm1.436-2.032l-.79.382.237 1.828.86.169.128.976-4.796-1.01-.145-1.121 4.378-2.207.128.983z" fill="#A5A090"/>
    <path fill-rule="evenodd" clip-rule="evenodd" d="M3.125 24.94a.867.867 0 11-1.733 0 .867.867 0 011.733 0z" fill="#A5A090"/>
    <path fill-rule="evenodd" clip-rule="evenodd" d="M50.577 24.955a.866.866 0 11-1.733.001.866.866 0 011.733 0z" fill="#A5A090"/>
    <path fill-rule="evenodd" clip-rule="evenodd" d="M39.271 32.597c-.865.864-2.059 1.355-3.363 1.36l-.005-.001-16.671.001c-2.71 0-7.753-2.137-7.753-7.727 0-5.284 4.437-7.775 7.605-7.775h3.097c1.09 0 1.82.802 1.82 1.788 0 .994-.822 1.703-1.82 1.703-.998 0-1.823-.003-2.952-.003-1.128 0-3.986 1.029-3.986 4.287s2.84 4.22 3.989 4.22l3.784-.004 1.035.003 11.697-.003c.838 0 1.366-.671 1.366-1.38 0-.651-.472-1.422-1.37-1.422l-7.846-.002c-.892.005-1.788-.892-1.79-1.79l-.003-5.602c-.002-.898.892-1.795 1.787-1.795h6.329c.993-.004 1.791.713 1.79 1.7a1.795 1.795 0 01-1.788 1.799l-4.407-.005v2.511l2.697.002 3.39-.002c1.308 0 2.504.54 3.37 1.412.862.866 1.4 2.032 1.4 3.342a4.776 4.776 0 01-1.402 3.383z" fill="#A5A090"/>
</symbol><symbol id="ico-color-logo" viewBox="0 0 214 213">
    <path d="M95.032 123.2c0 .092-.008.147-.027.166-.056.239-.213.359-.472.359h-2.416c-.26 0-.416-.119-.472-.359-.019-.019-.028-.074-.028-.166V95.078c0-.534-.184-.982-.556-1.34a1.845 1.845 0 00-1.332-.538c-.519 0-.962.179-1.333.538-.37.359-.554.807-.554 1.34V123.2c0 .331-.167.497-.5.497h-2.527l-.027-.028c-.204-.073-.314-.183-.333-.331-.019-.018-.028-.064-.028-.137v-28.15c0-.534-.187-.982-.56-1.34a1.864 1.864 0 00-1.342-.539c-.523 0-.993.18-1.356.538-.363.36-.546.808-.546 1.34v28.122c0 .331-.173.497-.523.497h-2.369c-.257 0-.415-.119-.468-.359-.037-.11-.055-.156-.055-.138V95.075c0-.57.084-1.112.25-1.628.166-.515.403-.984.708-1.407.305-.423.671-.8 1.096-1.131a5.17 5.17 0 011.389-.773c.61-.24 1.24-.36 1.888-.36.333 0 .657.033.971.098.315.064.63.152.944.262a4.84 4.84 0 011.694 1.076c.556-.515 1.12-.864 1.694-1.048.61-.239 1.24-.359 1.888-.359.333 0 .657.033.972.097.314.064.63.152.944.262a5.313 5.313 0 012.443 1.89c.63.874.943 1.89.943 3.05V123.2z" fill="#A50000"/>
    <path d="M59.768 101.34c0 1.452-.487 2.68-1.461 3.684.974 1.004 1.461 2.223 1.461 3.657v9.638c0 1.184-.33 2.223-.987 3.12a5.537 5.537 0 01-2.53 1.935c-.45.18-.99.296-1.622.35h-5.277c-.325-.036-.486-.215-.486-.538v-32.44c0-.323.162-.502.486-.539h5.275c.289.018.568.059.84.121.27.063.53.139.784.229a5.538 5.538 0 012.53 1.936c.658.896.986 1.936.986 3.119v5.727l.001.001zm-7.385 1.936h1.921c.542 0 1-.188 1.38-.565.379-.376.568-.833.568-1.371v-5.727c0-.52-.19-.968-.568-1.345a1.884 1.884 0 00-1.38-.565h-1.921v9.573zm3.869 5.405c0-.52-.19-.968-.568-1.345a1.883 1.883 0 00-1.38-.565h-1.921v13.457h1.921c.542 0 1-.188 1.38-.565a1.83 1.83 0 00.568-1.344v-9.638z" fill="#A50000"/>
    <path d="M68.912 89.724c.757 0 1.466.143 2.124.43a5.724 5.724 0 011.73 1.156 5.375 5.375 0 011.611 3.845v28.085c-.036.323-.217.484-.54.484h-2.462a.476.476 0 01-.365-.162.536.536 0 01-.15-.376v-6.816h-3.868v6.816a.513.513 0 01-.163.376.52.52 0 01-.379.162H63.99a.475.475 0 01-.365-.162.536.536 0 01-.15-.376v-28.03c0-.753.144-1.462.434-2.124a5.48 5.48 0 011.163-1.72 5.556 5.556 0 011.718-1.157 5.258 5.258 0 012.123-.431zm1.948 5.433c0-.538-.19-.995-.568-1.372a1.884 1.884 0 00-1.38-.564c-.54 0-.974.188-1.353.564a1.86 1.86 0 00-.568 1.372v17.719h3.869v-17.72z" fill="#A50000"/>
    <path d="M109.951 101.34c0 1.452-.487 2.68-1.461 3.684.974 1.004 1.461 2.223 1.461 3.657v9.638c0 1.184-.329 2.223-.987 3.12a5.543 5.543 0 01-2.529 1.935c-.451.18-.992.296-1.623.35h-5.275c-.325-.036-.487-.215-.487-.538v-32.44c0-.323.163-.502.487-.539h5.275c.288.018.568.059.839.121.271.063.532.139.785.229a5.539 5.539 0 012.529 1.936c.658.896.987 1.936.987 3.119v5.727l-.001.001zm-7.385 1.936h1.921c.541 0 1.001-.188 1.38-.565.379-.376.568-.833.568-1.371v-5.727c0-.52-.189-.968-.568-1.345a1.886 1.886 0 00-1.38-.565h-1.921v9.573zm3.869 5.405c0-.52-.189-.968-.568-1.345a1.885 1.885 0 00-1.38-.565h-1.921v13.457h1.921c.541 0 1.001-.188 1.38-.565a1.83 1.83 0 00.568-1.344v-9.638z" fill="#A50000"/>
    <path d="M124.506 90.208v28.111c0 .628-.109 1.229-.325 1.802a6 6 0 01-.866 1.56 5.549 5.549 0 01-1.852 1.492 5.25 5.25 0 01-2.395.552 5.326 5.326 0 01-2.407-.552 5.496 5.496 0 01-1.867-1.492 5.968 5.968 0 01-.866-1.56 5.068 5.068 0 01-.325-1.802v-28.11h3.518v28.11c0 .52.189.968.568 1.345.379.377.839.565 1.379.565.541 0 .974-.188 1.353-.565.379-.377.568-.825.568-1.345v-28.11h3.517z" fill="#A50000"/>
    <path d="M134.971 95.21c0-.52-.19-.968-.569-1.345a1.853 1.853 0 00-1.353-.565c-.522 0-1 .188-1.379.565a1.83 1.83 0 00-.568 1.345v23.056c0 .538.189.995.568 1.371.379.377.839.564 1.379.564.541 0 .974-.187 1.353-.564.379-.377.569-.834.569-1.371v-5.889c0-.341.171-.511.514-.511h2.461c.144 0 .267.045.365.134.1.09.158.198.176.323v5.943c0 .752-.144 1.456-.433 2.11a5.573 5.573 0 01-2.909 2.891 5.186 5.186 0 01-2.096.43c-.74 0-1.471-.143-2.137-.43a5.388 5.388 0 01-1.731-1.17 5.687 5.687 0 01-1.163-1.721 5.167 5.167 0 01-.434-2.11V95.21c0-.753.144-1.457.434-2.111a5.68 5.68 0 011.163-1.72 5.382 5.382 0 011.731-1.17 5.351 5.351 0 012.137-.431c.757 0 1.438.143 2.096.43a5.588 5.588 0 012.909 2.89c.288.656.433 1.359.433 2.112v3.737a.524.524 0 01-.176.323.523.523 0 01-.365.134h-2.461c-.343 0-.514-.17-.514-.51V95.21z" fill="#A50000"/>
    <path d="M152.853 123.267a.53.53 0 01-.176.323.524.524 0 01-.365.134h-2.462c-.342 0-.514-.17-.514-.511v-6.897h-3.869v6.897a.47.47 0 01-.162.363.546.546 0 01-.379.148h-2.462c-.343 0-.514-.17-.514-.511V90.719c0-.34.171-.51.514-.51h2.462c.144 0 .271.049.379.147.108.099.162.22.162.362v22.103h3.869V90.719c0-.34.172-.51.514-.51h2.462c.325 0 .505.152.541.456v32.602z" fill="#A50000"/>
    <path d="M161.402 89.724c.757 0 1.465.143 2.123.43a5.715 5.715 0 011.731 1.156 5.37 5.37 0 011.177 1.721 5.26 5.26 0 01.434 2.124v28.085c-.037.323-.217.484-.541.484h-2.462a.476.476 0 01-.365-.162.538.538 0 01-.149-.376v-6.816h-3.869v6.816a.514.514 0 01-.162.376.519.519 0 01-.379.162h-2.462a.476.476 0 01-.365-.162.537.537 0 01-.148-.376v-28.03c0-.753.144-1.462.433-2.124a5.495 5.495 0 011.163-1.72 5.571 5.571 0 011.718-1.157 5.261 5.261 0 012.124-.43m1.947 5.432c0-.538-.189-.995-.568-1.372a1.883 1.883 0 00-1.379-.564c-.541 0-.974.188-1.353.564a1.862 1.862 0 00-.569 1.372v17.719h3.869v-17.72z" fill="#A50000"/>
    <path d="M60.805 17.191l.264 5.212-.965.454-.72-15.774.826-.39 11.738 10.568-.965.454-3.872-3.506-6.306 2.982zm-.45-9.125l.408 8.157 5.636-2.665-6.044-5.492z" fill="#A50000"/>
    <path d="M70.638 12.465a18.077 18.077 0 01-1.1-3.404c-.22-1.075-.282-2.102-.18-3.088.102-.986.377-1.863.821-2.645.447-.778 1.115-1.46 2.007-2.038C73.08.71 74.171.282 75.465.006l.251.754c-2.42.555-4.031 1.59-4.83 3.116-.798 1.526-.86 3.526-.19 5.996a4.15 4.15 0 01.844-2.392c.527-.708 1.277-1.22 2.24-1.54 1.393-.462 2.674-.377 3.831.258 1.158.635 1.983 1.688 2.475 3.16.488 1.473.457 2.807-.09 4.01-.549 1.204-1.52 2.034-2.918 2.5-1.293.428-2.52.356-3.678-.216-1.158-.571-2.08-1.636-2.76-3.194v.007zm5.128-5.955a3.83 3.83 0 00-1.737.183c-.599.2-1.097.495-1.504.89-.404.392-.695.84-.86 1.334a4.552 4.552 0 00-.247 1.572 5.3 5.3 0 00.283 1.654c.184.548.44 1.052.764 1.497.323.445.706.813 1.139 1.11a3.4 3.4 0 001.492.555 3.828 3.828 0 001.737-.184 3.872 3.872 0 001.504-.889c.404-.392.691-.837.86-1.335a4.55 4.55 0 00.248-1.571 5.3 5.3 0 00-.283-1.654 5.413 5.413 0 00-.765-1.498 4.628 4.628 0 00-1.139-1.109 3.4 3.4 0 00-1.492-.555z" fill="#A50000"/>
    <path d="M84.584 12.202c-1.124-.768-1.84-1.9-2.148-3.409-.311-1.505-.094-2.834.64-3.976.735-1.141 1.85-1.87 3.344-2.178.76-.155 1.433-.21 2.035-.165a4.465 4.465 0 011.733.486l-.376.74c-.934-.438-2.01-.533-3.228-.283-1.241.255-2.152.867-2.725 1.845-.577.974-.74 2.09-.48 3.346.258 1.252.843 2.216 1.757 2.885.914.669 1.992.881 3.233.627 1.22-.25 2.174-.759 2.86-1.529l.637.533c-.4.477-.869.85-1.4 1.128-.53.277-1.181.49-1.937.642-1.501.308-2.814.077-3.935-.687l-.01-.005z" fill="#A50000"/>
    <path d="M94.637 10.357c-1.029-.887-1.612-2.098-1.748-3.628-.136-1.53.222-2.824 1.08-3.88.859-1.056 2.049-1.649 3.578-1.784 1.52-.132 2.793.242 3.825 1.133 1.035.888 1.619 2.099 1.755 3.629.135 1.53-.226 2.827-1.088 3.88-.858 1.055-2.048 1.648-3.574 1.78-1.526.131-2.8-.243-3.832-1.134l.004.004zm.059-6.982c-.684.9-.972 1.995-.858 3.265.114 1.27.586 2.297 1.417 3.069.83.771 1.88 1.1 3.14.99 1.259-.112 2.234-.618 2.922-1.522.684-.9.972-1.995.857-3.265-.113-1.277-.586-2.297-1.416-3.069-.835-.768-1.881-1.1-3.14-.99-1.26.112-2.234.618-2.922 1.522z" fill="#A50000"/>
    <path d="M106.974.806l7.726.26-.329 10.05-.935-.029.303-9.256-5.857-.195-.168 5.085a9.543 9.543 0 01-.172 1.563c-.098.46-.206.829-.332 1.11a2.412 2.412 0 01-.475.718 3.288 3.288 0 01-.501.437c-.142.092-.315.159-.522.2-.21.046-.35.067-.431.068-.081 0-.19-.002-.326-.015l-.071-.001.026-.795c.425.013.767-.104 1.028-.365.517-.505.802-1.49.85-2.962l.193-5.88-.007.007z" fill="#A50000"/>
    <path d="M116.952 11.272l1.647-9.918.919.154-.746 4.5 1.553.255c.149-.62.388-1.19.712-1.709a5.377 5.377 0 011.171-1.339 4.242 4.242 0 011.618-.801 4.702 4.702 0 011.973-.067c1.418.236 2.476.905 3.189 2.008.709 1.106.938 2.418.683 3.94-.251 1.525-.89 2.692-1.92 3.505-1.03.813-2.25 1.102-3.665.87-.92-.154-1.699-.507-2.337-1.064a4.484 4.484 0 01-1.34-2.016c-.258-.786-.331-1.635-.221-2.546l-1.553-.256-.77 4.637-.919-.154h.006zm5.764-7.36c-.831.714-1.353 1.702-1.561 2.96-.21 1.266-.036 2.364.523 3.31.556.943 1.408 1.509 2.549 1.704 1.148.19 2.139-.07 2.973-.78.834-.71 1.353-1.702 1.562-2.961.21-1.266.036-2.363-.524-3.31-.556-.943-1.411-1.512-2.559-1.702-1.142-.188-2.129.07-2.96.783l-.003-.004z" fill="#A50000"/>
    <path d="M133.041 4.856l.23-.76 8.252 2.473-.23.76-3.68-1.102-2.652 8.875-.896-.268 2.653-8.874-3.681-1.101.004-.003z" fill="#A50000"/>
    <path d="M149.916 14.715l1.717-4.039.859.366-3.929 9.252-.859-.366 1.905-4.488-6.273-2.67-1.906 4.49-.859-.367 3.929-9.252.859.366-1.717 4.039 6.274 2.67z" fill="#A50000"/>
    <path d="M152.427 20.867c-.334-1.318-.114-2.642.654-3.974.769-1.332 1.807-2.183 3.114-2.553 1.308-.37 2.621-.17 3.953.598 1.319.76 2.145 1.807 2.482 3.129.338 1.321.117 2.646-.651 3.978-.768 1.331-1.809 2.178-3.117 2.548-1.308.37-2.628.17-3.95-.594-1.325-.768-2.155-1.811-2.489-3.129l.004-.003zm4.06-5.673c-1.079.349-1.94 1.073-2.582 2.18-.642 1.108-.843 2.216-.604 3.324.24 1.11.907 1.977 2.005 2.615 1.094.635 2.184.782 3.263.433 1.083-.344 1.94-1.072 2.582-2.18.643-1.107.844-2.215.604-3.324-.239-1.109-.91-1.98-2.004-2.615-1.095-.634-2.185-.781-3.264-.433z" fill="#A50000"/>
    <path d="M175.391 31.69l2.846-3.336.713.605-6.522 7.652-.714-.605 3.163-3.711-5.19-4.425-3.162 3.71-.714-.605 6.523-7.652.713.606-2.846 3.337 5.19 4.425z" fill="#A50000"/>
    <path d="M184.195 35.166a7.696 7.696 0 00-1.374-1.145c-.551-.374-1.048-.615-1.485-.732l.264-.786c1.088.313 2.145 1.02 3.175 2.126.272.29.498.58.676.862.177.283.318.544.417.781.098.238.15.48.155.728.009.245 0 .466-.027.657a2.05 2.05 0 01-.202.618 5.865 5.865 0 01-.303.552 4.27 4.27 0 01-.405.518 9.188 9.188 0 01-.437.462l-.454.432-4.399 4.1-.637-.684 1.619-1.507c-.752.293-1.498.36-2.23.204-.736-.16-1.422-.578-2.065-1.27-.793-.852-1.225-1.716-1.288-2.592-.063-.876.279-1.66 1.023-2.356.354-.327.73-.553 1.134-.68.403-.127.8-.167 1.189-.12.389.048.788.163 1.202.355.415.184.804.415 1.17.682.366.267.732.572 1.102.924a16.3 16.3 0 011.824 2.008 9.59 9.59 0 00.392-.383c.093-.098.214-.224.361-.39.143-.162.249-.308.311-.438.061-.13.129-.284.193-.46a1.13 1.13 0 00.071-.528 3.788 3.788 0 00-.104-.566 2.15 2.15 0 00-.309-.652 6.326 6.326 0 00-.567-.708l.008-.012zm-7.311 1.674c-.525.486-.781 1.058-.769 1.716.012.658.331 1.314.946 1.978.421.45.879.778 1.381.977.501.198.986.278 1.456.237a4.21 4.21 0 001.336-.342c.421-.185.79-.43 1.108-.73l.954-.885c-.261-.35-.56-.7-.907-1.046a27.874 27.874 0 00-1.056-1.01 6.64 6.64 0 00-1.14-.838 6.4 6.4 0 00-1.163-.53 2.276 2.276 0 00-1.128-.066c-.38.077-.719.254-1.021.535l.003.004z" fill="#A50000"/>
    <path d="M188.539 40.341l.633-.477 5.169 6.896-.633.477-2.305-3.072-7.409 5.558-.561-.75 7.408-5.557-2.306-3.072.004-.003z" fill="#A50000"/>
    <path d="M189.129 57.362l6.474-8.766.549.918-5.813 7.675 9.515-1.48.548.916-13.958 1.998c-.866.124-1.541.137-2.031.049-.487-.091-.877-.308-1.166-.66a3.12 3.12 0 01-.453-.797c-.131-.32-.188-.608-.174-.864l.895-.085c.016.478.153.862.401 1.146.217.252.509.4.882.442.375.046.894.017 1.558-.081l2.776-.407-.003-.004z" fill="#A50000"/>
    <path d="M201.742 59.195l.384.85-2.12.956c.793-.016 1.553.2 2.276.641.723.44 1.273 1.08 1.645 1.908.604 1.34.65 2.62.135 3.84-.511 1.22-1.477 2.146-2.891 2.782-1.414.636-2.747.741-4 .314-1.251-.424-2.181-1.307-2.784-2.647-.375-.832-.489-1.668-.346-2.498a4.112 4.112 0 011.037-2.128l-6.992 3.142-.384-.85 14.04-6.31zm-6.999 6.61a3.82 3.82 0 00.364 1.709c.259.571.604 1.044 1.037 1.403.432.36.904.601 1.415.723a4.692 4.692 0 001.587.091 5.298 5.298 0 001.617-.448 5.54 5.54 0 001.413-.912c.408-.37.737-.785.987-1.245.249-.46.382-.973.398-1.539a3.835 3.835 0 00-.365-1.71c-.258-.571-.603-1.044-1.036-1.403-.433-.36-.905-.6-1.415-.723a4.696 4.696 0 00-1.588-.09c-.55.06-1.087.209-1.617.448a5.518 5.518 0 00-1.412.911c-.408.37-.737.785-.987 1.245-.25.46-.382.973-.398 1.54z" fill="#A50000"/>
    <path d="M207.643 75.631a8.044 8.044 0 00-.745-1.625c-.337-.574-.676-1.007-1.024-1.307l.577-.596c.844.748 1.495 1.844 1.947 3.289.12.378.2.737.241 1.07.041.333.051.627.038.883a2.127 2.127 0 01-.173.727c-.098.228-.199.42-.307.58-.107.16-.253.318-.448.471a7.296 7.296 0 01-.511.368 4.466 4.466 0 01-.589.292 7.424 7.424 0 01-.595.227c-.151.049-.35.116-.595.189l-5.738 1.795-.28-.894 2.112-.66c-.808-.06-1.507-.318-2.1-.778-.593-.46-1.03-1.139-1.313-2.037-.348-1.112-.362-2.077-.044-2.892.317-.815.964-1.378 1.939-1.683a2.919 2.919 0 011.317-.125c.42.061.795.195 1.122.404.328.21.64.488.933.837.293.35.547.723.764 1.12.212.4.414.834.596 1.308.183.473.337.92.46 1.333.122.413.23.832.323 1.263.216-.069.392-.125.518-.173.126-.048.289-.113.493-.197.201-.082.356-.172.472-.257.113-.088.24-.2.376-.332a1.14 1.14 0 00.293-.444c.059-.166.11-.35.149-.557.039-.207.04-.447.003-.72a5.72 5.72 0 00-.207-.882l-.004.003zm-7.318-1.65c-.686.217-1.162.621-1.432 1.216s-.27 1.326.002 2.195c.183.587.458 1.083.823 1.476.369.398.772.68 1.214.843.443.163.893.257 1.35.27.457.014.895-.046 1.32-.178l1.243-.388c-.085-.43-.205-.872-.364-1.332-.159-.46-.33-.919-.512-1.368a6.551 6.551 0 00-1.494-2.228 2.27 2.27 0 00-.988-.547 2.093 2.093 0 00-1.152.04l-.01.001z" fill="#A50000"/>
    <path d="M210.415 83.523l1.451 7.593L201.989 93l-.178-.918 9.098-1.74-1.102-5.757-4.995.954a9.057 9.057 0 01-1.562.174c-.467.006-.859-.02-1.158-.082a2.446 2.446 0 01-.806-.306 3.161 3.161 0 01-.535-.393 1.604 1.604 0 01-.31-.468 2.573 2.573 0 01-.162-.408 3.527 3.527 0 01-.057-.321c-.006-.033-.011-.054-.012-.072l.776-.149c.084.42.276.729.58.924.605.395 1.631.453 3.076.177l5.778-1.102-.005.01z" fill="#A50000"/>
    <path d="M212.337 94.856l.075.93-3.747.292.266 3.391c.043.52.012.986-.091 1.393-.102.408-.248.743-.437.991-.186.253-.42.468-.695.639a3.104 3.104 0 01-.811.378 4.86 4.86 0 01-1.693.143 3.277 3.277 0 01-.855-.224 2.479 2.479 0 01-.796-.51c-.227-.218-.427-.521-.591-.915a4.52 4.52 0 01-.313-1.404l-.344-4.325 10.026-.786.006.007zm-9.161 1.658l.266 3.391c.126 1.582.973 2.309 2.536 2.186 1.564-.124 2.288-.974 2.162-2.556l-.266-3.391-4.698.37z" fill="#A50000"/>
    <path d="M208.406 113.444l4.386.139-.029.935-10.051-.321.029-.935 4.871.156.211-6.812-4.87-.156.028-.935 10.051.321-.029.935-4.386-.139-.211 6.812z" fill="#A50000"/>
    <path d="M203.588 118.005c1.108-.786 2.423-1.067 3.939-.833 1.517.234 2.69.895 3.511 1.976.822 1.081 1.112 2.383.882 3.904-.232 1.503-.901 2.656-2.009 3.449-1.109.793-2.419 1.071-3.943.836-1.517-.234-2.689-.896-3.507-1.979-.821-1.088-1.115-2.387-.883-3.897.233-1.51.902-2.664 2.009-3.449l.001-.007zm6.762 1.726c-.715-.881-1.705-1.421-2.969-1.614-1.264-.193-2.369.019-3.313.645s-1.512 1.562-1.706 2.815c-.191 1.251.068 2.32.783 3.201.715.881 1.705 1.421 2.969 1.614 1.264.192 2.369-.019 3.313-.645s1.512-1.562 1.707-2.815c.19-1.251-.069-2.32-.784-3.201z" fill="#A50000"/>
    <path d="M198.503 127.363l3.561 2.441-.266 1.114-3.494-2.726.199-.829z" fill="#A50000"/>
    <path d="M202.412 140.269a17.91 17.91 0 013.306 1.362 10.098 10.098 0 012.47 1.86c.683.711 1.181 1.492 1.484 2.337.304.845.389 1.797.254 2.853-.135 1.056-.512 2.164-1.133 3.33l-.737-.298c1.142-2.203 1.39-4.103.743-5.699-.646-1.596-2.131-2.937-4.451-4.028a4.158 4.158 0 011.284 2.192c.195.86.107 1.76-.272 2.705-.549 1.362-1.44 2.28-2.672 2.755-1.233.474-2.57.421-4.01-.157s-2.44-1.469-3.001-2.666c-.56-1.197-.571-2.479-.021-3.841.509-1.261 1.354-2.15 2.539-2.669 1.188-.515 2.593-.527 4.221-.04l-.004.004zm1.232 7.763c.42-.379.747-.861.98-1.447a3.905 3.905 0 00.293-1.721 3.369 3.369 0 00-.461-1.52 4.556 4.556 0 00-1.04-1.207 5.61 5.61 0 00-1.444-.857 5.397 5.397 0 00-1.636-.386 4.73 4.73 0 00-1.581.15 3.36 3.36 0 00-1.386.777c-.42.379-.746.861-.98 1.447a3.919 3.919 0 00-.293 1.721c.038.562.192 1.071.462 1.521.266.452.612.854 1.039 1.206.423.355.907.636 1.445.857a5.39 5.39 0 001.636.386 4.736 4.736 0 001.581-.15 3.372 3.372 0 001.385-.777z" fill="#A50000"/>
    <path d="M191.439 153.634c-.705 1.276-.903 2.444-.595 3.512l-.838.279c-.357-1.243-.112-2.631.742-4.175.709-1.279 1.688-2.052 2.938-2.32 1.249-.268 2.56-.023 3.919.731 1.358.755 2.263 1.733 2.703 2.937.44 1.204.303 2.443-.405 3.722a4.704 4.704 0 01-1.183 1.43 4.387 4.387 0 01-1.602.821c-.599.167-1.281.179-2.044.04-.763-.139-1.559-.44-2.389-.898l4.084-7.384a5.654 5.654 0 00-1.505-.508 4.461 4.461 0 00-1.448-.018c-.471.073-.914.27-1.326.58-.411.309-.762.729-1.055 1.254l.004-.003zm6.025-.924l-3.606 6.525a5.638 5.638 0 001.522.513c.504.09.99.093 1.458.016a2.992 2.992 0 001.32-.58c.411-.31.758-.727 1.047-1.249.29-.529.462-1.048.503-1.558a2.955 2.955 0 00-.215-1.43 4.293 4.293 0 00-.794-1.223 5.792 5.792 0 00-1.239-1.011l.004-.003z" fill="#A50000"/>
    <path d="M188.492 159.266l.166.846a3.424 3.424 0 00-.82.39c-.628.379-1.212.95-1.746 1.714-.559.796-.82 1.53-.781 2.198.039.668.341 1.199.91 1.603.234.163.468.269.71.313.241.043.476.029.707-.045.231-.074.452-.178.666-.314.214-.136.437-.317.662-.544.229-.229.433-.458.619-.679.189-.224.387-.486.602-.781l.647.457c-1.33 2.011-1.475 3.383-.437 4.106.4.278.853.351 1.353.211.501-.14 1.02-.585 1.549-1.339.465-.66.745-1.37.847-2.124a3.61 3.61 0 00.05-.971l.852-.132c.053.324.044.689-.019 1.091-.117.878-.479 1.741-1.076 2.593-.644.92-1.335 1.499-2.073 1.737s-1.411.142-2.023-.285c-.503-.354-.805-.804-.908-1.353a3.15 3.15 0 01.152-1.66 4.309 4.309 0 01-.75.536 3.374 3.374 0 01-.834.333 2.112 2.112 0 01-.924.025 2.35 2.35 0 01-.918-.394c-.829-.585-1.255-1.321-1.264-2.208-.009-.886.334-1.829 1.034-2.83.678-.966 1.387-1.666 2.122-2.109.325-.204.633-.332.929-.388l-.004.003z" fill="#A50000"/>
    <path d="M179.74 169.42l10.348 3.43-.697.804-9.102-3.141 4.372 8.584-.698.804-6.242-12.65c-.389-.785-.611-1.422-.678-1.918-.064-.491.021-.928.264-1.308.148-.229.352-.458.615-.677.263-.218.52-.363.768-.432l.359.827c-.45.164-.773.411-.964.737-.172.279-.222.608-.15.973.075.369.26.853.564 1.459l1.248 2.515-.007-.007z" fill="#A50000"/>
    <path d="M181.943 181.93l-6.305 5.802-6.807-7.406.687-.632 6.271 6.825 4.934-4.533-6.271-6.825.687-.632 6.808 7.405-.004-.004z" fill="#A50000"/>
    <path d="M172.683 190.166l-.761.546-1.359-1.887c.174.776.117 1.563-.173 2.357-.287.798-.801 1.458-1.536 1.99-1.19.857-2.437 1.16-3.732.897-1.298-.261-2.395-1.019-3.305-2.276-.909-1.258-1.275-2.544-1.113-3.855.166-1.313.844-2.398 2.035-3.255.738-.535 1.534-.812 2.377-.836a4.053 4.053 0 012.288.592l-4.485-6.223.761-.546 9.003 12.496zm-7.881-5.539a3.84 3.84 0 00-1.601.694c-.51.368-.901.801-1.166 1.298a3.426 3.426 0 00-.422 1.532c-.018.524.06 1.048.233 1.574.169.522.423 1.022.764 1.497.341.476.734.873 1.178 1.199.443.325.915.566 1.419.719a3.37 3.37 0 001.588.084 3.814 3.814 0 001.601-.694c.51-.368.901-.8 1.166-1.297a3.39 3.39 0 00.422-1.533 4.511 4.511 0 00-.233-1.574 5.453 5.453 0 00-.764-1.497 5.338 5.338 0 00-1.177-1.198 4.69 4.69 0 00-1.42-.72 3.37 3.37 0 00-1.588-.084z" fill="#A50000"/>
    <path d="M153.491 191.456c-1.274.702-2.066 1.586-2.375 2.653l-.857-.21c.359-1.244 1.311-2.286 2.85-3.139 1.282-.708 2.522-.836 3.721-.397 1.199.439 2.176 1.341 2.932 2.707.752 1.362.992 2.672.724 3.92-.271 1.251-1.046 2.229-2.324 2.934a4.796 4.796 0 01-1.76.58 4.375 4.375 0 01-1.794-.162c-.596-.175-1.181-.529-1.749-1.053-.568-.524-1.086-1.201-1.542-2.033l7.39-4.071a5.64 5.64 0 00-1.004-1.234 4.345 4.345 0 00-1.214-.786 2.98 2.98 0 00-1.427-.216c-.513.043-1.035.212-1.564.501l-.007.006zm5.593 2.427l-6.528 3.598c.298.484.635.899 1.017 1.242a4.16 4.16 0 001.224.791c.44.185.915.253 1.428.21.513-.044 1.031-.21 1.553-.499.525-.293.945-.64 1.256-1.054.311-.414.502-.853.58-1.323.078-.47.07-.955-.021-1.456a5.79 5.79 0 00-.511-1.519l.002.01z" fill="#A50000"/>
    <path d="M143.145 206.602l-3.799-9.315.864-.35 1.768 4.336c-.048-1.297.715-2.266 2.289-2.907 2.564-1.046 4.351-.331 5.363 2.149l1.205 2.952-.864.35-1.206-2.952c-.389-.947-.911-1.589-1.572-1.927-.661-.338-1.536-.283-2.63.159-1.021.416-1.665.99-1.93 1.72-.265.73-.21 1.555.165 2.475l1.206 2.952-.865.35.006.008z" fill="#A50000"/>
    <path d="M130.911 205.676l1.174 4.229-.899.25-2.688-9.695.898-.25 1.304 4.7 6.568-1.822-1.304-4.7.898-.25 2.688 9.695-.898.25-1.174-4.228-6.567 1.821z" fill="#A50000"/>
    <path d="M125.117 202.423c1.081.827 1.733 1.997 1.962 3.517.228 1.52-.054 2.83-.844 3.933-.79 1.104-1.942 1.768-3.462 1.995-1.505.223-2.803-.076-3.888-.9-1.086-.824-1.741-1.997-1.97-3.518-.228-1.52.058-2.833.848-3.936.794-1.107 1.946-1.771 3.459-1.992 1.516-.225 2.813.074 3.891.897l.004.004zm.358 6.97c.629-.94.848-2.049.663-3.314-.189-1.268-.725-2.258-1.601-2.975-.877-.717-1.941-.984-3.196-.795-1.25.187-2.193.749-2.823 1.696-.629.939-.848 2.048-.662 3.313.185 1.264.725 2.258 1.601 2.975.876.717 1.941.985 3.195.795 1.25-.186 2.193-.749 2.823-1.695z" fill="#A50000"/>
    <path d="M98.996 212.614l.307-9.26-.934-.029.1-3.075.935.029-.079 2.284 9.002.306.079-2.284.935.03-.101 3.074-.945-.033c-1.012 1.245-1.744 3.153-2.193 5.72a24.749 24.749 0 00-.381 3.464l-6.731-.227.007.001zm8.157-8.995l-6.915-.236-.285 8.469 4.905.166a23.63 23.63 0 01.17-1.637c.085-.614.208-1.34.379-2.166.167-.83.402-1.655.7-2.487.301-.827.648-1.533 1.039-2.11l.007.001z" fill="#A50000"/>
    <path d="M94.312 212.11l-7.64-1.177 1.522-9.941.925.145-1.402 9.154 5.794.892.771-5.029c.091-.574.206-1.086.359-1.533.153-.447.305-.799.46-1.066.16-.263.345-.483.56-.658.215-.175.4-.301.55-.374.15-.074.335-.118.546-.139.21-.02.36-.023.44-.017.083.011.186.03.32.057l.07.009-.123.782c-.422-.066-.774.015-1.066.237-.575.438-.972 1.385-1.194 2.836l-.891 5.815v.007z" fill="#A50000"/>
    <path d="M78.266 198.435l.902.244-1.081 4 2.982.804 3.834-3.255 1.09.292-3.874 3.243c.837.225 1.418.67 1.747 1.331.33.661.38 1.408.155 2.245-.225.837-.646 1.456-1.26 1.861-.613.405-1.34.497-2.177.271l-4.933-1.334 2.616-9.709-.001.007zm-1.508 9.187l4.03 1.091c.582.155 1.07.081 1.467-.224.397-.304.68-.771.846-1.392.167-.622.159-1.163-.029-1.627-.187-.464-.569-.775-1.153-.934l-4.03-1.091-1.127 4.174-.004.003z" fill="#A50000"/>
    <path d="M67.184 204.297l-.328.722-7.835-3.579.327-.722 3.494 1.593 3.843-8.43.853.39-3.844 8.43 3.494 1.593-.004.003z" fill="#A50000"/>
    <path d="M56.792 188.591l4.59 2.736-5.146 8.638-4.59-2.736c-.849-.506-1.358-1.101-1.534-1.782-.17-.684-.07-1.342.31-1.973.24-.408.566-.714.971-.912.405-.198.876-.264 1.413-.188-.397-.419-.614-.897-.649-1.43a2.607 2.607 0 01.384-1.534 3.36 3.36 0 01.694-.84c.268-.228.574-.399.927-.511.352-.113.753-.131 1.204-.044.449.083.93.279 1.437.58l-.01-.004zm3.384 2.938l-3.787-2.257c-.651-.39-1.24-.514-1.767-.385-.524.134-.946.471-1.272 1.01-.315.529-.412 1.04-.29 1.524.12.484.475.905 1.057 1.254l3.962 2.36 2.09-3.507.007.001zm-2.494 4.188l-3.964-2.364c-.477-.287-.936-.375-1.382-.27-.447.104-.81.395-1.094.875-.292.487-.367.961-.228 1.412.14.451.487.846 1.04 1.175l3.787 2.257 1.838-3.089.003.004z" fill="#A50000"/>
    <path d="M50.589 186.068c.153 1.352-.239 2.634-1.18 3.85-.94 1.215-2.08 1.92-3.424 2.116-1.343.196-2.624-.179-3.84-1.12-1.207-.931-1.89-2.076-2.044-3.428-.157-1.356.235-2.639 1.176-3.854.941-1.216 2.081-1.92 3.428-2.113 1.346-.192 2.624.179 3.837 1.117s1.893 2.079 2.047 3.432zm-4.78 5.084c1.115-.2 2.067-.807 2.849-1.816.779-1.013 1.128-2.085 1.035-3.215-.088-1.133-.637-2.082-1.64-2.857-1.003-.775-2.059-1.062-3.18-.863-1.114.199-2.066.807-2.848 1.816s-1.128 2.085-1.038 3.211c.092 1.13.636 2.081 1.64 2.856 1.003.775 2.058 1.062 3.18.864l.003.004z" fill="#A50000"/>
    <path d="M39.238 175.544c-1.037-1.026-2.108-1.534-3.22-1.525l-.038-.883c1.292-.005 2.566.609 3.82 1.848 1.039 1.03 1.52 2.182 1.44 3.46-.081 1.278-.67 2.469-1.764 3.578-1.094 1.109-2.278 1.709-3.556 1.804-1.278.095-2.435-.371-3.475-1.401a4.714 4.714 0 01-1.057-1.525 4.45 4.45 0 01-.357-1.766c.001-.624.172-1.281.514-1.976.342-.696.845-1.379 1.509-2.057l6.005 5.939c.379-.423.679-.859.896-1.313a4.32 4.32 0 00.408-1.39 2.974 2.974 0 00-.197-1.431c-.188-.482-.497-.932-.922-1.355l-.006-.007zm-.737 6.052l-5.302-5.243a5.86 5.86 0 00-.905 1.326c-.225.46-.36.93-.413 1.4-.05.474.015.951.2 1.429.189.481.495.928.917 1.346.428.426.882.725 1.365.907.482.182.958.244 1.434.186a4.424 4.424 0 001.393-.431c.45-.227.89-.533 1.31-.92z" fill="#A50000"/>
    <path d="M27.03 176.428l-4.616-5.661.614-.5 4.027 4.939 7.176-5.854.593.725-7.79 6.355-.004-.004z" fill="#A50000"/>
    <path d="M27.36 162.62c-.302 1.325-1.104 2.406-2.394 3.24-1.29.834-2.601 1.119-3.935.854-1.333-.264-2.413-1.041-3.248-2.332-.826-1.279-1.092-2.582-.79-3.914.303-1.325 1.1-2.41 2.39-3.244 1.29-.834 2.602-1.119 3.939-.85 1.333.264 2.416 1.045 3.245 2.328.83 1.283 1.094 2.593.792 3.918zm-6.203 3.203c1.12.186 2.214-.073 3.289-.764 1.072-.695 1.755-1.589 2.047-2.686.292-1.097.094-2.176-.595-3.241-.69-1.064-1.592-1.686-2.712-1.872-1.12-.186-2.214.073-3.289.764-1.072.695-1.755 1.589-2.047 2.686-.292 1.097-.094 2.176.595 3.241.69 1.065 1.592 1.686 2.712 1.872z" fill="#A50000"/>
    <path d="M5.33 137.124l8.755-3.02-.302-.883 2.908-1.001.302.884-2.16.742 2.943 8.519 2.161-.742.302.884-2.908 1-.308-.891c-1.524-.5-3.57-.502-6.124-.005-1.14.214-2.267.511-3.37.884l-2.196-6.367-.003-.004zm11.32 4.406l-2.256-6.541-8.008 2.761 1.601 4.637c.455-.142.98-.283 1.586-.424a33.596 33.596 0 012.161-.422 17.143 17.143 0 012.572-.233c.883-.013 1.662.057 2.34.218l.004.004z" fill="#A50000"/>
    <path d="M12.674 130.577c-.757 1.129-1.89 1.852-3.391 2.166-1.506.318-2.83.114-3.98-.608-1.151-.722-1.88-1.838-2.199-3.344-.313-1.492-.094-2.802.667-3.934.755-1.132 1.887-1.855 3.393-2.173 1.506-.317 2.832-.11 3.979.615 1.15.73 1.883 1.842 2.2 3.338.315 1.495.093 2.809-.665 3.937l-.004.003zm-6.937.771c.978.575 2.092.728 3.344.464 1.253-.264 2.21-.856 2.875-1.774.665-.917.863-1.997.604-3.236-.26-1.238-.883-2.146-1.858-2.717-.978-.574-2.092-.727-3.345-.464-1.252.264-2.21.857-2.875 1.774-.665.918-.863 1.998-.603 3.236.259 1.238.883 2.147 1.858 2.717z" fill="#A50000"/>
    <path d="M1.714 119.47l-.668-7.703 10.018-.861.08.931-9.226.795.506 5.841 5.073-.437a9.272 9.272 0 011.575-.013c.472.04.852.107 1.144.199.292.092.549.219.775.388.22.167.385.315.493.444.108.13.194.295.264.498.071.203.107.345.118.424.012.079.016.189.021.323.003.036.007.058.005.072l-.788.069c-.036-.424-.198-.751-.481-.976-.563-.453-1.573-.618-3.041-.493l-5.858.503-.01-.004z" fill="#A50000"/>
    <path d="M.972 108.011l.147-7.303.792.016-.13 6.37 9.262.197-.022.935-10.053-.211.004-.004z" fill="#A50000"/>
    <path d="M10.173 97.7c-1.093.813-2.397 1.117-3.92.913-1.525-.203-2.708-.837-3.549-1.903-.84-1.066-1.163-2.36-.961-3.885.2-1.51.845-2.67 1.936-3.487 1.09-.816 2.4-1.118 3.924-.915 1.524.203 2.707.838 3.551 1.907.84 1.073 1.164 2.361.963 3.878-.202 1.518-.848 2.684-1.937 3.494l-.007-.001zm-6.797-1.585c.735.865 1.73 1.382 3.002 1.55 1.27.17 2.368-.067 3.303-.712.936-.645 1.481-1.594 1.648-2.851.166-1.257-.118-2.319-.85-3.18-.735-.866-1.73-1.382-3.001-1.551-1.27-.17-2.369.068-3.304.712-.931.642-1.48 1.595-1.647 2.852-.167 1.257.118 2.318.85 3.18z" fill="#A50000"/>
    <path d="M3.534 83.573l1.93-7.484 9.735 2.52-.233.906-8.97-2.32-1.463 5.671 4.93 1.274a8.715 8.715 0 011.49.513c.428.194.765.383 1.014.565.25.182.447.393.602.624.152.234.259.426.314.585.055.158.085.342.084.557a3.52 3.52 0 01-.029.438c-.02.078-.043.185-.087.314l-.015.068-.766-.199c.106-.41.061-.772-.13-1.081-.381-.615-1.281-1.105-2.704-1.476l-5.695-1.474h-.007z" fill="#A50000"/>
    <path d="M17.01 71.871c.528-1.357.562-2.542.114-3.563l.796-.39c.523 1.182.465 2.593-.172 4.237-.528 1.365-1.392 2.262-2.598 2.697-1.203.432-2.529.37-3.981-.192-1.453-.562-2.475-1.41-3.075-2.544-.597-1.132-.632-2.381-.104-3.746a4.751 4.751 0 01.974-1.575 4.422 4.422 0 011.476-1.03c.574-.248 1.246-.353 2.018-.316.775.035 1.602.224 2.489.568l-3.05 7.87a5.529 5.529 0 001.562.3 4.27 4.27 0 001.437-.181c.458-.138.87-.392 1.234-.753.365-.361.657-.823.874-1.39l.006.008zm-5.844 1.734l2.691-6.955a5.727 5.727 0 00-1.575-.301 4.416 4.416 0 00-1.447.177 3 3 0 00-1.227.753c-.365.362-.657.824-.87 1.38-.22.562-.313 1.101-.287 1.616.026.515.16.976.407 1.387.247.41.562.78.953 1.104.391.322.844.603 1.363.832l-.008.007z" fill="#A50000"/>
    <path d="M11.747 61.909l-.704-.368 3.984-7.633.703.368-1.774 3.404 8.216 4.288-.433.83-8.215-4.289-1.774 3.404-.003-.004z" fill="#A50000"/>
    <path d="M21.357 44.179l8.347 5.614-.52.773-7.177-4.826 3.532 10.242-.55.815-8.348-5.614.52-.773 7.177 4.826-3.536-10.239.555-.825v.007z" fill="#A50000"/>
    <path d="M36.241 41.903l-.605.713-3.16-2.685-2 2.353 1.314 4.856-.73.86-1.287-4.888c-.56.658-1.211.999-1.943 1.012-.736.016-1.436-.26-2.095-.82-.66-.56-1.046-1.207-1.152-1.936-.106-.729.123-1.424.683-2.083l3.308-3.894 7.667 6.512zm-7.664-5.287l-2.703 3.18c-.39.458-.53.931-.42 1.425.11.486.409.938.901 1.358.49.416.985.639 1.486.668.5.03.943-.185 1.333-.642l2.704-3.181-3.298-2.804-.003-.004z" fill="#A50000"/>
    <path d="M48.017 26.466a2.69 2.69 0 11-5.379 0 2.69 2.69 0 015.379 0z" fill="#A50000"/>
</symbol></svg>