<?xml version="1.0" encoding="UTF-8"?><!DOCTYPE svg PUBLIC "-//W3C//DTD SVG 1.1//EN" "http://www.w3.org/Graphics/SVG/1.1/DTD/svg11.dtd"><svg xmlns="http://www.w3.org/2000/svg" xmlns:xlink="http://www.w3.org/1999/xlink"><defs>
        <clipPath id="clip0_210_482">
            <path d="M0 0h106.442v30H0z"/>
        </clipPath>
    </defs><symbol id="ico-mono-logo-ozon" viewBox="0 0 133 30">
    <path d="M55.424 22.08H43.978L58.591 2.71a.985.985 0 00-.195-1.365.964.964 0 00-.584-.195h-21.14a3.393 3.393 0 00-3.379 3.385 3.393 3.393 0 003.38 3.385h9.499L31.507 27.308c-.337.426-.248 1.028.176 1.365a.85.85 0 00.602.195h23.121c1.858-.089 3.29-1.684 3.202-3.562a3.377 3.377 0 00-3.202-3.208v-.018h.018zm73.875-20.93a3.393 3.393 0 00-3.379 3.385v11.36L107.664 1.38a.96.96 0 00-1.362.142.974.974 0 00-.213.62v23.341a3.393 3.393 0 003.379 3.385 3.381 3.381 0 003.379-3.385v-11.36l18.257 14.532a.981.981 0 001.592-.762V4.535a3.397 3.397 0 00-3.397-3.385zM80.987 22.718c-7.731 0-13.498-4.076-13.498-7.727 0-3.65 5.785-7.727 13.498-7.727 7.73 0 13.497 4.076 13.497 7.727 0 3.651-5.749 7.727-13.497 7.727zm0-22.224C69.807.494 60.73 6.98 60.73 14.99c0 8.01 9.075 14.497 20.256 14.497 11.18 0 20.255-6.486 20.255-14.497 0-8.01-9.075-14.497-20.255-14.497zM14.488 22.736c-4.263 0-7.73-3.456-7.73-7.727 0-4.271 3.45-7.745 7.713-7.745s7.73 3.456 7.73 7.727v.018c0 4.253-3.45 7.71-7.713 7.727zm0-22.242C6.492.494.018 6.98 0 14.99c0 8.01 6.475 14.497 14.47 14.515 7.997 0 14.472-6.486 14.49-14.497v-.018C28.941 6.981 22.466.494 14.487.494z"/>
</symbol><symbol id="ico-mono-logo-wb" viewBox="0 0 187 22">
    <path d="M5.689 21.474L0 .504h3.731L8.102 16.61 12.786.502l3.479.002 4.7 16.192L25.355.508l3.732-.006-5.69 20.969-4.326-.005-4.544-15.66L9.979 21.47l-4.29.004z"/>
    <path d="M31.66.515h3.552v20.946H31.66V.515z"/>
    <path d="M42.807 18.175h8.647v3.286H39.328V.515h3.479v17.66z"/>
    <path d="M62.38.54c2.915 0 5.34 1.014 7.251 3.02 1.935 2.004 2.915 4.493 2.915 7.44 0 2.923-.98 5.412-2.915 7.441-1.91 2.005-4.336 3.02-7.251 3.02h-8.354V.515h8.354v.024zm0 17.66c2.009 0 3.65-.677 4.875-2.03 1.274-1.353 1.91-3.092 1.91-5.146 0-2.102-.636-3.793-1.91-5.146-1.25-1.353-2.89-2.029-4.875-2.029h-4.85v14.35h4.85z"/>
    <path d="M91.285 15.477c0 1.716-.611 3.143-1.86 4.279-1.25 1.136-2.72 1.716-4.533 1.716h-9.088V.515h8.427c1.74 0 3.208.58 4.409 1.668 1.225 1.112 1.813 2.49 1.813 4.133 0 1.837-.735 3.24-2.156 4.279 1.862.966 2.989 2.707 2.989 4.882zM79.308 3.754v5.511h4.948c1.544 0 2.72-1.208 2.72-2.755s-1.176-2.756-2.72-2.756h-4.948zm5.61 14.479c1.616 0 2.89-1.281 2.89-2.925s-1.274-2.925-2.89-2.925h-5.61v5.874h5.61v-.024z"/>
    <path d="M98.072 18.184h9.407v3.288H94.594V.515h12.738v3.287h-9.26v5.439h8.501v3.263h-8.501v5.68z"/>
    <path d="M122.716 21.472l-4.508-7.638h-4.116v7.638h-3.478V.515h8.5c1.911 0 3.528.653 4.827 1.982 1.322 1.281 2.008 2.877 2.008 4.762 0 2.659-1.69 5.1-4.213 6.067l4.825 8.146h-3.845zm-8.624-17.718v7.01h4.998c1.862 0 3.332-1.547 3.332-3.505 0-1.934-1.494-3.505-3.332-3.505h-4.998z"/>
    <path d="M141.308 21.471l-4.483-7.642h-4.115v7.642h-3.479V.503h8.501c1.911 0 3.527.653 4.826 1.983 1.322 1.282 2.009 2.878 2.009 4.765 0 2.66-1.691 5.103-4.214 6.07l4.826 8.15h-3.871zM132.71 3.744v7.013h4.997c1.862 0 3.332-1.547 3.332-3.506 0-1.935-1.494-3.507-3.332-3.507h-4.997z"/>
    <path d="M147.727.506h3.478v20.966h-3.478V.506z"/>
    <path d="M158.8 18.184h9.407v3.288h-12.886V.515h12.739v3.287h-9.26v5.439h8.5v3.263h-8.5v5.68z"/>
    <path d="M170.632 16.701l3.013-1.739c.857 2.368 2.597 3.527 5.266 3.527 2.646 0 3.945-1.111 3.945-2.754 0-.87-.368-1.498-1.053-1.933-.687-.459-1.96-.966-3.773-1.497-2.034-.604-3.038-.991-4.459-1.91-1.371-.965-2.058-2.343-2.058-4.227 0-1.86.662-3.31 2.009-4.397 1.323-1.111 2.94-1.643 4.826-1.643 3.406 0 6.026 1.74 7.399 4.615l-2.94 1.667c-.883-1.933-2.377-2.924-4.459-2.924-2.033 0-3.332 1.015-3.332 2.61 0 1.546 1.029 2.27 4.288 3.261.808.266 1.396.46 1.763.604.392.12.906.338 1.568.604.686.266 1.225.58 1.544.846 1.127.87 2.326 2.295 2.18 4.3 0 1.884-.686 3.406-2.082 4.518-1.373 1.111-3.185 1.643-5.438 1.643-4.116-.025-7.105-1.957-8.207-5.17z"/>
</symbol><symbol id="ico-mono-logo" viewBox="0 0 107 30">
    <g clip-path="url(#clip0_210_482)">
        <path d="M41.645 29.538c0 .08-.008.13-.025.146-.05.211-.192.317-.426.317h-2.18c-.233 0-.375-.105-.425-.317-.017-.016-.025-.065-.025-.146V4.724a1.56 1.56 0 00-.501-1.182 1.684 1.684 0 00-1.202-.475c-.468 0-.868.158-1.202.475-.334.317-.5.712-.5 1.182v24.814c0 .292-.151.438-.452.438h-2.279l-.024-.024c-.184-.065-.284-.162-.3-.292-.018-.016-.026-.057-.026-.122V4.7c0-.47-.169-.866-.505-1.182a1.702 1.702 0 00-1.21-.475c-.472 0-.896.158-1.224.475a1.582 1.582 0 00-.492 1.182v24.814c0 .291-.156.438-.472.438h-2.137c-.232 0-.374-.105-.422-.317-.034-.097-.05-.138-.05-.121V4.722c0-.503.076-.982.225-1.436a4.41 4.41 0 01.64-1.242c.275-.373.605-.706.988-.998.385-.292.802-.52 1.253-.682a4.724 4.724 0 011.703-.317c.3 0 .593.028.876.086.284.056.568.133.851.23.602.228 1.11.544 1.528.95.502-.454 1.01-.762 1.528-.924a4.725 4.725 0 011.703-.317c.3 0 .593.029.877.085.284.057.568.134.852.232a4.78 4.78 0 012.203 1.667c.568.771.852 1.668.852 2.691v24.79z"/>
        <path d="M9.835 10.25c0 1.28-.44 2.364-1.319 3.25.879.886 1.319 1.961 1.319 3.227v8.505c0 1.044-.298 1.96-.89 2.752a4.985 4.985 0 01-2.282 1.708c-.407.158-.895.26-1.464.308H.439C.146 29.968 0 29.81 0 29.525V.902C0 .617.147.459.439.427h4.758c.26.015.513.051.757.106.244.056.48.123.708.202a4.985 4.985 0 012.281 1.708c.595.791.89 1.708.89 2.752v5.054h.002zm-6.662 1.708h1.733c.488 0 .902-.166 1.244-.498.342-.333.513-.736.513-1.21V5.196c0-.458-.17-.854-.513-1.186a1.719 1.719 0 00-1.244-.499H3.173v8.447zm3.49 4.769c0-.459-.17-.854-.513-1.187a1.719 1.719 0 00-1.244-.498H3.173v11.874h1.733c.488 0 .902-.166 1.244-.499.342-.332.513-.728.513-1.186v-8.505z"/>
        <path d="M18.083 0a4.82 4.82 0 011.915.38A5.173 5.173 0 0121.56 1.4a4.74 4.74 0 011.062 1.518c.26.585.39 1.21.39 1.874v24.781c-.032.285-.195.427-.487.427h-2.22a.434.434 0 01-.33-.142.469.469 0 01-.134-.333v-6.013h-3.49v6.013a.45.45 0 01-.147.333.475.475 0 01-.342.142h-2.22a.433.433 0 01-.33-.142.468.468 0 01-.134-.333V4.793c0-.664.13-1.29.39-1.874.261-.586.611-1.092 1.05-1.518a5.021 5.021 0 011.55-1.02A4.834 4.834 0 0118.082 0m1.757 4.793c0-.475-.17-.878-.513-1.21a1.719 1.719 0 00-1.244-.499c-.488 0-.879.166-1.22.499a1.624 1.624 0 00-.513 1.21v15.634h3.49V4.793z"/>
        <path d="M55.102 10.25c0 1.28-.44 2.364-1.318 3.25.879.886 1.318 1.961 1.318 3.227v8.505c0 1.044-.297 1.96-.89 2.752a4.989 4.989 0 01-2.282 1.708c-.407.158-.894.26-1.464.308h-4.758c-.293-.032-.439-.19-.439-.475V.902c0-.285.147-.443.439-.475h4.758c.26.015.513.051.757.106.244.056.48.123.708.202a4.985 4.985 0 012.282 1.708c.593.791.89 1.708.89 2.752v5.054zm-6.662 1.708h1.733c.489 0 .904-.166 1.245-.498.342-.333.512-.736.512-1.21V5.196c0-.458-.17-.854-.512-1.186a1.719 1.719 0 00-1.245-.499H48.44v8.447zm3.49 4.769c0-.459-.17-.854-.512-1.187a1.719 1.719 0 00-1.245-.498H48.44v11.874h1.733c.489 0 .904-.166 1.245-.499.342-.332.512-.728.512-1.186v-8.505z"/>
        <path d="M68.231.427v24.804c0 .554-.097 1.084-.293 1.59a5.269 5.269 0 01-.78 1.377 4.992 4.992 0 01-1.672 1.316 4.82 4.82 0 01-2.16.487c-.78 0-1.504-.162-2.171-.487a4.953 4.953 0 01-1.684-1.316 5.246 5.246 0 01-.781-1.377 4.377 4.377 0 01-.293-1.59V.427h3.172v24.804c0 .459.17.854.513 1.187.342.332.757.498 1.244.498.488 0 .879-.166 1.22-.498.343-.333.513-.728.513-1.187V.427h3.173z"/>
        <path d="M77.67 4.84c0-.458-.17-.854-.512-1.186a1.69 1.69 0 00-1.22-.499c-.472 0-.903.166-1.244.499a1.598 1.598 0 00-.513 1.186v20.344c0 .475.17.878.513 1.21.341.332.756.498 1.244.498s.879-.166 1.22-.498c.342-.333.513-.736.513-1.21v-5.196c0-.3.154-.451.464-.451h2.22a.48.48 0 01.488.403v5.244c0 .664-.13 1.285-.39 1.862a4.898 4.898 0 01-1.063 1.518c-.447.435-.968.78-1.561 1.033a4.777 4.777 0 01-1.892.38 4.965 4.965 0 01-3.489-1.413 5.031 5.031 0 01-1.049-1.518 4.48 4.48 0 01-.39-1.862V4.84c0-.664.129-1.285.39-1.862.26-.577.61-1.084 1.05-1.518a4.87 4.87 0 011.56-1.033 4.924 4.924 0 011.928-.38 4.72 4.72 0 011.892.38A5.052 5.052 0 0179.39 1.46c.448.435.802.94 1.062 1.518.26.578.39 1.198.39 1.862v3.298a.478.478 0 01-.488.403h-2.22c-.308 0-.463-.15-.463-.45V4.84z"/>
        <path d="M93.802 29.596a.478.478 0 01-.488.403h-2.22c-.31 0-.464-.15-.464-.45v-6.085h-3.49v6.085a.41.41 0 01-.147.32.497.497 0 01-.342.13h-2.22c-.31 0-.464-.15-.464-.45V.878c0-.3.154-.45.464-.45h2.22c.13 0 .244.043.342.13a.413.413 0 01.147.32v19.501h3.49V.878c0-.3.154-.45.463-.45h2.22c.294 0 .456.134.49.403v28.765h-.001z"/>
        <path d="M101.513 0c.683 0 1.322.126 1.916.38a5.176 5.176 0 011.561 1.02c.448.427.802.933 1.062 1.518s.391 1.21.391 1.874v24.781c-.033.285-.195.427-.488.427h-2.22a.432.432 0 01-.329-.142.468.468 0 01-.135-.333v-6.013h-3.49v6.013a.45.45 0 01-.147.333.475.475 0 01-.341.142h-2.221a.434.434 0 01-.33-.142.468.468 0 01-.133-.333V4.793c0-.664.13-1.29.39-1.874.261-.586.611-1.092 1.05-1.518a5.029 5.029 0 011.55-1.02 4.838 4.838 0 011.915-.38m1.757 4.793c0-.475-.171-.878-.513-1.21a1.716 1.716 0 00-1.244-.499c-.488 0-.878.166-1.22.499a1.623 1.623 0 00-.513 1.21v15.634h3.49V4.793z"/>
    </g>
    
</symbol></svg>