<?xml version="1.0" encoding="UTF-8"?><!DOCTYPE svg PUBLIC "-//W3C//DTD SVG 1.1//EN" "http://www.w3.org/Graphics/SVG/1.1/DTD/svg11.dtd"><svg xmlns="http://www.w3.org/2000/svg" xmlns:xlink="http://www.w3.org/1999/xlink"><symbol id="ico-mono-logo-ozon" viewBox="0 0 133 30">
    <path d="M55.424 22.08H43.978L58.591 2.71a.985.985 0 00-.195-1.365.964.964 0 00-.584-.195h-21.14a3.393 3.393 0 00-3.379 3.385 3.393 3.393 0 003.38 3.385h9.499L31.507 27.308c-.337.426-.248 1.028.176 1.365a.85.85 0 00.602.195h23.121c1.858-.089 3.29-1.684 3.202-3.562a3.377 3.377 0 00-3.202-3.208v-.018h.018zm73.875-20.93a3.393 3.393 0 00-3.379 3.385v11.36L107.664 1.38a.96.96 0 00-1.362.142.974.974 0 00-.213.62v23.341a3.393 3.393 0 003.379 3.385 3.381 3.381 0 003.379-3.385v-11.36l18.257 14.532a.981.981 0 001.592-.762V4.535a3.397 3.397 0 00-3.397-3.385zM80.987 22.718c-7.731 0-13.498-4.076-13.498-7.727 0-3.65 5.785-7.727 13.498-7.727 7.73 0 13.497 4.076 13.497 7.727 0 3.651-5.749 7.727-13.497 7.727zm0-22.224C69.807.494 60.73 6.98 60.73 14.99c0 8.01 9.075 14.497 20.256 14.497 11.18 0 20.255-6.486 20.255-14.497 0-8.01-9.075-14.497-20.255-14.497zM14.488 22.736c-4.263 0-7.73-3.456-7.73-7.727 0-4.271 3.45-7.745 7.713-7.745s7.73 3.456 7.73 7.727v.018c0 4.253-3.45 7.71-7.713 7.727zm0-22.242C6.492.494.018 6.98 0 14.99c0 8.01 6.475 14.497 14.47 14.515 7.997 0 14.472-6.486 14.49-14.497v-.018C28.941 6.981 22.466.494 14.487.494z"/>
</symbol><symbol id="ico-mono-logo-wb" viewBox="0 0 187 22">
    <path d="M5.689 21.474L0 .504h3.731L8.102 16.61 12.786.502l3.479.002 4.7 16.192L25.355.508l3.732-.006-5.69 20.969-4.326-.005-4.544-15.66L9.979 21.47l-4.29.004z"/>
    <path d="M31.66.515h3.552v20.946H31.66V.515z"/>
    <path d="M42.807 18.175h8.647v3.286H39.328V.515h3.479v17.66z"/>
    <path d="M62.38.54c2.915 0 5.34 1.014 7.251 3.02 1.935 2.004 2.915 4.493 2.915 7.44 0 2.923-.98 5.412-2.915 7.441-1.91 2.005-4.336 3.02-7.251 3.02h-8.354V.515h8.354v.024zm0 17.66c2.009 0 3.65-.677 4.875-2.03 1.274-1.353 1.91-3.092 1.91-5.146 0-2.102-.636-3.793-1.91-5.146-1.25-1.353-2.89-2.029-4.875-2.029h-4.85v14.35h4.85z"/>
    <path d="M91.285 15.477c0 1.716-.611 3.143-1.86 4.279-1.25 1.136-2.72 1.716-4.533 1.716h-9.088V.515h8.427c1.74 0 3.208.58 4.409 1.668 1.225 1.112 1.813 2.49 1.813 4.133 0 1.837-.735 3.24-2.156 4.279 1.862.966 2.989 2.707 2.989 4.882zM79.308 3.754v5.511h4.948c1.544 0 2.72-1.208 2.72-2.755s-1.176-2.756-2.72-2.756h-4.948zm5.61 14.479c1.616 0 2.89-1.281 2.89-2.925s-1.274-2.925-2.89-2.925h-5.61v5.874h5.61v-.024z"/>
    <path d="M98.072 18.184h9.407v3.288H94.594V.515h12.738v3.287h-9.26v5.439h8.501v3.263h-8.501v5.68z"/>
    <path d="M122.716 21.472l-4.508-7.638h-4.116v7.638h-3.478V.515h8.5c1.911 0 3.528.653 4.827 1.982 1.322 1.281 2.008 2.877 2.008 4.762 0 2.659-1.69 5.1-4.213 6.067l4.825 8.146h-3.845zm-8.624-17.718v7.01h4.998c1.862 0 3.332-1.547 3.332-3.505 0-1.934-1.494-3.505-3.332-3.505h-4.998z"/>
    <path d="M141.308 21.471l-4.483-7.642h-4.115v7.642h-3.479V.503h8.501c1.911 0 3.527.653 4.826 1.983 1.322 1.282 2.009 2.878 2.009 4.765 0 2.66-1.691 5.103-4.214 6.07l4.826 8.15h-3.871zM132.71 3.744v7.013h4.997c1.862 0 3.332-1.547 3.332-3.506 0-1.935-1.494-3.507-3.332-3.507h-4.997z"/>
    <path d="M147.727.506h3.478v20.966h-3.478V.506z"/>
    <path d="M158.8 18.184h9.407v3.288h-12.886V.515h12.739v3.287h-9.26v5.439h8.5v3.263h-8.5v5.68z"/>
    <path d="M170.632 16.701l3.013-1.739c.857 2.368 2.597 3.527 5.266 3.527 2.646 0 3.945-1.111 3.945-2.754 0-.87-.368-1.498-1.053-1.933-.687-.459-1.96-.966-3.773-1.497-2.034-.604-3.038-.991-4.459-1.91-1.371-.965-2.058-2.343-2.058-4.227 0-1.86.662-3.31 2.009-4.397 1.323-1.111 2.94-1.643 4.826-1.643 3.406 0 6.026 1.74 7.399 4.615l-2.94 1.667c-.883-1.933-2.377-2.924-4.459-2.924-2.033 0-3.332 1.015-3.332 2.61 0 1.546 1.029 2.27 4.288 3.261.808.266 1.396.46 1.763.604.392.12.906.338 1.568.604.686.266 1.225.58 1.544.846 1.127.87 2.326 2.295 2.18 4.3 0 1.884-.686 3.406-2.082 4.518-1.373 1.111-3.185 1.643-5.438 1.643-4.116-.025-7.105-1.957-8.207-5.17z"/>
</symbol></svg>