<?xml version="1.0" encoding="UTF-8"?><!DOCTYPE svg PUBLIC "-//W3C//DTD SVG 1.1//EN" "http://www.w3.org/Graphics/SVG/1.1/DTD/svg11.dtd"><svg xmlns="http://www.w3.org/2000/svg" xmlns:xlink="http://www.w3.org/1999/xlink"><symbol id="ico-color-icon-bakin" viewBox="0 0 52 53">
    <path fill-rule="evenodd" clip-rule="evenodd" d="M4.777 21.68c-.576.301-1.186.35-1.838.152-.652-.2-1.136-.582-1.44-1.152-.31-.572-.363-1.19-.16-1.854.244-.803.869-1.401 1.624-1.586l.207.886c-.466.1-.83.453-.984.959-.13.43-.104.818.087 1.167.193.342.5.582.93.712.425.13.813.103 1.165-.074.353-.182.59-.49.723-.92.154-.507.047-1.016-.276-1.343l.666-.62c.523.575.71 1.413.464 2.223-.202.665-.592 1.147-1.168 1.45z" fill="#A5A090"/>
    <path fill-rule="evenodd" clip-rule="evenodd" d="M4.412 12.425l.76.429-.614 1.087 3.27 1.845-.448.795-3.27-1.845-.61 1.082-.76-.428 1.672-2.965z" fill="#A5A090"/>
    <path fill-rule="evenodd" clip-rule="evenodd" d="M7.244 8.896l.599-.688 1.614 3.248c.434.87.354 1.606-.237 2.213l-.643-.56c.361-.343.404-.674.235-1.093l-3.432-.983.6-.687 2.348.705-1.084-2.155z" fill="#A5A090"/>
    <path fill-rule="evenodd" clip-rule="evenodd" d="M13.059 8.776c.327-.236.512-.533.562-.895.044-.366-.056-.72-.308-1.067-.251-.349-.556-.554-.913-.621-.364-.073-.703.01-1.03.246l-.75.543 1.689 2.337.75-.543zm-2.2-3.044c.514-.372 1.075-.5 1.677-.388.608.107 1.101.428 1.485.959.383.53.533 1.099.444 1.71-.083.607-.38 1.099-.895 1.47l-1.49 1.077L9.369 6.81l1.49-1.077z" fill="#A5A090"/>
    <path fill-rule="evenodd" clip-rule="evenodd" d="M18.874 6.637l-1.072-2.611-.762 3.364-.642.264-1.758-4.28.845-.347 1.074 2.617.76-3.37.643-.264 1.756 4.281-.844.346z" fill="#A5A090"/>
    <path fill-rule="evenodd" clip-rule="evenodd" d="M22.965 3.18l-.222-1.35-.927.152c-.34.057-.57.403-.509.774.062.372.393.633.732.577l.926-.153zm.539-2.34l.753 4.566-.9.148-.261-1.585-.517.085-.788 1.759-1.01.167.837-1.868c-.615-.112-1.111-.6-1.21-1.207a1.48 1.48 0 01.266-1.143 1.484 1.484 0 011.004-.62L23.504.84z" fill="#A5A090"/>
    <path fill-rule="evenodd" clip-rule="evenodd" d="M29.807 4.85c.36.057.655-.117.712-.483.059-.365-.17-.616-.529-.673l-.848-.134-.184 1.155.849.135zm.317-1.998c.444.07.79.259 1.028.571.239.306.329.668.263 1.086-.068.425-.266.742-.589.964-.322.217-.709.29-1.153.22l-1.75-.278.725-4.571 2.874.455-.137.862-1.972-.312-.138.868.849.135z" fill="#A5A090"/>
    <path fill-rule="evenodd" clip-rule="evenodd" d="M33.82 5.036l1.183.46.093-1.992-1.276 1.532zm1.097 2.234l.043-.877-1.72-.667-.56.676-.917-.356 3.183-3.728L36 2.727l-.158 4.902-.925-.36z" fill="#A5A090"/>
    <path fill-rule="evenodd" clip-rule="evenodd" d="M39.658 10.156l-.87-.589-.155-2.722-1.215 1.796-.755-.51 2.592-3.834.756.512L38.866 6.5l2.46-.803.87.59-2.677.902.139 2.967z" fill="#A5A090"/>
    <path fill-rule="evenodd" clip-rule="evenodd" d="M42.21 12.76l2.062-1.926-3.416.478-.474-.507 3.38-3.159.624.667-2.067 1.93 3.42-.482.474.507-3.38 3.159-.622-.666z" fill="#A5A090"/>
    <path fill-rule="evenodd" clip-rule="evenodd" d="M48.96 14.501l.451.785-4.012 2.305-.45-.785 1.662-.955-.856-1.49-1.662.955-.455-.791 4.013-2.305.454.791-1.594.916.856 1.49 1.593-.916z" fill="#A5A090"/>
    <path fill-rule="evenodd" clip-rule="evenodd" d="M47.512 21.188l-.718.505.285.95 3.964-2.885-.325-1.083-4.895-.223.282.943.877.027.53 1.766zm.735-.517l-.365-1.215 1.993.065-1.628 1.15z" fill="#A5A090"/>
    <path fill-rule="evenodd" clip-rule="evenodd" d="M48.038 29.459c-.052.4.038.738.267 1.021.236.284.56.454.987.51.426.055.782-.025 1.078-.24.301-.214.474-.518.527-.918l.119-.917-2.858-.374-.12.918zm3.724.486c-.083.63-.374 1.125-.868 1.487-.494.369-1.066.507-1.715.423-.65-.085-1.166-.366-1.549-.85a2.103 2.103 0 01-.457-1.66l.238-1.822 4.589.6-.239 1.822z" fill="#A5A090"/>
    <path fill-rule="evenodd" clip-rule="evenodd" d="M45.695 34.918l2.645.989-1.95-2.847.243-.65 4.335 1.62-.32.856-2.65-.991 1.956 2.848-.244.65-4.334-1.62.32-.855z" fill="#A5A090"/>
    <path fill-rule="evenodd" clip-rule="evenodd" d="M44.308 40.056a1.243 1.243 0 01-.603-.932c-.053-.4.054-.809.317-1.229.456-.729 1.07-1.023 1.84-.884l-.041.902c-.455-.12-.814.029-1.07.438-.267.426-.22.776.088.968.309.193.643.082.898-.327l.306-.487.69.431-.232.37c-.243.387-.207.729.085.912.291.182.59.104.817-.26.211-.337.196-.673-.05-1.015l.791-.417c.39.61.385 1.24-.017 1.884-.243.387-.55.64-.911.756-.362.117-.719.065-1.061-.149a1.138 1.138 0 01-.566-.94c-.431.253-.86.242-1.281-.021z" fill="#A5A090"/>
    <path fill-rule="evenodd" clip-rule="evenodd" d="M43.116 42.043l-.876.918 1.806.847-.93-1.765zm-2.484.16l.795.374 1.274-1.334-.411-.776.68-.713 2.229 4.369-.78.817-4.472-2.02.685-.717z" fill="#A5A090"/>
    <path fill-rule="evenodd" clip-rule="evenodd" d="M37.151 44.834l1.57 2.346.08-3.449.575-.386 2.574 3.846-.758.507-1.573-2.351-.075 3.454-.577.386-2.574-3.846.758-.507z" fill="#A5A090"/>
    <path fill-rule="evenodd" clip-rule="evenodd" d="M34.621 51.111l-.845.327-1.666-4.318.844-.326.69 1.789 1.604-.62-.69-1.788.85-.328 1.667 4.316-.85.33-.662-1.715-1.604.619.662 1.715z" fill="#A5A090"/>
    <path fill-rule="evenodd" clip-rule="evenodd" d="M25.944 48.78c-.403-.003-.728.125-.982.387-.253.269-.382.611-.386 1.04-.005.43.118.775.366 1.042.248.273.572.409.974.413l.926.009.028-2.882-.926-.009zm-.036 3.754c-.635-.006-1.161-.236-1.58-.683-.425-.447-.631-.998-.625-1.652.006-.654.223-1.2.657-1.64a2.107 2.107 0 011.593-.65l1.837.017-.045 4.626-1.837-.018z" fill="#A5A090"/>
    <path fill-rule="evenodd" clip-rule="evenodd" d="M23.248 48.68c-.517-.201-.838-.017-1.034.833L21.6 52.18l-3.068-.707 1.04-4.51.883.204-.843 3.66 1.301.3.413-1.792c.18-.78.504-1.274.898-1.455.389-.182.767-.176 1.214-.025l-.19.824z" fill="#A5A090"/>
    <path fill-rule="evenodd" clip-rule="evenodd" d="M15.351 47.746l-.585 1.238.849.401c.311.147.699-.006.86-.347.16-.34.037-.743-.274-.89l-.85-.402zm-1.776 1.619l1.981-4.187.825.39-.687 1.454.472.224 1.65-.998.928.439-1.753 1.059c.442.443.572 1.126.308 1.683a1.484 1.484 0 01-.87.788c-.396.142-.79.124-1.179-.06l-1.675-.792z" fill="#A5A090"/>
    <path fill-rule="evenodd" clip-rule="evenodd" d="M10.07 41.9c-.276-.293-.595-.438-.96-.439-.37.004-.706.148-1.018.444-.313.295-.476.623-.496.986-.025.37.102.696.378.989l.637.673 2.095-1.98-.635-.672zm-2.73 2.58c-.436-.462-.635-1.001-.605-1.612.028-.617.282-1.148.757-1.598.476-.45 1.021-.673 1.638-.664.612.003 1.14.233 1.575.695l1.263 1.337-3.366 3.178-1.262-1.337z" fill="#A5A090"/>
    <path fill-rule="evenodd" clip-rule="evenodd" d="M7.465 38.583L6.442 36.92l.744-.457 1.5 2.439-3.943 2.425-1.482-2.41.743-.458 1.005 1.633.839-.516-.918-1.493.732-.45.918 1.492.885-.543z" fill="#A5A090"/>
    <path fill-rule="evenodd" clip-rule="evenodd" d="M6.093 36.28c-.113-.543-.442-.712-1.262-.413l-2.573.936-1.077-2.958 4.35-1.584.31.852-3.53 1.284.457 1.256 1.728-.629c.752-.274 1.344-.271 1.71-.038.364.226.565.547.683 1.004l-.796.29z" fill="#A5A090"/>
    <path fill-rule="evenodd" clip-rule="evenodd" d="M3.453 30.269L3.29 29.01l-1.793.873 1.956.386zm1.436-2.032l-.79.382.237 1.828.86.169.128.976-4.796-1.01-.145-1.121 4.378-2.207.128.983z" fill="#A5A090"/>
    <path fill-rule="evenodd" clip-rule="evenodd" d="M3.125 24.94a.867.867 0 11-1.733 0 .867.867 0 011.733 0z" fill="#A5A090"/>
    <path fill-rule="evenodd" clip-rule="evenodd" d="M50.577 24.955a.866.866 0 11-1.733.001.866.866 0 011.733 0z" fill="#A5A090"/>
    <path fill-rule="evenodd" clip-rule="evenodd" d="M39.271 32.597c-.865.864-2.059 1.355-3.363 1.36l-.005-.001-16.671.001c-2.71 0-7.753-2.137-7.753-7.727 0-5.284 4.437-7.775 7.605-7.775h3.097c1.09 0 1.82.802 1.82 1.788 0 .994-.822 1.703-1.82 1.703-.998 0-1.823-.003-2.952-.003-1.128 0-3.986 1.029-3.986 4.287s2.84 4.22 3.989 4.22l3.784-.004 1.035.003 11.697-.003c.838 0 1.366-.671 1.366-1.38 0-.651-.472-1.422-1.37-1.422l-7.846-.002c-.892.005-1.788-.892-1.79-1.79l-.003-5.602c-.002-.898.892-1.795 1.787-1.795h6.329c.993-.004 1.791.713 1.79 1.7a1.795 1.795 0 01-1.788 1.799l-4.407-.005v2.511l2.697.002 3.39-.002c1.308 0 2.504.54 3.37 1.412.862.866 1.4 2.032 1.4 3.342a4.776 4.776 0 01-1.402 3.383z" fill="#A5A090"/>
</symbol></svg>