<svg width="146" height="146" viewBox="0 0 146 146" fill="none" xmlns="http://www.w3.org/2000/svg">
<path d="M64.7605 84.5087C64.7605 84.5717 64.7544 84.6098 64.7415 84.6225C64.703 84.7865 64.5948 84.8689 64.4164 84.8689H62.7533C62.5749 84.8689 62.4667 84.7871 62.4282 84.6225C62.4153 84.6098 62.4092 84.5723 62.4092 84.5087V65.2178C62.4092 64.8516 62.2821 64.5441 62.0266 64.2984C61.7718 64.052 61.4662 63.9291 61.1092 63.9291C60.7523 63.9291 60.4467 64.052 60.1918 64.2984C59.937 64.5447 59.8098 64.8522 59.8098 65.2178V84.5087C59.8098 84.7357 59.6949 84.8495 59.4657 84.8495H57.7263L57.7073 84.8307C57.5674 84.7805 57.491 84.7048 57.4781 84.6037C57.4653 84.591 57.4592 84.5596 57.4592 84.5093V65.199C57.4592 64.8328 57.3302 64.5253 57.0735 64.2796C56.8168 64.0332 56.5094 63.9104 56.1494 63.9104C55.7894 63.9104 55.4661 64.0332 55.2161 64.2796C54.9661 64.5259 54.8402 64.8334 54.8402 65.199V84.49C54.8402 84.7169 54.721 84.8307 54.4802 84.8307H52.849C52.6723 84.8307 52.5635 84.749 52.5269 84.5844C52.5012 84.5087 52.489 84.4772 52.489 84.49V65.216C52.489 64.8249 52.5464 64.4527 52.6607 64.0992C52.7756 63.7457 52.9382 63.4237 53.1484 63.1338C53.3587 62.8439 53.6105 62.5848 53.9033 62.3578C54.1966 62.1308 54.5151 61.9541 54.8592 61.8276C55.2797 61.6636 55.713 61.5812 56.1592 61.5812C56.3884 61.5812 56.6115 61.603 56.8278 61.6478C57.0448 61.692 57.2612 61.7519 57.4775 61.8276C57.9365 62.0043 58.3246 62.2501 58.6437 62.566C59.0263 62.2125 59.4144 61.9729 59.8098 61.847C60.2303 61.6829 60.6637 61.6006 61.1098 61.6006C61.339 61.6006 61.5621 61.623 61.7791 61.6672C61.9954 61.7114 62.2124 61.7713 62.4288 61.847C63.117 62.1121 63.6774 62.5442 64.1108 63.1435C64.5441 63.7427 64.7605 64.44 64.7605 65.2353V84.5087Z" fill="#A52F2F"/>
<path d="M40.4821 69.5135C40.4821 70.5091 40.1466 71.3517 39.4761 72.0405C40.1466 72.7293 40.4821 73.5652 40.4821 74.5488V81.1609C40.4821 81.9726 40.2554 82.6856 39.8025 83.3006C39.3496 83.9155 38.7689 84.358 38.0612 84.6286C37.7507 84.7514 37.3785 84.8313 36.9439 84.8683H33.311C33.0873 84.8434 32.9761 84.7206 32.9761 84.499V62.2458C32.9761 62.0243 33.0879 61.9014 33.311 61.8766H36.9427C37.1413 61.8887 37.3339 61.9166 37.5203 61.9595C37.7067 62.0025 37.8864 62.0546 38.0606 62.1163C38.7683 62.3869 39.349 62.8293 39.8019 63.4443C40.2554 64.0593 40.4815 64.7723 40.4815 65.584V69.5129L40.4821 69.5135ZM35.3976 70.8414H36.7202C37.0931 70.8414 37.409 70.7125 37.67 70.4541C37.931 70.1956 38.0612 69.8821 38.0612 69.5135V65.5846C38.0612 65.2281 37.931 64.9206 37.67 64.6621C37.409 64.4037 37.0924 64.2747 36.7202 64.2747H35.3976V70.8414ZM38.0612 74.5488C38.0612 74.1923 37.931 73.8848 37.67 73.6264C37.409 73.3679 37.0924 73.239 36.7202 73.239H35.3976V82.4701H36.7202C37.0931 82.4701 37.409 82.3412 37.67 82.0827C37.931 81.8243 38.0612 81.5168 38.0612 81.1603V74.5488Z" fill="#A52F2F"/>
<path d="M46.7774 61.5449C47.2987 61.5449 47.7865 61.643 48.2394 61.8403C48.6929 62.037 49.0901 62.3015 49.4312 62.6332C49.7728 62.9655 50.043 63.359 50.2416 63.8135C50.4403 64.2687 50.5399 64.7541 50.5399 65.2704V84.5366C50.5148 84.7581 50.3908 84.8683 50.1677 84.8683H48.4728C48.3738 84.8683 48.2895 84.8313 48.2216 84.7575C48.1532 84.6837 48.119 84.5977 48.119 84.499V79.8238H45.4554V84.499C45.4554 84.5977 45.4181 84.6837 45.3435 84.7575C45.269 84.8313 45.1822 84.8683 45.0826 84.8683H43.3877C43.2881 84.8683 43.2044 84.8313 43.1365 84.7575C43.0681 84.6837 43.0338 84.5977 43.0338 84.499V65.271C43.0338 64.7547 43.1329 64.2687 43.3321 63.8141C43.5307 63.359 43.7978 62.9655 44.1328 62.6338C44.4677 62.3021 44.8619 62.0376 45.3154 61.8409C45.7683 61.6442 46.256 61.5449 46.7774 61.5449ZM48.1183 65.2716C48.1183 64.903 47.9882 64.5895 47.7272 64.331C47.4662 64.0726 47.1496 63.9437 46.7774 63.9437C46.4052 63.9437 46.1069 64.0726 45.8459 64.331C45.585 64.5895 45.4548 64.903 45.4548 65.2716V77.4269H48.1183V65.2716Z" fill="#A52F2F"/>
<path d="M75.0316 69.5135C75.0316 70.5091 74.696 71.3517 74.0255 72.0405C74.696 72.7293 75.0316 73.5652 75.0316 74.5488V81.1609C75.0316 81.9726 74.8048 82.6856 74.3519 83.3006C73.8984 83.9155 73.3184 84.358 72.6106 84.6286C72.3001 84.7514 71.9279 84.8313 71.4934 84.8683H67.8617C67.638 84.8434 67.5267 84.7206 67.5267 84.499V62.2458C67.5267 62.0243 67.6386 61.9014 67.8617 61.8766H71.4934C71.692 61.8887 71.8845 61.9166 72.0709 61.9595C72.2574 62.0025 72.437 62.0546 72.6112 62.1163C73.319 62.3869 73.8996 62.8293 74.3525 63.4443C74.8054 64.0593 75.0322 64.7723 75.0322 65.584V69.5129L75.0316 69.5135ZM69.9471 70.8414H71.2697C71.6425 70.8414 71.9591 70.7125 72.2195 70.4541C72.4804 70.1956 72.6106 69.8821 72.6106 69.5135V65.5846C72.6106 65.2281 72.4804 64.9206 72.2195 64.6621C71.9585 64.4037 71.6419 64.2747 71.2697 64.2747H69.9471V70.8414ZM72.6106 74.5488C72.6106 74.1923 72.4804 73.8848 72.2195 73.6264C71.9585 73.3679 71.6419 73.239 71.2697 73.239H69.9471V82.4701H71.2697C71.6425 82.4701 71.9591 82.3412 72.2195 82.0827C72.4804 81.8243 72.6106 81.5168 72.6106 81.1603V74.5488Z" fill="#A52F2F"/>
<path d="M85.052 61.8772V81.1609C85.052 81.5913 84.9775 82.0035 84.8283 82.3969C84.6792 82.7903 84.4806 83.1468 84.2324 83.467C83.8847 83.8974 83.4593 84.2388 82.9569 84.4906C82.4539 84.743 81.9044 84.8689 81.3085 84.8689C80.7126 84.8689 80.1601 84.743 79.6509 84.4906C79.1418 84.2388 78.7134 83.8974 78.3656 83.467C78.1175 83.1474 77.9188 82.7909 77.7697 82.3969C77.6206 82.0035 77.546 81.5913 77.546 81.1609V61.8772H79.9675V81.1609C79.9675 81.5174 80.0977 81.8249 80.3587 82.0834C80.6197 82.3418 80.9363 82.4707 81.3085 82.4707C81.6807 82.4707 81.979 82.3418 82.2399 82.0834C82.5009 81.8249 82.6311 81.5174 82.6311 81.1609V61.8772H85.052Z" fill="#A52F2F"/>
<path d="M92.2568 65.308C92.2568 64.9514 92.1266 64.644 91.8656 64.3855C91.6046 64.1271 91.2941 63.9981 90.9341 63.9981C90.5742 63.9981 90.2453 64.1271 89.9844 64.3855C89.7234 64.644 89.5932 64.9514 89.5932 65.308V81.124C89.5932 81.4932 89.7234 81.8067 89.9844 82.0646C90.2453 82.323 90.5619 82.452 90.9341 82.452C91.3064 82.452 91.6046 82.323 91.8656 82.0646C92.1266 81.8061 92.2568 81.4926 92.2568 81.124V77.0843C92.2568 76.8507 92.3747 76.7339 92.6106 76.7339H94.3055C94.4045 76.7339 94.4888 76.7647 94.5567 76.8259C94.6251 76.8876 94.6655 76.9615 94.6777 77.0474V81.124C94.6777 81.6403 94.5787 82.1233 94.3794 82.5718C94.1808 83.0209 93.9106 83.4144 93.569 83.7521C93.2273 84.0905 92.8301 84.358 92.3772 84.5547C91.9237 84.7514 91.4427 84.8501 90.9335 84.8501C90.4244 84.8501 89.9214 84.752 89.4624 84.5547C89.0028 84.358 88.6055 84.0905 88.2706 83.7521C87.9356 83.4138 87.6685 83.0203 87.4699 82.5718C87.2713 82.1227 87.1716 81.6403 87.1716 81.124V65.308C87.1716 64.7917 87.2707 64.3086 87.4699 63.8601C87.6685 63.4116 87.9356 63.0176 88.2706 62.6798C88.6055 62.3415 89.0028 62.0739 89.4624 61.8772C89.922 61.6805 90.4122 61.5818 90.9335 61.5818C91.4549 61.5818 91.9237 61.6805 92.3772 61.8772C92.8307 62.0739 93.2279 62.3415 93.569 62.6798C93.9106 63.0182 94.1808 63.4116 94.3794 63.8601C94.5781 64.3092 94.6777 64.7917 94.6777 65.308V67.8719C94.6655 67.9579 94.6251 68.0317 94.5567 68.0935C94.4882 68.1552 94.4045 68.1855 94.3055 68.1855H92.6106C92.3747 68.1855 92.2568 68.0687 92.2568 67.835V65.308Z" fill="#A52F2F"/>
<path d="M104.568 84.5547C104.556 84.6407 104.515 84.7145 104.447 84.7763C104.379 84.838 104.295 84.8683 104.196 84.8683H102.501C102.265 84.8683 102.147 84.7514 102.147 84.5178V79.7869H99.4835V84.5178C99.4835 84.6165 99.4462 84.6994 99.3716 84.7666C99.2971 84.8344 99.2103 84.8683 99.1107 84.8683H97.4158C97.1799 84.8683 97.062 84.7514 97.062 84.5178V62.2277C97.062 61.994 97.1799 61.8772 97.4158 61.8772H99.1107C99.2097 61.8772 99.2971 61.9111 99.3716 61.9783C99.4462 62.0461 99.4835 62.129 99.4835 62.2271V77.3888H102.147V62.2277C102.147 61.994 102.265 61.8772 102.501 61.8772H104.196C104.419 61.8772 104.544 61.9819 104.569 62.1908L104.568 84.5547Z" fill="#A52F2F"/>
<path d="M110.454 61.5449C110.975 61.5449 111.463 61.643 111.916 61.8403C112.369 62.037 112.767 62.3015 113.108 62.6332C113.449 62.9655 113.719 63.359 113.918 63.8135C114.117 64.2687 114.216 64.7541 114.216 65.2704V84.5366C114.191 84.7581 114.067 84.8683 113.844 84.8683H112.149C112.05 84.8683 111.966 84.8313 111.898 84.7575C111.83 84.6837 111.795 84.5977 111.795 84.499V79.8238H109.132V84.499C109.132 84.5977 109.094 84.6837 109.02 84.7575C108.945 84.8313 108.859 84.8683 108.759 84.8683H107.064C106.965 84.8683 106.881 84.8313 106.813 84.7575C106.744 84.6837 106.711 84.5977 106.711 84.499V65.271C106.711 64.7547 106.81 64.2687 107.009 63.8141C107.208 63.359 107.475 62.9655 107.81 62.6338C108.145 62.3021 108.54 62.0376 108.992 61.8409C109.446 61.6442 109.933 61.5455 110.454 61.5455M111.795 65.2716C111.795 64.903 111.665 64.5895 111.404 64.331C111.143 64.0726 110.827 63.9437 110.454 63.9437C110.082 63.9437 109.784 64.0726 109.523 64.331C109.262 64.5895 109.132 64.903 109.132 65.2716V77.4269H111.795V65.2716Z" fill="#A52F2F"/>
<path d="M41.1959 11.7889L41.3781 15.3639L40.7136 15.6754L40.2175 4.85476L40.7868 4.58743L48.8677 11.8365L48.2032 12.148L45.5373 9.74303L41.1959 11.7889ZM40.886 5.52885L41.1674 11.1247L45.0476 9.29635L40.886 5.52885Z" fill="#A50000"/>
<path d="M47.9661 8.54688C47.6137 7.72964 47.3638 6.94903 47.2082 6.21133C47.0573 5.47422 47.0143 4.76954 47.0844 4.09312C47.1545 3.4167 47.3442 2.8153 47.6499 2.2788C47.9577 1.74497 48.4177 1.27802 49.032 0.880616C49.6462 0.483209 50.3984 0.189667 51.2886 0L51.4613 0.517111C49.7949 0.89817 48.686 1.60827 48.1361 2.65485C47.5862 3.70144 47.5433 5.07334 48.0052 6.7679C48.0283 6.15838 48.2212 5.61062 48.586 5.12727C48.9487 4.64125 49.465 4.29005 50.1281 4.07041C51.0872 3.75357 51.969 3.81217 52.7661 4.24774C53.5633 4.68331 54.1312 5.4057 54.47 6.41491C54.806 7.42621 54.7847 8.34089 54.4074 9.1664C54.0301 9.9919 53.3609 10.5617 52.3992 10.8807C51.5085 11.1743 50.6644 11.1252 49.8668 10.7331C49.0693 10.341 48.4343 9.61051 47.9667 8.54211L47.9661 8.54688ZM51.4966 4.46155C51.1094 4.40973 50.7133 4.45121 50.3008 4.58752C49.8883 4.72382 49.5455 4.92665 49.2648 5.19754C48.9868 5.46634 48.7867 5.77363 48.6726 6.11314C48.5536 6.45206 48.4979 6.81075 48.5026 7.1913C48.5052 7.56918 48.5707 7.94984 48.6974 8.32583C48.8241 8.70183 49.0007 9.04757 49.2234 9.35293C49.4462 9.65829 49.7094 9.91047 50.0077 10.1137C50.3061 10.3169 50.6478 10.443 51.0349 10.4949C51.4221 10.5467 51.8182 10.5052 52.2307 10.3689C52.6431 10.2326 52.986 10.0298 53.2667 9.75888C53.5447 9.49008 53.7421 9.18488 53.8589 8.84328C53.9779 8.50436 54.0336 8.14567 54.0289 7.76512C54.0263 7.38724 53.9608 7.00659 53.8341 6.63059C53.7079 6.24983 53.5308 5.90885 53.3081 5.60349C53.0853 5.29813 52.8221 5.04595 52.5237 4.84275C52.2254 4.63955 51.8837 4.51338 51.4966 4.46155Z" fill="#A50000"/>
<path d="M57.5675 8.36637C56.7936 7.83924 56.3002 7.06297 56.0885 6.02803C55.874 4.99519 56.0237 4.08398 56.5294 3.30068C57.0351 2.51739 57.8027 2.01757 58.8315 1.80601C59.3545 1.70005 59.8182 1.66194 60.2322 1.69282C60.6441 1.72102 61.0434 1.83241 61.4255 2.0264L61.1669 2.53474C60.5234 2.23399 59.7833 2.16837 58.9439 2.34C58.0896 2.51465 57.4629 2.93475 57.068 3.60564C56.671 4.27385 56.5584 5.03952 56.7378 5.90111C56.9151 6.76004 57.3181 7.42125 57.9472 7.88C58.5764 8.33875 59.3189 8.48452 60.1732 8.30987C61.0126 8.13824 61.6695 7.78957 62.1418 7.26119L62.5807 7.62666C62.3053 7.95386 61.9827 8.20998 61.6171 8.40037C61.2515 8.59077 60.8037 8.73732 60.2835 8.84118C59.2498 9.05216 58.3461 8.89408 57.5744 8.36962L57.5675 8.36637Z" fill="#A50000"/>
<path d="M64.4882 7.10061C63.7801 6.49192 63.3783 5.66142 63.2849 4.6118C63.1915 3.56218 63.4379 2.6748 64.0287 1.95025C64.6196 1.22569 65.439 0.81929 66.4922 0.726858C67.538 0.63594 68.4151 0.892445 69.1253 1.50382C69.8382 2.1131 70.24 2.9436 70.3334 3.99322C70.4267 5.04284 70.1777 5.93231 69.5847 6.65419C68.9939 7.37874 68.1745 7.78514 67.124 7.87548C66.0734 7.96582 65.1962 7.70931 64.4861 7.09794L64.4882 7.10061ZM64.5289 2.31105C64.0579 2.92914 63.8598 3.67957 63.9384 4.55072C64.0171 5.42188 64.3418 6.12686 64.9138 6.65612C65.4858 7.18538 66.2089 7.41107 67.0756 7.33473C67.9422 7.25838 68.6135 6.91145 69.0872 6.29128C69.5583 5.67319 69.7564 4.92276 69.6778 4.05161C69.5997 3.17568 69.2743 2.47548 68.7023 1.94622C68.1277 1.41906 67.4073 1.19126 66.5406 1.2676C65.6739 1.34395 65.0027 1.69088 64.5289 2.31105Z" fill="#A50000"/>
<path d="M72.9819 0.548722L78.3012 0.727131L78.0749 7.62157L77.4313 7.60155L77.6399 1.25194L73.6073 1.11834L73.4916 4.6064C73.477 5.00639 73.4382 5.36472 73.3733 5.67874C73.3057 5.99485 73.2313 6.24721 73.1448 6.44C73.0582 6.63279 72.9505 6.79882 72.8177 6.93276C72.6848 7.06669 72.5703 7.16897 72.4728 7.23216C72.3752 7.29535 72.2555 7.34132 72.1135 7.37008C71.9689 7.40093 71.8724 7.41584 71.8165 7.41632C71.7605 7.41679 71.6855 7.41495 71.5918 7.406C71.57 7.40577 71.553 7.40613 71.5434 7.40496L71.5611 6.86013C71.8539 6.86904 72.0895 6.78873 72.2692 6.60965C72.6246 6.26313 72.8209 5.5875 72.8539 4.57742L72.9873 0.544532L72.9819 0.548722Z" fill="#A50000"/>
<path d="M79.852 7.72831L80.9854 0.924584L81.6186 1.03046L81.1048 4.11686L82.174 4.29259C82.2768 3.86699 82.441 3.47548 82.6639 3.12014C82.8869 2.76479 83.1551 2.45609 83.4703 2.20149C83.7881 1.94478 84.16 1.76242 84.584 1.65171C85.0127 1.54158 85.4639 1.52615 85.9424 1.606C86.9185 1.76802 87.6472 2.22674 88.1382 2.98335C88.6264 3.74205 88.7841 4.64216 88.6086 5.68577C88.4353 6.73206 87.9954 7.53303 87.2864 8.09077C86.5773 8.64851 85.7371 8.84666 84.7631 8.68732C84.1299 8.58144 83.5934 8.33965 83.1541 7.95719C82.717 7.57741 82.409 7.11407 82.2317 6.57462C82.0544 6.03518 82.0038 5.45301 82.0797 4.82813L81.0106 4.65239L80.4804 7.83361L79.8472 7.72772L79.852 7.72831ZM83.8202 2.6796C83.2481 3.16926 82.8889 3.84688 82.745 4.71039C82.6005 5.57868 82.7203 6.33139 83.1053 6.98074C83.4881 7.62742 84.0748 8.01567 84.8601 8.14969C85.6506 8.27951 86.333 8.10093 86.9071 7.61394C87.4813 7.12696 87.8385 6.44666 87.9823 5.58315C88.1268 4.71487 88.007 3.96216 87.622 3.3128C87.2392 2.66612 86.6504 2.27519 85.8598 2.14537C85.074 2.01612 84.3943 2.19261 83.8223 2.68227L83.8202 2.6796Z" fill="#A50000"/>
<path d="M90.9287 3.32679L91.0867 2.80625L96.768 4.50251L96.61 5.02305L94.0762 4.26783L92.2502 10.3558L91.6338 10.1721L93.4598 4.08411L90.926 3.32889L90.9287 3.32679Z" fill="#A50000"/>
<path d="M102.546 10.0903L103.728 7.31975L104.32 7.5706L101.615 13.9174L101.023 13.6665L102.335 10.5874L98.016 8.75634L96.7041 11.8354L96.1128 11.5846L98.8179 5.23782L99.4092 5.48867L98.227 8.25918L102.546 10.0903Z" fill="#A50000"/>
<path d="M104.275 14.3104C104.045 13.4063 104.197 12.4978 104.726 11.5842C105.255 10.6706 105.969 10.0869 106.87 9.83315C107.77 9.57937 108.674 9.71569 109.591 10.2433C110.499 10.7649 111.068 11.4825 111.3 12.3893C111.532 13.296 111.38 14.2045 110.851 15.1181C110.323 16.0317 109.606 16.6127 108.705 16.8665C107.805 17.1203 106.896 16.9834 105.986 16.4591C105.074 15.9321 104.503 15.2165 104.273 14.3125L104.275 14.3104ZM107.07 10.419C106.327 10.658 105.735 11.1549 105.293 11.9144C104.851 12.674 104.712 13.434 104.877 14.1947C105.042 14.9553 105.502 15.5507 106.257 15.9885C107.011 16.4236 107.761 16.5244 108.504 16.2854C109.249 16.0491 109.84 15.5496 110.282 14.79C110.724 14.0305 110.862 13.2704 110.697 12.5098C110.532 11.7492 110.071 11.151 109.317 10.7159C108.564 10.2808 107.814 10.18 107.07 10.419Z" fill="#A50000"/>
<path d="M120.085 21.735L122.044 19.446L122.535 19.8614L118.045 25.1106L117.554 24.6952L119.731 22.1495L116.158 19.1142L113.981 21.6598L113.49 21.2445L117.98 15.9953L118.471 16.4107L116.512 18.6997L120.085 21.735Z" fill="#A50000"/>
<path d="M126.147 24.1188C125.895 23.8487 125.582 23.588 125.2 23.3336C124.821 23.077 124.479 22.912 124.178 22.8319L124.36 22.2926C125.109 22.5068 125.837 22.9921 126.546 23.751C126.733 23.9504 126.889 24.1484 127.011 24.3423C127.133 24.5362 127.23 24.715 127.298 24.8781C127.366 25.0412 127.401 25.2077 127.405 25.3775C127.411 25.5453 127.405 25.697 127.387 25.8279C127.368 25.9588 127.322 26.0984 127.248 26.2515C127.173 26.4046 127.102 26.5291 127.039 26.6304C126.976 26.7316 126.881 26.8484 126.76 26.9862C126.637 27.1213 126.539 27.228 126.459 27.303C126.38 27.3781 126.275 27.4768 126.146 27.5991L123.118 30.4118L122.68 29.9423L123.794 28.9085C123.276 29.1095 122.763 29.1561 122.259 29.049C121.752 28.9391 121.28 28.6518 120.837 28.177C120.291 27.5928 119.994 27.0001 119.95 26.3994C119.907 25.7988 120.142 25.261 120.655 24.7834C120.898 24.5589 121.157 24.404 121.435 24.3167C121.713 24.2294 121.986 24.202 122.254 24.2345C122.522 24.267 122.796 24.3464 123.082 24.4778C123.367 24.6044 123.635 24.7627 123.887 24.9458C124.139 25.1289 124.391 25.3385 124.645 25.58C124.903 25.8194 125.127 26.0499 125.324 26.2674C125.524 26.4876 125.717 26.7168 125.901 26.957C126.016 26.85 126.107 26.7618 126.171 26.6945C126.235 26.6272 126.319 26.5406 126.42 26.427C126.518 26.3155 126.591 26.2155 126.634 26.1262C126.676 26.037 126.723 25.9313 126.767 25.8108C126.813 25.6882 126.828 25.5689 126.816 25.4488C126.804 25.3288 126.78 25.2001 126.744 25.0602C126.708 24.9202 126.638 24.7714 126.531 24.6132C126.426 24.4577 126.295 24.2966 126.141 24.1278L126.147 24.1188ZM121.113 25.2675C120.752 25.6012 120.575 25.9936 120.584 26.4448C120.592 26.896 120.812 27.3462 121.235 27.8017C121.525 28.1104 121.84 28.335 122.186 28.4713C122.531 28.6076 122.864 28.6626 123.188 28.6342C123.512 28.6057 123.818 28.5267 124.108 28.3997C124.398 28.2727 124.652 28.105 124.871 27.8993L125.528 27.2917C125.348 27.052 125.142 26.8116 124.903 26.5745C124.665 26.3375 124.426 26.1052 124.176 25.8813C123.927 25.6573 123.666 25.4636 123.391 25.3068C123.117 25.15 122.847 25.0278 122.59 24.9433C122.333 24.8637 122.073 24.8466 121.814 24.8975C121.552 24.9505 121.319 25.0722 121.111 25.2648L121.113 25.2675Z" fill="#A50000"/>
<path d="M129.137 27.6692L129.573 27.3421L133.132 32.0723L132.696 32.3994L131.109 30.2924L126.008 34.1049L125.622 33.5908L130.722 29.7783L129.135 27.6713L129.137 27.6692Z" fill="#A50000"/>
<path d="M129.544 39.3454L134.001 33.3323L134.378 33.9614L130.377 39.2262L136.927 38.2108L137.305 38.8399L127.695 40.2101C127.099 40.2951 126.634 40.3041 126.296 40.2437C125.962 40.1813 125.693 40.0326 125.494 39.7906C125.376 39.6455 125.272 39.4635 125.182 39.2444C125.092 39.0254 125.053 38.827 125.062 38.6515L125.679 38.5932C125.69 38.9213 125.784 39.1844 125.955 39.3794C126.104 39.5523 126.305 39.6542 126.561 39.6829C126.82 39.7143 127.177 39.6947 127.634 39.6268L129.546 39.3481L129.544 39.3454Z" fill="#A50000"/>
<path d="M138.227 40.6024L138.491 41.1863L137.032 41.8418C137.578 41.8305 138.101 41.9788 138.599 42.2812C139.096 42.5836 139.475 43.0217 139.732 43.5901C140.147 44.5093 140.179 45.3869 139.824 46.2248C139.472 47.0607 138.807 47.6964 137.834 48.1325C136.86 48.5686 135.943 48.6412 135.08 48.3477C134.219 48.0569 133.579 47.4515 133.163 46.5323C132.905 45.9612 132.827 45.3877 132.925 44.8188C133.026 44.2478 133.265 43.7637 133.639 43.359L128.825 45.5145L128.561 44.9306L138.227 40.6024ZM133.408 45.1365C133.398 45.5248 133.479 45.9147 133.659 46.3093C133.838 46.7012 134.075 47.0253 134.373 47.272C134.671 47.5187 134.996 47.684 135.347 47.7678C135.699 47.8516 136.064 47.8692 136.44 47.8302C136.819 47.7891 137.189 47.6863 137.553 47.5224C137.918 47.3586 138.243 47.1486 138.526 46.8974C138.807 46.6435 139.033 46.3588 139.205 46.0432C139.377 45.7277 139.468 45.3757 139.479 44.9874C139.49 44.599 139.409 44.2092 139.228 43.8146C139.05 43.4227 138.813 43.0986 138.515 42.8518C138.217 42.6051 137.892 42.4399 137.54 42.356C137.189 42.2722 136.824 42.2546 136.448 42.2936C136.069 42.3348 135.699 42.4376 135.334 42.6014C134.97 42.7653 134.645 42.9752 134.362 43.2265C134.081 43.4804 133.855 43.7651 133.683 44.0806C133.511 44.3962 133.419 44.7481 133.408 45.1365Z" fill="#A50000"/>
<path d="M142.29 51.8776C142.179 51.5278 142.008 51.1561 141.777 50.7625C141.545 50.369 141.312 50.072 141.072 49.8662L141.469 49.457C142.05 49.9704 142.498 50.7218 142.81 51.7132C142.893 51.9725 142.948 52.2188 142.976 52.4473C143.004 52.6758 143.011 52.8775 143.002 53.0531C142.992 53.2287 142.95 53.3954 142.883 53.5518C142.815 53.7081 142.746 53.8401 142.672 53.9497C142.597 54.0593 142.497 54.1681 142.363 54.2728C142.228 54.3775 142.112 54.4602 142.011 54.5255C141.909 54.5881 141.775 54.654 141.606 54.7255C141.437 54.797 141.299 54.8481 141.196 54.8815C141.092 54.9149 140.955 54.9612 140.786 55.0109L136.835 56.2426L136.643 55.6287L138.097 55.1759C137.541 55.135 137.06 54.958 136.651 54.6422C136.243 54.3264 135.942 53.8616 135.748 53.245C135.508 52.4825 135.498 51.8207 135.717 51.2615C135.935 50.7023 136.381 50.3159 137.052 50.1069C137.368 50.0073 137.67 49.9786 137.959 50.0209C138.248 50.0632 138.506 50.1551 138.731 50.2986C138.957 50.4421 139.172 50.6328 139.373 50.8726C139.575 51.1125 139.75 51.3685 139.899 51.6408C140.046 51.9151 140.184 52.2127 140.31 52.5377C140.436 52.8627 140.542 53.1685 140.626 53.4522C140.711 53.7359 140.785 54.0233 140.849 54.319C140.998 54.2718 141.119 54.2332 141.206 54.2002C141.292 54.1671 141.404 54.1227 141.545 54.0647C141.683 54.0088 141.79 53.9468 141.87 53.8887C141.948 53.828 142.035 53.7514 142.129 53.6611C142.222 53.5708 142.29 53.4702 142.331 53.3565C142.371 53.2428 142.406 53.1164 142.433 52.9744C142.46 52.8325 142.461 52.668 142.435 52.4809C142.409 52.2938 142.36 52.0943 142.292 51.8755L142.29 51.8776ZM137.251 50.7458C136.779 50.8942 136.451 51.1715 136.266 51.5798C136.08 51.9881 136.08 52.4891 136.267 53.0854C136.393 53.4879 136.583 53.8279 136.834 54.098C137.087 54.3708 137.365 54.5643 137.67 54.6762C137.974 54.7882 138.285 54.8525 138.599 54.8617C138.914 54.8708 139.215 54.8299 139.508 54.7396L140.364 54.4731C140.305 54.178 140.223 53.8752 140.113 53.5593C140.003 53.2435 139.886 52.9291 139.761 52.6211C139.635 52.313 139.481 52.028 139.299 51.7639C139.119 51.5026 138.93 51.2787 138.732 51.0925C138.536 50.909 138.308 50.7845 138.051 50.7171C137.792 50.6517 137.531 50.6612 137.259 50.7443L137.251 50.7458Z" fill="#A50000"/>
<path d="M144.199 57.291L145.197 62.4996L138.397 63.7921L138.275 63.1624L144.538 61.9694L143.78 58.0195L140.341 58.6743C139.946 58.7498 139.586 58.7885 139.265 58.7931C138.944 58.7977 138.674 58.7794 138.468 58.7375C138.262 58.6955 138.073 58.6267 137.913 58.5273C137.753 58.428 137.625 58.3375 137.545 58.2576C137.463 58.175 137.393 58.0697 137.331 57.9364C137.27 57.8031 137.233 57.7114 137.22 57.6566C137.207 57.6018 137.194 57.5301 137.181 57.4365C137.176 57.4142 137.173 57.3993 137.172 57.3871L137.707 57.285C137.764 57.5727 137.896 57.7847 138.106 57.9191C138.522 58.1899 139.229 58.2296 140.224 58.0405L144.202 57.2841L144.199 57.291Z" fill="#A50000"/>
<path d="M145.522 65.0656L145.573 65.7035L142.993 65.9036L143.177 68.2299C143.206 68.5869 143.184 68.9061 143.114 69.1856C143.044 69.465 142.943 69.6948 142.813 69.8654C142.685 70.0387 142.524 70.1861 142.334 70.3035C142.147 70.4236 141.96 70.5097 141.776 70.5625C141.592 70.6152 141.401 70.6477 141.193 70.6635C140.989 70.68 140.793 70.6779 140.61 70.6606C140.426 70.6406 140.23 70.5903 140.022 70.5069C139.813 70.4235 139.631 70.307 139.474 70.1573C139.317 70.0076 139.18 69.7997 139.067 69.5295C138.954 69.2592 138.879 68.9379 138.851 68.5666L138.615 65.5997L145.518 65.0603L145.522 65.0656ZM139.214 66.2025L139.398 68.5289C139.484 69.614 140.067 70.1131 141.144 70.0283C142.22 69.9436 142.719 69.3603 142.632 68.2752L142.449 65.9488L139.214 66.2025Z" fill="#A50000"/>
<path d="M142.815 77.8162L145.835 77.9116L145.815 78.553L138.895 78.3328L138.915 77.6914L142.268 77.7983L142.414 73.1255L139.061 73.0187L139.08 72.3773L146 72.5974L145.98 73.2388L142.961 73.1434L142.815 77.8162Z" fill="#A50000"/>
<path d="M139.498 80.9448C140.261 80.4057 141.166 80.213 142.21 80.3736C143.255 80.5342 144.062 80.9879 144.627 81.7294C145.193 82.4709 145.393 83.364 145.234 84.4072C145.075 85.4383 144.614 86.2295 143.851 86.7734C143.088 87.3173 142.186 87.5079 141.136 87.3467C140.092 87.1861 139.285 86.7324 138.722 85.9888C138.157 85.2426 137.955 84.3516 138.114 83.3157C138.274 82.2799 138.735 81.4887 139.498 80.9496L139.498 80.9448ZM144.154 82.1293C143.661 81.525 142.98 81.1544 142.11 81.0221C141.239 80.8899 140.478 81.0347 139.829 81.4641C139.179 81.8935 138.787 82.5358 138.654 83.3957C138.523 84.2535 138.701 84.9867 139.193 85.591C139.686 86.1953 140.367 86.5659 141.237 86.6982C142.108 86.8305 142.868 86.6856 143.518 86.2562C144.168 85.8268 144.559 85.1845 144.693 84.3246C144.824 83.4668 144.646 82.7337 144.154 82.1293Z" fill="#A50000"/>
<path d="M135.997 87.3644L138.449 89.039L138.266 89.8034L135.86 87.9335L135.997 87.3644Z" fill="#A50000"/>
<path d="M138.688 96.2175C139.543 96.4785 140.301 96.7932 140.965 97.152C141.63 97.5135 142.195 97.9403 142.665 98.4281C143.135 98.916 143.478 99.4513 143.687 100.031C143.896 100.61 143.955 101.264 143.862 101.988C143.769 102.713 143.509 103.473 143.081 104.273L142.574 104.068C143.36 102.557 143.531 101.254 143.086 100.159C142.641 99.0642 141.619 98.1438 140.022 97.3958C140.474 97.8065 140.768 98.3069 140.905 98.8995C141.04 99.4894 140.979 100.106 140.718 100.755C140.34 101.689 139.727 102.319 138.878 102.644C138.03 102.97 137.109 102.933 136.117 102.537C135.126 102.141 134.438 101.53 134.052 100.708C133.666 99.887 133.659 99.0076 134.037 98.0733C134.388 97.2082 134.969 96.5987 135.785 96.2427C136.603 95.8894 137.571 95.881 138.691 96.2154L138.688 96.2175ZM139.537 101.543C139.826 101.283 140.051 100.952 140.211 100.551C140.372 100.149 140.439 99.7554 140.413 99.3698C140.385 98.9816 140.281 98.635 140.095 98.3269C139.912 98.0166 139.674 97.7408 139.38 97.4994C139.086 97.2581 138.755 97.063 138.385 96.9116C138.012 96.7623 137.639 96.6735 137.259 96.6467C136.878 96.6198 136.517 96.6558 136.17 96.7493C135.824 96.8428 135.506 97.022 135.217 97.2822C134.927 97.5424 134.703 97.8733 134.542 98.2749C134.382 98.6766 134.314 99.0702 134.34 99.4557C134.366 99.8413 134.472 100.191 134.658 100.499C134.841 100.809 135.08 101.085 135.373 101.326C135.664 101.57 135.998 101.763 136.368 101.914C136.738 102.065 137.117 102.15 137.494 102.179C137.875 102.206 138.236 102.17 138.583 102.076C138.932 101.981 139.248 101.804 139.537 101.543Z" fill="#A50000"/>
<path d="M131.134 105.386C130.648 106.261 130.512 107.063 130.724 107.795L130.147 107.987C129.901 107.134 130.07 106.181 130.658 105.123C131.146 104.245 131.82 103.715 132.681 103.531C133.541 103.347 134.444 103.515 135.379 104.033C136.314 104.55 136.937 105.221 137.24 106.047C137.542 106.873 137.449 107.723 136.961 108.6C136.743 108.995 136.472 109.323 136.147 109.581C135.824 109.842 135.456 110.03 135.044 110.144C134.631 110.259 134.162 110.267 133.636 110.172C133.111 110.077 132.563 109.87 131.992 109.556L134.803 104.49C134.45 104.317 134.105 104.202 133.767 104.142C133.427 104.084 133.095 104.08 132.771 104.13C132.446 104.18 132.141 104.315 131.858 104.527C131.574 104.74 131.333 105.028 131.131 105.388L131.134 105.386ZM135.282 104.752L132.799 109.228C133.152 109.402 133.5 109.519 133.847 109.58C134.194 109.642 134.529 109.644 134.851 109.591C135.173 109.538 135.476 109.405 135.759 109.193C136.043 108.98 136.281 108.695 136.48 108.336C136.68 107.973 136.799 107.617 136.827 107.268C136.857 106.915 136.807 106.588 136.679 106.286C136.55 105.985 136.368 105.704 136.132 105.448C135.896 105.192 135.614 104.959 135.279 104.754L135.282 104.752Z" fill="#A50000"/>
<path d="M129.105 109.249L129.219 109.829C129.053 109.877 128.865 109.968 128.655 110.097C128.222 110.357 127.82 110.749 127.453 111.273C127.068 111.819 126.888 112.323 126.915 112.781C126.941 113.239 127.15 113.603 127.541 113.881C127.702 113.992 127.864 114.065 128.03 114.095C128.196 114.125 128.358 114.115 128.517 114.064C128.676 114.014 128.828 113.942 128.976 113.849C129.123 113.756 129.276 113.631 129.431 113.476C129.589 113.318 129.73 113.161 129.857 113.01C129.988 112.856 130.124 112.677 130.272 112.474L130.717 112.787C129.802 114.167 129.702 115.108 130.416 115.604C130.692 115.795 131.004 115.845 131.348 115.749C131.693 115.653 132.05 115.348 132.415 114.83C132.734 114.378 132.927 113.89 132.997 113.374C133.041 113.137 133.051 112.913 133.032 112.708L133.619 112.617C133.655 112.839 133.649 113.09 133.605 113.365C133.525 113.968 133.276 114.56 132.865 115.144C132.421 115.775 131.945 116.172 131.437 116.336C130.929 116.499 130.466 116.433 130.045 116.14C129.698 115.897 129.49 115.589 129.419 115.212C129.351 114.838 129.385 114.458 129.524 114.073C129.358 114.22 129.188 114.339 129.008 114.441C128.828 114.543 128.639 114.617 128.434 114.669C128.228 114.722 128.016 114.727 127.798 114.686C127.579 114.645 127.367 114.556 127.165 114.416C126.595 114.015 126.301 113.51 126.295 112.902C126.289 112.293 126.525 111.647 127.007 110.96C127.474 110.298 127.962 109.817 128.468 109.513C128.692 109.373 128.904 109.285 129.108 109.247L129.105 109.249Z" fill="#A50000"/>
<path d="M123.08 116.214L130.204 118.567L129.724 119.119L123.457 116.965L126.467 122.853L125.987 123.404L121.689 114.727C121.422 114.188 121.269 113.751 121.222 113.412C121.178 113.075 121.237 112.774 121.404 112.514C121.506 112.357 121.647 112.2 121.828 112.05C122.009 111.9 122.186 111.8 122.357 111.753L122.604 112.321C122.294 112.433 122.071 112.602 121.94 112.826C121.822 113.017 121.787 113.243 121.837 113.493C121.888 113.746 122.016 114.079 122.225 114.494L123.084 116.22L123.08 116.214Z" fill="#A50000"/>
<path d="M124.596 124.797L120.255 128.776L115.569 123.696L116.042 123.262L120.359 127.944L123.756 124.835L119.439 120.153L119.912 119.719L124.599 124.799L124.596 124.797Z" fill="#A50000"/>
<path d="M118.221 130.446L117.697 130.821L116.761 129.526C116.881 130.059 116.842 130.599 116.642 131.143C116.445 131.69 116.091 132.143 115.585 132.508C114.765 133.096 113.907 133.304 113.016 133.123C112.122 132.945 111.366 132.425 110.74 131.562C110.114 130.699 109.862 129.817 109.974 128.918C110.088 128.017 110.555 127.273 111.375 126.685C111.883 126.318 112.431 126.128 113.011 126.111C113.591 126.094 114.119 126.231 114.586 126.518L111.499 122.249L112.023 121.874L118.221 130.446ZM112.795 126.647C112.413 126.712 112.044 126.87 111.693 127.123C111.342 127.375 111.072 127.672 110.89 128.013C110.708 128.354 110.61 128.702 110.6 129.064C110.587 129.423 110.641 129.783 110.76 130.144C110.876 130.501 111.051 130.845 111.286 131.171C111.521 131.497 111.791 131.769 112.097 131.993C112.402 132.216 112.727 132.381 113.074 132.486C113.42 132.591 113.782 132.611 114.167 132.544C114.549 132.479 114.918 132.321 115.269 132.068C115.621 131.815 115.89 131.519 116.072 131.178C116.254 130.837 116.355 130.486 116.363 130.127C116.375 129.767 116.321 129.408 116.203 129.047C116.086 128.689 115.911 128.346 115.676 128.02C115.442 127.694 115.171 127.421 114.866 127.198C114.56 126.974 114.235 126.809 113.889 126.704C113.542 126.599 113.18 126.579 112.795 126.647Z" fill="#A50000"/>
<path d="M105.007 131.331C104.13 131.813 103.585 132.419 103.372 133.151L102.783 133.007C103.03 132.153 103.685 131.439 104.745 130.854C105.627 130.368 106.481 130.28 107.306 130.581C108.132 130.882 108.805 131.501 109.325 132.438C109.843 133.372 110.008 134.271 109.824 135.127C109.637 135.985 109.103 136.656 108.224 137.14C107.828 137.358 107.423 137.488 107.012 137.538C106.6 137.587 106.189 137.549 105.777 137.426C105.366 137.306 104.964 137.064 104.573 136.704C104.182 136.345 103.825 135.88 103.511 135.31L108.599 132.517C108.394 132.185 108.163 131.903 107.907 131.671C107.651 131.439 107.372 131.26 107.072 131.131C106.769 131.005 106.443 130.953 106.089 130.983C105.736 131.013 105.377 131.129 105.013 131.327L105.007 131.331ZM108.859 132.996L104.364 135.464C104.569 135.796 104.801 136.081 105.064 136.316C105.324 136.554 105.606 136.735 105.907 136.859C106.209 136.985 106.537 137.032 106.89 137.002C107.243 136.973 107.6 136.859 107.959 136.66C108.321 136.46 108.61 136.221 108.824 135.938C109.038 135.654 109.17 135.353 109.223 135.03C109.277 134.707 109.271 134.375 109.209 134.031C109.146 133.687 109.03 133.341 108.857 132.989L108.859 132.996Z" fill="#A50000"/>
<path d="M97.8851 141.721L95.269 135.331L95.8641 135.091L97.0811 138.065C97.0485 137.176 97.5738 136.511 98.6571 136.071C100.423 135.354 101.653 135.844 102.349 137.545L103.179 139.57L102.584 139.81L101.754 137.785C101.486 137.136 101.127 136.695 100.672 136.463C100.216 136.231 99.6142 136.27 98.8609 136.573C98.1583 136.858 97.7145 137.252 97.5321 137.752C97.3498 138.253 97.3878 138.819 97.6462 139.451L98.476 141.475L97.8809 141.715L97.8851 141.721Z" fill="#A50000"/>
<path d="M89.4618 141.086L90.2701 143.987L89.6517 144.158L87.8008 137.508L88.4192 137.336L89.3169 140.56L93.8383 139.31L92.9406 136.087L93.559 135.915L95.4099 142.565L94.7915 142.737L93.9833 139.836L89.4618 141.086Z" fill="#A50000"/>
<path d="M85.4727 138.854C86.2174 139.421 86.6663 140.224 86.8237 141.267C86.9811 142.31 86.7868 143.208 86.243 143.965C85.6992 144.722 84.9054 145.177 83.859 145.334C82.8228 145.486 81.9296 145.281 81.1823 144.716C80.4349 144.151 79.9839 143.346 79.8265 142.303C79.6691 141.26 79.8661 140.359 80.4099 139.603C80.9564 138.844 81.7501 138.388 82.7912 138.236C83.8349 138.082 84.728 138.287 85.4706 138.852L85.4727 138.854ZM85.7196 143.635C86.1526 142.991 86.3034 142.23 86.1757 141.362C86.0459 140.492 85.6767 139.813 85.0735 139.321C84.4702 138.829 83.7371 138.646 82.8737 138.776C82.0129 138.904 81.3636 139.29 80.93 139.939C80.497 140.584 80.3462 141.345 80.4739 142.212C80.6016 143.079 80.9729 143.761 81.5762 144.253C82.1794 144.745 82.9125 144.928 83.776 144.798C84.6368 144.67 85.286 144.284 85.7196 143.635Z" fill="#A50000"/>
<path d="M67.4899 145.845L67.7012 139.493L67.0575 139.473L67.127 137.364L67.7706 137.384L67.7161 138.95L73.9133 139.16L73.9678 137.594L74.6114 137.614L74.542 139.723L73.8915 139.7C73.1949 140.554 72.6909 141.863 72.382 143.624C72.2379 144.41 72.1512 145.203 72.1198 146L67.4851 145.844L67.4899 145.845ZM73.1051 139.674L68.3448 139.513L68.1485 145.322L71.5252 145.437C71.5455 145.11 71.586 144.737 71.6424 144.313C71.7009 143.892 71.7857 143.394 71.9032 142.827C72.0186 142.258 72.1797 141.692 72.3851 141.122C72.5926 140.554 72.8312 140.07 73.1004 139.674L73.1051 139.674Z" fill="#A50000"/>
<path d="M64.2648 145.499L59.005 144.692L60.0528 137.873L60.6892 137.972L59.724 144.251L63.713 144.864L64.2442 141.414C64.3067 141.02 64.3859 140.669 64.4912 140.362C64.5965 140.055 64.7011 139.814 64.8084 139.631C64.9178 139.451 65.0455 139.299 65.1936 139.179C65.3418 139.059 65.4689 138.973 65.5722 138.923C65.6755 138.872 65.803 138.842 65.948 138.828C66.093 138.814 66.1953 138.812 66.2506 138.816C66.3081 138.823 66.3793 138.837 66.4718 138.855C66.4957 138.858 66.5101 138.86 66.5196 138.861L66.4349 139.397C66.1441 139.353 65.9018 139.408 65.7011 139.56C65.3051 139.861 65.0318 140.51 64.8792 141.506L64.2654 145.495L64.2648 145.499Z" fill="#A50000"/>
<path d="M53.2175 136.119L53.8384 136.286L53.0943 139.03L55.1476 139.582L57.7872 137.349L58.5377 137.548L55.8699 139.773C56.4462 139.928 56.8463 140.233 57.0729 140.686C57.2995 141.14 57.3343 141.652 57.1795 142.227C57.0247 142.801 56.735 143.225 56.3126 143.503C55.8902 143.781 55.3895 143.844 54.8132 143.689L51.4173 142.774L53.2181 136.114L53.2175 136.119ZM52.1792 142.421L54.9542 143.169C55.3542 143.276 55.6907 143.225 55.9638 143.016C56.237 142.807 56.4313 142.487 56.5464 142.06C56.6614 141.634 56.6555 141.263 56.5266 140.944C56.3977 140.626 56.1346 140.413 55.7326 140.304L52.9575 139.555L52.1818 142.419L52.1792 142.421Z" fill="#A50000"/>
<path d="M45.5878 140.14L45.3623 140.635L39.9677 138.18L40.1931 137.684L42.5983 138.777L45.2446 132.995L45.8315 133.262L43.1852 139.045L45.5904 140.138L45.5878 140.14Z" fill="#A50000"/>
<path d="M38.4336 129.366L41.5936 131.242L38.0507 137.168L34.8907 135.291C34.3062 134.944 33.9551 134.536 33.8346 134.069C33.7168 133.6 33.7863 133.148 34.0478 132.715C34.213 132.435 34.4377 132.225 34.7165 132.09C34.9953 131.954 35.319 131.909 35.6891 131.961C35.4156 131.674 35.266 131.346 35.2425 130.98C35.219 130.614 35.3056 130.261 35.5065 129.928C35.6435 129.7 35.8004 129.508 35.9846 129.352C36.1688 129.195 36.3798 129.078 36.6223 129.001C36.8649 128.923 37.1408 128.911 37.4518 128.97C37.7606 129.027 38.0916 129.162 38.4405 129.369L38.4336 129.366ZM40.7631 131.381L38.1557 129.833C37.7073 129.565 37.3024 129.48 36.9394 129.569C36.5785 129.661 36.2881 129.892 36.0634 130.261C35.8468 130.625 35.7799 130.975 35.8634 131.307C35.9469 131.639 36.1911 131.928 36.5919 132.167L39.3194 133.786L40.7583 131.381L40.7631 131.381ZM39.0463 134.254L36.3167 132.633C35.9885 132.435 35.6728 132.375 35.3653 132.447C35.0578 132.518 34.8077 132.718 34.6122 133.048C34.4113 133.381 34.3596 133.707 34.4555 134.016C34.5515 134.325 34.7906 134.597 35.1712 134.822L37.7786 136.37L39.0442 134.251L39.0463 134.254Z" fill="#A50000"/>
<path d="M34.1624 127.635C34.2682 128.562 33.9985 129.442 33.3506 130.276C32.7027 131.11 31.9177 131.593 30.993 131.728C30.0682 131.862 29.1862 131.605 28.3491 130.959C27.5183 130.321 27.0479 129.535 26.9422 128.608C26.8343 127.677 27.104 126.798 27.7519 125.964C28.3997 125.13 29.1847 124.647 30.1116 124.515C31.0384 124.383 31.9183 124.637 32.7533 125.281C33.5883 125.924 34.0566 126.707 34.1624 127.635ZM30.8723 131.122C31.6394 130.986 32.2949 130.569 32.8332 129.877C33.3695 129.182 33.6095 128.446 33.5459 127.671C33.4849 126.894 33.1075 126.243 32.4167 125.712C31.726 125.18 30.9994 124.983 30.2275 125.119C29.4604 125.256 28.8049 125.673 28.2665 126.365C27.7282 127.057 27.4902 127.796 27.5518 128.568C27.6154 129.343 27.9902 129.996 28.6809 130.527C29.3717 131.059 30.0982 131.256 30.8702 131.12L30.8723 131.122Z" fill="#A50000"/>
<path d="M26.3476 120.416C25.6341 119.712 24.8968 119.363 24.131 119.37L24.1051 118.764C24.9944 118.76 25.8711 119.181 26.7344 120.032C27.45 120.738 27.7813 121.529 27.7257 122.405C27.6701 123.282 27.2647 124.099 26.5116 124.86C25.7585 125.62 24.9433 126.032 24.0634 126.097C23.1836 126.162 22.3869 125.843 21.6713 125.136C21.348 124.819 21.1059 124.472 20.9436 124.09C20.7786 123.709 20.699 123.305 20.6974 122.879C20.6984 122.45 20.8164 122 21.0517 121.523C21.287 121.045 21.6331 120.577 22.0904 120.112L26.2243 124.186C26.4855 123.896 26.6919 123.596 26.8415 123.285C26.991 122.974 27.0852 122.659 27.1226 122.332C27.1599 122.005 27.1147 121.678 26.987 121.35C26.8571 121.019 26.6445 120.71 26.3518 120.421L26.3476 120.416ZM25.8403 124.568L22.1899 120.971C21.9287 121.261 21.7217 121.565 21.5668 121.88C21.4119 122.196 21.3192 122.518 21.2825 122.841C21.2478 123.166 21.293 123.493 21.4208 123.821C21.5506 124.151 21.7611 124.457 22.0517 124.744C22.3464 125.037 22.6591 125.242 22.9913 125.367C23.3234 125.492 23.651 125.534 23.9789 125.494C24.3047 125.451 24.6226 125.354 24.9378 125.199C25.2482 125.043 25.5506 124.833 25.8403 124.568Z" fill="#A50000"/>
<path d="M17.9432 121.022L14.7648 117.139L15.1879 116.796L17.9601 120.184L22.9005 116.168L23.3088 116.666L17.9453 121.025L17.9432 121.022Z" fill="#A50000"/>
<path d="M18.1696 111.55C17.9619 112.459 17.4103 113.2 16.5222 113.773C15.634 114.345 14.731 114.54 13.8132 114.359C12.8953 114.177 12.1513 113.644 11.5765 112.759C11.0079 111.881 10.8251 110.988 11.0334 110.074C11.2411 109.165 11.7906 108.421 12.6787 107.849C13.5668 107.276 14.4698 107.081 15.3898 107.265C16.3077 107.447 17.0538 107.983 17.6244 108.863C18.1951 109.743 18.3773 110.641 18.1696 111.55ZM13.8997 113.747C14.6711 113.875 15.4237 113.698 16.1639 113.223C16.902 112.747 17.3724 112.133 17.5732 111.381C17.774 110.628 17.6382 109.888 17.1635 109.158C16.6888 108.427 16.0679 108.001 15.2964 107.874C14.525 107.746 13.7723 107.923 13.0322 108.397C12.2941 108.874 11.8236 109.487 11.6228 110.24C11.422 110.993 11.5579 111.733 12.0326 112.463C12.5073 113.194 13.1282 113.62 13.8997 113.747Z" fill="#A50000"/>
<path d="M3.00306 94.0602L9.03072 91.989L8.82267 91.3829L10.8249 90.6965L11.033 91.3026L9.54531 91.8118L11.572 97.6558L13.0597 97.1466L13.2677 97.7527L11.2654 98.4391L11.0532 97.8276C10.0043 97.4849 8.59576 97.4834 6.83712 97.8242C6.05176 97.971 5.2765 98.1746 4.51668 98.4309L3.00516 94.0629L3.00306 94.0602ZM10.7965 97.0825L9.24355 92.5957L3.73049 94.4897L4.83258 97.6705C5.14562 97.573 5.50711 97.4765 5.92452 97.3795C6.34193 97.2825 6.8371 97.1853 7.41212 97.0905C7.98504 96.993 8.57667 96.9414 9.1828 96.9302C9.79105 96.9218 10.3268 96.9698 10.7944 97.0798L10.7965 97.0825Z" fill="#A50000"/>
<path d="M8.05949 89.5695C7.53788 90.3436 6.75862 90.8396 5.72442 91.0553C4.68753 91.2732 3.77668 91.1336 2.98441 90.6381C2.19213 90.1426 1.69012 89.3774 1.47089 88.344C1.25529 87.3207 1.40589 86.4217 1.93018 85.6455C2.44969 84.8687 3.22894 84.3727 4.26583 84.1549C5.30272 83.937 6.21567 84.0793 7.00526 84.5769C7.79696 85.0771 8.30165 85.8402 8.51936 86.8662C8.73707 87.8922 8.58378 88.7933 8.06217 89.5674L8.05949 89.5695ZM3.28322 90.0984C3.95668 90.4923 4.72355 90.5974 5.58593 90.4165C6.44832 90.2356 7.10739 89.8291 7.56525 89.1997C8.02311 88.5704 8.15936 87.8294 7.9809 86.98C7.80243 86.1306 7.37302 85.5073 6.70166 85.116C6.0282 84.7221 5.26133 84.6169 4.39895 84.7979C3.53656 84.9788 2.87749 85.3853 2.41963 86.0147C1.96177 86.644 1.82552 87.385 2.00398 88.2344C2.18244 89.0838 2.61186 89.7071 3.28322 90.0984Z" fill="#A50000"/>
<path d="M0.513916 81.9498L0.0537043 76.6662L6.95063 76.0752L7.00658 76.7137L0.654354 77.2595L1.00267 81.2661L4.49537 80.9663C4.89298 80.9322 5.25513 80.9302 5.57971 80.9575C5.90429 80.9848 6.16584 81.031 6.36704 81.0942C6.56825 81.1573 6.74471 81.2441 6.90066 81.3598C7.05182 81.475 7.16584 81.5759 7.24004 81.6648C7.31424 81.7537 7.37329 81.8673 7.42197 82.0064C7.47064 82.1454 7.49523 82.2428 7.50321 82.297C7.51119 82.3512 7.51416 82.4266 7.5175 82.5189C7.51939 82.5434 7.52244 82.5583 7.52128 82.5678L6.97868 82.6157C6.95335 82.3246 6.84215 82.1006 6.64718 81.9462C6.25993 81.6354 5.5645 81.522 4.55342 81.6074L0.520798 81.953L0.513916 81.9498Z" fill="#A50000"/>
<path d="M0.00268617 74.0897L0.104232 69.08L0.649454 69.0905L0.560127 73.4603L6.93646 73.5952L6.92155 74.2372L0 74.0918L0.00268617 74.0897Z" fill="#A50000"/>
<path d="M6.33737 67.0169C5.58467 67.5741 4.6874 67.7823 3.63809 67.6429C2.58878 67.5034 1.77461 67.0682 1.19556 66.3372C0.616521 65.6062 0.394244 64.7176 0.533532 63.6721C0.67166 62.636 1.11574 61.8404 1.86634 61.2804C2.61694 60.7205 3.51899 60.5129 4.5683 60.6523C5.61761 60.7918 6.43178 61.227 7.01293 61.9607C7.59139 62.6964 7.81425 63.5802 7.67554 64.6211C7.53683 65.6619 7.09218 66.4622 6.34216 67.0174L6.33737 67.0169ZM1.65815 65.9287C2.164 66.5225 2.84958 66.8768 3.72446 66.9926C4.59933 67.1085 5.35501 66.9461 5.99899 66.5038C6.64297 66.0616 7.01852 65.4102 7.13308 64.548C7.24764 63.6857 7.05199 62.9577 6.54824 62.3665C6.04239 61.7727 5.35682 61.4184 4.48194 61.3026C3.60707 61.1867 2.85138 61.3492 2.20739 61.7914C1.5661 62.2315 1.18788 62.885 1.07332 63.7473C0.958756 64.6095 1.15439 65.3375 1.65815 65.9287Z" fill="#A50000"/>
<path d="M1.76652 57.3258L3.09521 52.1915L9.79756 53.9197L9.63693 54.5416L3.46204 52.95L2.45461 56.8405L5.84828 57.7146C6.23712 57.8126 6.57729 57.9314 6.87417 58.0666C7.16894 58.1992 7.4009 58.329 7.57273 58.4539C7.74456 58.5789 7.87998 58.7236 7.98704 58.8818C8.09142 59.0421 8.16519 59.1745 8.20299 59.2831C8.24078 59.3918 8.26189 59.5178 8.26095 59.6653C8.25791 59.8101 8.25051 59.9109 8.24145 59.9655C8.2276 60.0194 8.21143 60.0925 8.18126 60.1808L8.17067 60.2279L7.64322 60.0913C7.71632 59.8098 7.68578 59.5616 7.55369 59.3495C7.29162 58.9281 6.6719 58.5915 5.69243 58.3371L1.77131 57.3264L1.76652 57.3258Z" fill="#A50000"/>
<path d="M11.0447 49.2983C11.4081 48.3671 11.4316 47.5543 11.1233 46.8537L11.6708 46.5862C12.0312 47.3971 11.9912 48.3652 11.5529 49.4931C11.1889 50.4291 10.5943 51.0443 9.7638 51.3429C8.93594 51.6393 8.02307 51.5963 7.02308 51.2112C6.02308 50.826 5.31899 50.2444 4.90604 49.4658C4.4952 48.6899 4.47072 47.8326 4.83471 46.8965C4.9976 46.4758 5.22113 46.1157 5.50529 45.8162C5.78945 45.5167 6.12678 45.2793 6.52148 45.1094C6.91619 44.9394 7.37915 44.8674 7.91037 44.8931C8.44427 44.9167 9.01386 45.0464 9.62393 45.2826L7.52468 50.6815C7.89568 50.8064 8.25659 50.8744 8.59995 50.887C8.94331 50.8996 9.27601 50.8601 9.58904 50.7626C9.90419 50.6677 10.1876 50.494 10.4388 50.2461C10.69 49.9983 10.8912 49.6814 11.0405 49.293L11.0447 49.2983ZM7.02123 50.4873L8.87405 45.7167C8.50305 45.5919 8.13945 45.5259 7.7892 45.5101C7.43626 45.4963 7.10567 45.5384 6.79321 45.6312C6.48017 45.7288 6.19941 45.9004 5.94825 46.1483C5.69708 46.3961 5.49582 46.7129 5.34983 47.0946C5.19847 47.4804 5.13409 47.8501 5.15187 48.2032C5.16966 48.5563 5.26236 48.8725 5.4321 49.1545C5.60183 49.4365 5.81871 49.6903 6.08809 49.9118C6.35748 50.1333 6.66923 50.326 7.02659 50.4831L7.02123 50.4873Z" fill="#A50000"/>
<path d="M7.42097 42.4643L6.93674 42.2119L9.67928 36.9758L10.1635 37.2282L8.94204 39.5631L14.5981 42.5051L14.3006 43.0741L8.64454 40.1321L7.42308 42.467L7.42097 42.4643Z" fill="#A50000"/>
<path d="M14.0369 30.3019L19.7841 34.1529L19.4257 34.683L14.4848 31.3728L16.9167 38.3986L16.5378 38.9577L10.7907 35.1067L11.149 34.5766L16.09 37.8868L13.6554 30.8631L14.0375 30.2972L14.0369 30.3019Z" fill="#A50000"/>
<path d="M24.2847 28.7404L23.8681 29.2296L21.6924 27.3876L20.3157 29.0018L21.2198 32.3329L20.7181 32.9231L19.8313 29.5699C19.4461 30.0217 18.9975 30.2553 18.4936 30.2643C17.987 30.2755 17.5048 30.0862 17.0512 29.702C16.5976 29.3178 16.331 28.874 16.2582 28.3739C16.1854 27.8738 16.343 27.3967 16.7283 26.9449L19.0059 24.2735L24.2847 28.7404ZM19.0082 25.1136L17.1471 27.2958C16.8782 27.6093 16.7828 27.9342 16.8583 28.2725C16.9343 28.606 17.1395 28.9165 17.4785 29.2045C17.8154 29.4898 18.1563 29.6425 18.5012 29.6626C18.8461 29.6827 19.1505 29.5357 19.4194 29.2222L21.2805 27.0399L19.0103 25.1162L19.0082 25.1136Z" fill="#A50000"/>
<path d="M32.3916 18.151C32.3916 19.1698 31.5627 19.9957 30.5403 19.9957C29.5178 19.9957 28.6889 19.1698 28.6889 18.151C28.6889 17.1322 29.5178 16.3063 30.5403 16.3063C31.5627 16.3063 32.3916 17.1322 32.3916 18.151Z" fill="#A50000"/>
</svg>
